<?xml version="1.0" encoding="utf-8"?>
<svg viewBox="0 0 500 500" xmlns="http://www.w3.org/2000/svg">
  <path d="M 242.06 6.135 C 243.625 5.655 244.072 6.376 243.401 8.297 C 248.022 16.795 253.68 24.29 260.377 30.781 L 262.163 36.834 L 262.16 45.482 L 260.371 51.535 L 246.063 76.612 L 243.379 88.719 L 243.376 99.096 L 243.376 100.826 L 243.367 131.957 L 244.707 133.254 C 247.836 134.263 248.879 133.254 247.837 130.227 L 245.158 118.121 L 245.164 98.231 L 247.849 84.395 L 252.322 72.288 C 255.45 65.513 259.771 59.892 265.286 55.426 L 276.014 49.373 L 291.209 44.184 L 330.54 34.672 C 340.114 30.674 348.16 25.197 354.677 18.242 L 355.124 20.403 L 352.439 29.916 C 353.233 33.855 352.934 36.738 351.544 38.563 L 352.437 39.428 L 352.434 48.076 L 354.22 54.993 L 364.044 86.125 L 366.721 100.826 L 366.719 109.473 L 364.035 119.85 L 359.563 128.497 C 354.769 135.679 348.958 141.877 342.129 147.09 L 328.719 155.737 L 305.925 165.682 L 308.158 168.709 L 338.553 150.549 L 348.386 146.225 L 357.773 137.145 L 369.398 118.121 L 376.104 109.905 C 379.929 105.533 386.186 103.516 394.875 103.852 L 401.132 105.581 L 422.136 106.446 C 417.119 113.535 413.243 122.039 410.509 131.957 L 402.91 140.171 L 391.289 144.495 L 366.262 144.495 L 352.855 147.09 L 309.498 171.735 L 310.391 174.761 L 330.506 160.926 L 347.49 153.143 L 364.473 148.819 L 382.35 148.819 L 386.818 149.684 L 395.755 154.008 L 412.288 166.114 L 413.627 168.709 L 417.649 171.735 L 418.989 173.897 C 420.33 173.464 420.776 173.897 420.329 175.194 L 444.903 198.11 L 452.946 202.434 L 465.459 205.892 L 466.799 207.189 C 467.295 208.703 466.55 209.136 464.564 208.487 L 446.686 215.405 C 437.704 221.417 429.806 228.479 422.994 236.591 L 410.03 249.995 L 391.256 262.966 L 384.105 265.56 L 373.379 266.425 L 372.486 265.56 L 358.185 264.696 L 340.311 258.642 L 328.693 252.589 L 310.373 239.618 L 309.479 241.779 L 310.372 243.941 L 352.822 267.29 L 361.759 269.02 L 368.016 269.02 L 368.909 269.884 L 393.042 269.884 C 400.107 271.408 405.32 274.723 408.681 279.829 C 411.109 282.668 412.597 286.415 413.147 291.07 L 422.081 307.933 L 409.12 307.933 L 402.864 309.662 L 390.349 310.527 C 381.374 309.123 374.969 305.231 371.136 298.853 L 361.309 281.558 L 351.927 270.749 L 308.137 245.671 C 306.2 246.344 305.455 247.785 305.901 249.995 C 325.551 255.325 341.339 264.693 353.265 278.099 L 363.987 294.529 L 366.665 304.907 L 366.663 311.824 L 365.769 312.689 L 365.767 319.608 L 363.978 328.255 L 352.347 367.169 L 352.342 385.328 L 355.021 396.57 L 347.425 390.085 L 332.233 380.572 L 279.502 366.736 C 270.688 363.735 263.687 358.978 258.501 352.468 L 249.568 336.038 L 245.996 323.066 C 246.891 319.895 246.593 317.878 245.104 317.013 L 245.109 296.259 L 247.795 281.126 C 245.524 280.549 244.034 280.982 243.326 282.423 L 244.211 313.554 L 243.317 314.419 L 243.314 325.66 C 244.804 326.525 245.101 328.543 244.206 331.714 L 248.672 343.82 L 260.286 362.845 L 262.072 368.898 L 262.069 378.41 L 259.386 384.464 C 252.602 391.45 246.79 399.376 241.95 408.244 L 222.741 381.004 C 221.252 377.834 220.955 373.51 221.851 368.033 L 226.323 357.656 L 237.948 337.767 L 240.632 328.255 L 240.633 323.931 L 239.739 323.066 L 239.749 286.747 L 240.644 282.423 C 239.937 280.982 238.448 280.549 236.175 281.126 L 237.961 290.206 L 237.959 297.124 L 238.853 297.989 L 238.848 316.148 L 236.162 329.984 L 230.795 343.82 C 227.703 350.342 223.381 355.675 217.831 359.818 L 204.422 366.736 L 194.589 370.195 L 191.014 370.195 L 151.683 380.572 C 142.721 384.586 135.271 390.062 129.333 397.002 L 128.888 393.111 L 131.571 385.328 L 131.576 366.304 L 119.074 324.796 L 118.183 314.419 L 117.29 313.554 L 117.293 304.042 L 119.082 296.259 L 123.554 287.612 C 128.261 280.058 134.073 273.572 140.989 268.155 C 151.25 259.79 163.616 253.737 178.086 249.995 C 178.534 247.785 177.789 246.344 175.853 245.671 L 138.307 266.425 L 128.92 273.775 C 123.109 280.261 118.34 287.756 114.613 296.259 L 107.907 304.474 L 98.074 309.662 L 90.03 310.527 L 76.623 307.933 L 61.875 307.933 L 69.924 292.8 L 73.502 282.423 L 78.42 275.937 L 90.935 269.884 L 115.068 269.884 L 115.961 269.02 L 126.687 268.155 C 135.387 265.328 142.985 261.437 149.483 256.48 L 148.142 256.048 L 141.885 259.507 L 126.688 264.696 L 109.706 266.425 L 108.812 265.56 L 96.299 264.696 L 81.106 256.048 L 51.171 227.944 C 51.619 226.647 51.172 226.214 49.831 226.646 L 35.533 214.54 L 16.319 207.189 L 32.856 201.569 L 40.007 197.245 L 65.487 173.464 L 73.087 165.25 C 79.147 159.004 86.596 154.104 95.436 150.549 C 101.992 148.243 110.334 147.666 120.463 148.819 C 133.067 151.325 144.09 155.361 153.531 160.926 L 173.638 174.761 L 174.533 171.735 L 136.552 149.684 L 128.509 146.225 L 117.783 145.36 L 116.889 144.495 L 92.757 144.495 L 88.288 143.631 C 82.727 141.805 78.407 138.779 75.33 134.551 L 61.931 106.446 L 96.343 103.852 C 102.083 105.505 106.7 108.243 110.195 112.067 L 125.383 136.28 L 134.765 145.36 L 150.852 154.008 L 149.958 152.278 C 141.445 147.833 134.445 141.923 128.959 134.551 L 120.024 120.715 L 117.346 108.608 L 117.349 100.826 L 118.242 99.961 L 120.034 85.26 L 131.664 47.211 L 131.668 30.781 L 128.99 18.674 L 131.224 19.971 L 149.097 32.943 L 161.609 37.266 L 183.06 41.59 L 203.615 47.644 C 212.23 50.55 219.23 55.018 224.616 61.047 C 235.158 73.905 239.92 92.353 238.902 116.391 L 238.008 117.256 L 238.006 124.173 L 236.216 133.254 C 238.488 133.83 239.977 133.398 240.685 131.957 C 241.431 129.218 241.134 127.488 239.793 126.768 L 239.799 103.42 L 239.8 101.69 L 240.694 99.096 L 240.698 85.26 L 234.446 68.83 L 223.725 51.535 C 221.641 47.787 221.046 42.599 221.941 35.969 L 223.731 30.781 L 242.06 6.135 Z M 242.275 15.418 L 241.61 20.555 L 236.964 22.481 L 236.298 28.26 L 232.98 30.186 L 232.979 34.039 L 228.331 40.459 L 228.33 46.238 L 229.655 52.659 L 242.258 77.058 L 254.21 52.659 L 256.203 45.596 L 256.205 40.459 L 251.561 34.039 C 252.447 31.042 252.004 29.758 250.235 30.186 C 247.138 29.758 246.032 27.404 246.918 23.123 L 243.6 21.839 C 241.831 20.983 241.389 18.843 242.275 15.418 Z M 136.75 30.186 L 136.749 34.039 L 136.079 55.869 L 128.769 93.752 L 128.763 114.94 C 130.531 122.217 133.626 128.424 138.049 133.561 C 145.126 142.122 153.972 149.184 164.589 154.749 L 165.917 152.823 L 169.9 150.255 L 169.237 148.328 L 169.901 145.118 C 171.229 141.265 174.769 139.981 180.521 141.265 L 183.174 145.118 C 184.501 147.258 185.607 147.686 186.492 146.402 C 189.589 145.546 191.359 145.76 191.801 147.044 C 193.571 146.616 194.013 147.258 193.128 148.97 L 213.704 138.055 L 213.042 132.276 L 216.361 129.066 L 213.708 125.856 L 215.037 118.793 L 219.683 116.224 C 223.665 115.368 226.098 116.224 226.983 118.793 C 228.311 116.224 230.523 115.368 233.62 116.224 L 230.972 91.183 C 229.204 84.335 226.109 78.342 221.686 73.205 C 217.263 67.213 211.291 62.504 203.771 59.08 L 179.218 49.448 L 159.974 43.028 L 144.049 35.323 L 136.75 30.186 Z M 346.464 30.186 L 340.49 35.323 L 327.879 41.744 L 288.72 55.227 L 271.462 64.216 C 263.939 69.353 258.407 76.416 254.865 85.405 L 251.543 98.888 L 250.211 116.224 C 253.308 115.368 255.299 116.224 256.183 118.793 C 257.954 116.224 261.051 115.368 265.475 116.224 L 270.119 121.361 C 270.561 125.214 269.675 127.568 267.463 128.424 L 270.78 132.918 L 270.115 138.055 L 280.732 142.55 L 288.694 148.97 C 290.906 149.398 291.57 148.756 290.686 147.044 C 292.456 146.188 295.331 145.974 299.313 146.402 L 300.641 143.834 C 301.527 140.837 304.624 139.981 309.933 141.265 L 314.577 146.402 L 313.913 150.255 L 317.23 151.539 L 319.884 154.749 L 333.824 145.118 C 344.444 138.269 351.526 128.21 355.069 114.94 L 355.075 93.752 L 354.411 93.11 L 353.087 81.552 L 351.761 76.416 L 350.436 66.785 L 347.785 55.869 L 347.787 48.806 L 347.123 48.164 L 347.127 34.039 L 347.791 33.397 C 348.676 30.828 348.234 29.758 346.464 30.186 Z M 70.362 111.088 L 71.026 112.372 L 72.353 112.372 L 70.362 111.088 Z M 79.654 111.088 L 76.998 113.656 L 73.68 112.372 L 72.353 113.014 L 75.007 116.224 L 74.342 118.793 L 76.996 120.077 L 79.65 123.929 L 78.986 126.498 L 80.976 127.782 C 83.188 129.066 84.294 130.992 84.293 133.561 L 94.246 139.339 L 117.474 141.265 L 124.11 142.55 L 126.101 142.55 L 110.179 120.719 C 107.083 116.867 103.102 113.87 98.236 111.73 L 96.244 112.372 C 92.262 113.228 89.829 112.8 88.945 111.088 L 86.29 112.372 C 82.75 113.228 80.538 112.8 79.654 111.088 Z M 394.889 111.088 L 392.898 112.372 C 389.8 113.228 387.809 113.014 386.925 111.73 L 380.288 114.298 L 373.649 120.719 L 359.707 140.623 L 358.379 142.55 L 366.344 141.265 L 384.926 139.981 L 392.227 138.697 L 398.201 134.845 C 399.528 134.417 399.971 133.133 399.529 130.992 L 404.839 127.14 L 404.176 125.214 L 404.841 122.645 L 409.487 118.793 L 408.824 115.582 L 410.816 112.372 L 409.489 113.656 C 406.392 113.656 404.843 112.8 404.844 111.088 L 402.189 112.372 C 398.649 113.228 396.216 112.8 394.889 111.088 Z M 412.808 111.088 L 412.144 112.372 L 414.135 111.088 L 412.808 111.088 Z M 234.941 138.697 L 221.667 141.265 L 214.366 143.834 L 195.781 154.749 C 182.948 165.022 174.758 179.576 171.214 198.41 L 171.209 216.389 L 173.86 227.946 C 176.955 236.935 181.377 244.64 187.127 251.061 C 192.435 257.481 198.848 262.832 206.369 267.113 L 220.304 273.533 L 232.912 276.102 L 251.495 276.102 C 252.38 274.818 254.371 274.389 257.468 274.818 L 276.052 268.397 L 287.336 260.692 C 301.054 250.419 309.686 235.437 313.231 215.746 L 313.235 199.695 L 311.247 190.063 C 308.153 178.934 303.068 169.731 295.991 162.454 C 288.914 154.321 280.067 148.114 269.449 143.834 L 255.514 139.339 L 234.941 138.697 Z M 153.307 154.749 L 155.961 157.317 L 157.288 157.317 L 153.307 154.749 Z M 113.487 156.675 L 101.541 159.244 L 94.24 162.454 L 80.3 172.085 L 47.11 199.052 L 29.853 207.399 C 36.932 209.54 43.346 212.75 49.096 217.031 L 90.898 249.777 C 96.648 253.629 103.505 256.197 111.469 257.481 L 129.388 256.839 C 139.122 254.271 147.972 250.847 155.937 246.566 C 154.61 244.854 154.168 242.286 154.611 238.861 L 151.957 237.577 L 148.64 233.083 L 149.305 228.588 C 151.076 225.164 154.394 223.879 159.261 224.736 L 159.926 220.883 C 160.368 219.171 161.917 218.529 164.572 218.957 L 165.899 217.673 L 165.905 197.768 L 166.569 197.126 L 159.933 194.558 L 159.271 189.421 L 151.97 188.779 L 148.653 184.927 L 149.319 178.506 L 154.629 175.938 L 153.966 172.727 L 155.958 168.875 C 148.88 164.166 140.696 160.742 131.405 158.602 L 121.451 156.675 L 113.487 156.675 Z M 362.357 156.675 L 343.774 161.17 L 328.508 168.875 L 329.171 170.801 L 328.506 174.011 C 328.064 175.724 328.727 176.366 330.497 175.938 L 335.141 181.074 L 333.812 187.495 C 332.042 189.635 328.944 190.277 324.52 189.421 L 323.856 193.274 C 322.97 195.414 320.979 196.484 317.882 196.484 L 318.545 197.768 L 318.54 215.746 L 317.213 216.389 L 322.521 219.599 L 324.511 222.809 L 324.511 224.736 L 330.483 224.736 L 335.127 230.514 L 333.799 236.293 L 328.489 238.861 L 329.152 240.787 L 328.487 246.566 L 345.739 254.271 L 359.675 257.481 L 376.93 256.839 L 391.532 251.061 L 407.463 239.503 L 435.343 217.031 C 440.653 212.75 447.069 209.54 454.591 207.399 L 443.974 203.547 L 430.703 194.558 C 418.319 182.572 404.606 171.871 389.566 162.454 C 382.93 158.174 373.861 156.247 362.357 156.675 Z M 159.943 158.602 L 160.606 159.886 L 175.867 168.875 L 177.859 165.664 L 159.943 158.602 Z M 172.53 239.503 L 157.263 251.061 L 155.935 252.345 L 174.52 242.714 L 172.53 239.503 Z M 154.608 252.345 L 152.616 253.629 L 151.952 254.913 L 155.935 252.987 L 154.608 252.345 Z M 163.233 260.692 L 149.294 269.681 C 139.558 276.958 132.698 287.017 128.712 299.859 L 128.706 321.047 L 136.658 365.992 C 137.983 373.269 137.76 379.048 135.99 383.329 L 135.326 384.613 L 152.583 374.34 L 199.708 357.003 L 212.319 350.583 C 219.842 345.018 225.374 337.955 228.916 329.394 L 232.902 315.268 L 233.57 298.574 C 230.473 299.002 228.261 298.146 226.934 296.006 L 222.951 298.574 L 216.979 297.29 C 213.882 296.006 212.777 293.01 213.663 288.301 L 216.318 285.733 L 213.001 282.522 C 212.117 279.526 212.339 277.814 213.666 277.386 L 195.75 266.471 L 190.44 269.039 L 186.459 268.397 C 184.689 267.541 184.025 267.969 184.467 269.681 L 177.83 274.175 L 173.184 273.533 L 169.867 270.323 L 169.204 267.113 L 169.869 263.902 L 167.878 263.902 L 163.233 260.692 Z M 318.528 260.692 L 318.528 261.976 L 315.873 263.26 L 314.545 264.544 L 313.88 270.323 L 307.242 274.175 L 301.933 272.249 L 299.943 268.397 L 296.625 269.039 L 293.97 269.039 L 289.326 265.828 C 284.015 270.537 277.599 273.961 270.077 276.102 L 270.74 278.67 C 270.739 282.522 269.632 284.877 267.42 285.733 L 270.073 289.585 L 269.408 295.364 L 265.425 298.574 C 261.001 299.431 258.346 298.574 257.462 296.006 C 255.692 295.578 255.25 296.006 256.134 297.29 L 250.161 298.574 L 250.159 308.206 L 251.486 309.49 L 251.484 315.91 C 252.811 317.623 253.474 320.191 253.473 323.615 C 255.24 331.748 258.778 338.169 264.086 342.878 L 265.412 345.446 C 271.163 350.583 278.019 354.863 285.982 358.288 L 331.106 374.34 L 343.714 381.402 L 347.695 384.613 L 347.032 380.118 L 347.702 357.645 L 355.012 321.047 L 355.018 300.501 L 354.356 296.006 C 352.145 289.585 349.05 284.235 345.069 279.954 L 331.136 267.113 L 320.519 260.692 L 318.528 260.692 Z M 124.074 271.607 L 116.11 273.533 L 98.191 274.175 L 90.89 276.102 L 86.244 278.67 C 84.474 279.526 83.589 281.452 83.588 284.449 L 78.942 287.659 L 79.605 289.585 L 76.949 294.08 L 74.294 294.08 L 74.293 299.859 L 72.301 301.143 L 72.301 301.785 L 74.956 301.143 C 77.611 300.715 79.159 301.571 79.601 303.711 L 83.583 301.143 L 88.228 303.711 C 89.999 301.571 93.538 300.929 98.847 301.785 L 104.157 299.216 L 126.065 272.249 L 124.074 271.607 Z M 359.008 271.607 L 359.671 274.818 L 373.602 293.438 L 384.218 301.785 C 389.085 300.929 392.625 301.143 394.837 302.427 C 395.721 304.139 396.606 303.925 397.491 301.785 C 401.474 300.929 403.907 301.571 404.791 303.711 C 405.677 301.571 407.668 300.501 410.765 300.501 L 408.775 297.932 L 409.439 295.364 L 407.448 294.08 C 405.236 293.224 404.352 291.083 404.795 287.659 L 402.805 286.375 C 401.035 285.519 399.93 283.593 399.488 280.596 C 396.392 277.172 391.968 275.032 386.217 274.175 L 366.971 273.533 L 359.008 271.607 Z M 242.187 336.457 L 229.571 362.14 L 228.241 369.203 L 228.24 374.34 L 232.884 380.118 L 231.556 383.329 L 234.874 384.613 C 237.085 385.897 237.748 388.251 236.863 391.676 L 240.844 392.96 L 242.17 398.738 C 241.728 395.314 242.614 392.96 244.826 391.676 L 246.817 391.676 L 246.819 387.181 L 251.465 383.971 L 251.466 380.118 L 256.113 374.34 L 254.126 362.14 L 242.187 336.457 Z" style="filter: none; stroke: rgb(0, 0, 0); fill: rgb(206, 214, 96);" transform="matrix(0.999992, 0.004257, -0.003984, 0.999992, 0.827296, -1.026812)"/>
  <path d="M 123.52 8.231 L 127.096 9.529 L 125.754 11.691 C 123.023 12.382 122.278 11.229 123.52 8.231 Z" style="fill: rgb(15, 19, 98); filter: none; stroke: rgb(0, 0, 0);" transform="matrix(0.999992, 0.004257, -0.003984, 0.999992, 0.041135, -0.532079)"/>
  <path d="M 359.932 9.234 C 362.167 8.513 362.911 9.234 362.166 11.395 L 359.931 12.693 L 358.591 10.531 L 359.932 9.234 Z" style="fill: rgb(15, 19, 98); filter: none; stroke: rgb(0, 0, 0);" transform="matrix(0.999992, 0.004257, -0.003984, 0.999992, 0.0462, -1.53454)"/>
  <path d="M 136.898 15.208 C 140.474 14.055 141.665 15.208 140.473 18.667 C 136.897 19.82 135.706 18.667 136.898 15.208 Z" style="fill: rgb(15, 19, 98); filter: none; stroke: rgb(0, 0, 0);" transform="matrix(0.999992, 0.004257, -0.003984, 0.999992, 0.068662, -0.590204)"/>
  <path d="M 345.154 16.094 C 348.73 14.941 349.921 16.094 348.728 19.553 C 345.153 20.706 343.962 19.553 345.154 16.094 Z" style="fill: rgb(15, 19, 98); filter: none; stroke: rgb(0, 0, 0);" transform="matrix(0.999992, 0.004257, -0.003984, 0.999992, 0.073957, -1.476687)"/>
  <path d="M 152.512 21.324 L 155.64 22.621 L 154.299 25.648 L 151.171 24.35 L 152.512 21.324 Z" style="fill: rgb(15, 19, 98); filter: none; stroke: rgb(0, 0, 0);" transform="matrix(0.999992, 0.004257, -0.003984, 0.999992, 0.094879, -0.652808)"/>
  <path d="M 331.273 22.085 L 334.401 23.382 L 333.059 26.409 L 329.932 25.111 L 331.273 22.085 Z" style="fill: rgb(15, 19, 98); filter: none; stroke: rgb(0, 0, 0);" transform="matrix(0.999992, 0.004257, -0.003984, 0.999992, 0.099426, -1.41374)"/>
  <path d="M 123.905 22.931 L 127.033 24.228 L 125.691 26.39 C 122.823 27.351 121.781 26.63 122.564 24.228 L 123.905 22.931 Z" style="fill: rgb(15, 19, 98); filter: none; stroke: rgb(0, 0, 0);" transform="matrix(0.999992, 0.004257, -0.003984, 0.999992, 0.100135, -0.530487)"/>
  <path d="M 359.87 23.936 C 362.738 22.975 363.78 23.696 362.997 26.098 L 359.869 27.395 L 358.529 25.233 L 359.87 23.936 Z" style="fill: rgb(15, 19, 98); filter: none; stroke: rgb(0, 0, 0);" transform="matrix(0.999992, 0.004257, -0.003984, 0.999992, 0.104501, -1.535994)"/>
  <path d="M 168.579 25.713 L 171.707 27.875 C 172.6 30.397 172.153 31.406 170.365 30.901 L 167.684 31.766 L 165.45 28.739 L 166.344 26.578 L 168.579 25.713 Z" style="fill: rgb(15, 19, 98); filter: none; stroke: rgb(0, 0, 0);" transform="matrix(0.999992, 0.004257, -0.003984, 0.999992, 0.115941, -0.718301)"/>
  <path d="M 316.056 26.344 L 319.184 27.208 L 320.077 30.235 C 319.63 32.108 317.991 32.829 315.161 32.396 C 313.82 31.964 313.374 30.667 313.821 28.505 L 316.056 26.344 Z" style="fill: rgb(15, 19, 98); filter: none; stroke: rgb(0, 0, 0);" transform="matrix(0.999992, 0.004257, -0.003984, 0.999992, 0.119951, -1.348562)"/>
  <path d="M 240.951 29.485 C 244.427 29.004 246.661 29.725 247.654 31.647 L 248.546 37.7 L 246.311 40.727 L 240.947 41.591 L 237.82 39.43 L 236.033 35.106 L 239.163 30.35 L 240.951 29.485 Z" style="fill: rgb(15, 19, 98); filter: none; stroke: rgb(0, 0, 0);" transform="matrix(0.999992, 0.004257, -0.003984, 0.999992, 0.143365, -1.031062)"/>
  <path d="M 186.435 30.12 C 189.117 29.543 190.755 29.976 191.35 31.417 L 192.243 34.876 C 191.647 36.893 189.71 37.614 186.433 37.038 L 184.2 33.146 L 186.435 30.12 Z" style="fill: rgb(15, 19, 98); filter: none; stroke: rgb(0, 0, 0);" transform="matrix(0.999992, 0.004257, -0.003984, 0.999992, 0.135278, -0.800925)"/>
  <path d="M 295.479 30.583 C 298.16 30.006 299.799 30.439 300.394 31.88 C 301.139 34.906 300.691 36.78 299.052 37.501 C 295.775 38.077 293.838 37.356 293.243 35.339 L 295.479 30.583 Z" style="fill: rgb(15, 19, 98); filter: none; stroke: rgb(0, 0, 0);" transform="matrix(0.999992, 0.004257, -0.003984, 0.999992, 0.138045, -1.263933)"/>
  <path d="M 206.97 34.526 C 209.95 34.237 211.588 35.246 211.886 37.552 C 212.481 40.723 211.735 42.597 209.65 43.173 C 205.776 43.749 203.542 42.74 202.947 40.146 L 205.183 35.39 L 206.97 34.526 Z" style="fill: rgb(15, 19, 98); filter: none; stroke: rgb(0, 0, 0);" transform="matrix(0.999992, 0.004257, -0.003984, 0.999992, 0.156769, -0.883009)"/>
  <path d="M 276.687 34.825 L 281.602 36.987 L 282.495 39.581 L 279.366 43.473 C 276.088 44.049 274.152 43.328 273.557 41.311 C 272.813 38.284 273.26 36.41 274.899 35.689 L 276.687 34.825 Z" style="fill: rgb(15, 19, 98); filter: none; stroke: rgb(0, 0, 0);" transform="matrix(0.999992, 0.004257, -0.003984, 0.999992, 0.158724, -1.182409)"/>
  <path d="M 122.051 37.625 L 125.179 39.787 C 125.849 41.708 125.402 42.429 123.838 41.949 L 122.05 42.813 C 120.71 42.381 120.263 41.084 120.71 38.922 L 122.051 37.625 Z" style="fill: rgb(15, 19, 98); filter: none; stroke: rgb(0, 0, 0);" transform="matrix(0.999992, 0.004257, -0.003984, 0.999992, 0.161293, -0.523286)"/>
  <path d="M 362.484 38.644 L 364.719 39.509 C 365.314 41.706 364.867 43.148 363.377 43.832 L 360.249 42.535 C 359.356 40.013 359.803 39.004 361.59 39.509 L 362.484 38.644 Z" style="fill: rgb(15, 19, 98); filter: none; stroke: rgb(0, 0, 0);" transform="matrix(0.999992, 0.004257, -0.003984, 0.999992, 0.167382, -1.542242)"/>
  <path d="M 119.304 52.313 L 122.432 53.611 L 123.325 56.205 L 122.431 58.367 L 119.302 59.231 C 117.366 58.799 116.622 57.214 117.069 54.475 L 119.304 52.313 Z" style="fill: rgb(15, 19, 98); filter: none; stroke: rgb(0, 0, 0);" transform="matrix(0.999992, 0.004257, -0.003984, 0.999992, 0.223238, -0.510906)"/>
  <path d="M 364.207 53.356 L 367.335 54.22 L 368.228 57.247 C 367.781 59.121 366.142 59.841 363.312 59.409 C 361.971 58.977 361.525 57.679 361.972 55.517 L 364.207 53.356 Z" style="fill: rgb(15, 19, 98); filter: none; stroke: rgb(0, 0, 0);" transform="matrix(0.999992, 0.004257, -0.003984, 0.999992, 0.227988, -1.553299)"/>
  <path d="M 172.834 69.808 L 175.962 71.106 L 176.855 76.293 C 175.572 81.107 173.038 84.71 169.254 87.103 C 167.068 89.025 163.493 89.601 158.528 88.833 L 157.188 86.239 L 162.997 86.239 L 170.596 80.617 L 171.491 78.023 L 171.492 76.293 L 170.599 70.673 L 172.834 69.808 Z" style="filter: none; stroke: rgb(0, 0, 0); fill: rgb(24, 146, 22);" transform="matrix(0.999992, 0.004257, -0.003984, 0.999992, 0.318119, -0.710292)"/>
  <path d="M 307.363 70.462 L 310.045 71.76 L 313.172 76.516 L 321.215 79.11 L 331.942 74.786 C 333.73 75.075 334.474 76.372 334.176 78.678 C 331.803 82.437 327.185 84.022 320.32 83.434 C 315.345 82.194 311.621 79.745 309.149 76.084 L 307.363 70.462 Z" style="filter: none; stroke: rgb(0, 0, 0); fill: rgb(18, 191, 217);" transform="matrix(0.999992, 0.004257, -0.003984, 0.999992, 0.309551, -1.364914)"/>
  <path d="M 317.653 71.321 C 320.483 70.889 322.122 71.61 322.568 73.483 L 321.673 76.51 L 318.545 77.375 C 316.608 76.942 315.864 75.357 316.312 72.618 L 317.653 71.321 Z" style="filter: none; stroke: rgb(0, 0, 0); fill: rgb(18, 191, 217);" transform="matrix(0.999992, 0.004257, -0.003984, 0.999992, 0.2987, -1.358873)"/>
  <path d="M 111.626 71.313 C 114.903 70.593 116.989 71.313 117.882 73.475 C 118.329 76.214 117.583 77.799 115.647 78.231 C 112.816 78.664 111.177 77.943 110.731 76.069 L 111.626 71.313 Z" style="fill: rgb(15, 19, 98); filter: none; stroke: rgb(0, 0, 0);" transform="matrix(0.999992, 0.004257, -0.003984, 0.999992, 0.298599, -0.486206)"/>
  <path d="M 284.909 72.124 L 290.719 72.988 L 294.294 75.582 L 321.105 85.96 L 334.063 94.174 C 335.652 95.52 336.247 97.826 335.849 101.093 C 335.401 102.39 334.061 102.822 331.827 102.39 L 326.465 96.336 C 325.124 95.904 324.677 96.337 325.124 97.634 L 321.101 102.39 L 314.843 104.12 L 306.8 101.525 L 296.97 94.607 L 289.82 93.742 L 286.69 97.634 L 288.924 100.66 C 298.908 100.513 306.207 102.963 310.82 108.011 C 313.302 110.221 314.195 113.968 313.498 119.253 L 309.475 124.873 L 301.877 125.738 L 303.219 122.279 L 306.348 120.117 L 307.242 115.793 L 305.456 111.902 L 299.648 108.443 L 285.347 107.578 L 281.324 109.308 C 279.077 111.618 277.884 115.221 277.746 120.117 C 279.115 126.285 281.497 131.474 284.892 135.683 L 282.657 136.115 C 278.93 133.092 276.101 129.201 274.17 124.441 L 273.279 112.334 L 278.197 104.12 L 281.326 101.958 L 280.434 94.174 L 285.352 88.554 L 293.397 86.825 L 299.653 88.554 L 311.27 96.336 L 314.845 97.201 L 317.975 92.445 L 296.08 79.906 L 290.718 78.177 L 284.909 73.421 L 284.909 72.124 Z" style="filter: none; stroke: rgb(0, 0, 0); fill: rgb(18, 191, 217);" transform="matrix(0.999992, 0.004257, -0.003984, 0.999992, 0.41744, -1.29582)"/>
  <path d="M 368.594 72.405 C 371.871 71.828 373.808 72.549 374.403 74.567 C 374.85 77.305 374.104 78.89 372.168 79.323 C 369.337 79.755 367.698 79.035 367.252 77.161 C 366.657 74.567 367.104 72.981 368.594 72.405 Z" style="fill: rgb(15, 19, 98); filter: none; stroke: rgb(0, 0, 0);" transform="matrix(0.999992, 0.004257, -0.003984, 0.999992, 0.305277, -1.577597)"/>
  <path d="M 163.893 76.717 C 166.276 76.428 167.617 77.149 167.914 78.879 C 168.212 81.185 167.466 82.482 165.678 82.77 C 163.295 83.058 161.955 82.337 161.657 80.608 C 161.36 78.302 162.105 77.005 163.893 76.717 Z" style="filter: none; stroke: rgb(0, 0, 0); fill: rgb(24, 146, 22);" transform="matrix(0.999992, 0.004257, -0.003984, 0.999992, 0.319129, -0.700773)"/>
  <path d="M 190.593 80.244 C 192.827 79.811 194.168 80.244 194.615 81.541 L 195.507 84.135 L 194.613 86.297 L 191.931 87.594 L 191.931 89.323 L 201.759 103.16 L 210.692 121.319 L 208.457 122.616 L 203.99 117.428 C 202.827 124.664 199.548 129.853 194.153 132.994 L 186.108 136.453 L 177.17 136.453 C 172.767 135.236 169.341 133.074 166.893 129.967 C 164.212 127.372 163.32 123.049 164.215 116.996 L 170.475 106.618 L 170.476 104.024 C 170.178 102.295 168.837 101.574 166.454 101.863 L 152.151 107.916 L 150.811 104.889 L 190.593 80.244 Z M 183.582 91.566 L 174.953 96.06 L 176.944 98.628 L 176.941 107.617 L 172.957 117.249 L 174.946 123.669 L 182.244 129.448 C 187.996 130.304 191.978 129.448 194.191 126.88 C 197.288 125.168 198.616 122.385 198.175 118.533 L 192.866 116.607 L 192.203 114.68 L 192.868 110.186 L 196.187 108.902 C 193.534 102.053 189.332 96.274 183.582 91.566 Z" style="filter: none; stroke: rgb(0, 0, 0); fill: rgb(24, 146, 22);" transform="matrix(0.999992, 0.004257, -0.003984, 0.999992, 0.432917, -0.768493)"/>
  <path d="M 107.524 89.452 C 110.802 88.875 112.739 89.596 113.334 91.614 L 114.227 93.343 L 111.098 97.235 C 107.82 97.811 105.884 97.091 105.288 95.073 L 104.395 93.343 L 107.524 89.452 Z" style="fill: rgb(15, 19, 98); filter: none; stroke: rgb(0, 0, 0);" transform="matrix(0.999992, 0.004257, -0.003984, 0.999992, 0.372847, -0.464516)"/>
  <path d="M 373.876 90.586 C 377.154 90.009 379.09 90.73 379.685 92.747 C 380.28 95.918 379.535 97.792 377.449 98.368 L 375.662 99.233 L 371.64 97.071 C 370.896 93.468 371.642 91.306 373.876 90.586 Z" style="fill: rgb(15, 19, 98); filter: none; stroke: rgb(0, 0, 0);" transform="matrix(0.999992, 0.004257, -0.003984, 0.999992, 0.380962, -1.598121)"/>
  <path d="M 87.745 114.442 L 93.555 116.172 C 94.597 117.54 94.894 119.99 94.447 123.521 C 93.477 126.044 90.945 127.053 86.848 126.548 L 82.827 123.521 C 82.381 119.99 82.679 117.54 83.723 116.172 L 87.745 114.442 Z" style="fill: rgb(15, 19, 98); filter: none; stroke: rgb(0, 0, 0);" transform="matrix(0.999992, 0.004257, -0.003984, 0.999992, 0.481108, -0.376283)"/>
  <path d="M 395.213 115.749 C 398.52 116.009 400.755 117.306 401.916 119.641 C 402.535 123.412 401.79 125.862 399.679 126.991 L 394.317 127.856 L 390.295 124.829 L 389.402 122.235 L 391.191 117.479 L 395.213 115.749 Z" style="fill: rgb(15, 19, 98); filter: none; stroke: rgb(0, 0, 0);" transform="matrix(0.999992, 0.004257, -0.003984, 0.999992, 0.488669, -1.683632)"/>
  <path d="M 233.976 144.497 L 250.065 144.497 L 265.259 147.956 C 275.435 151.946 283.924 157.567 290.728 164.818 C 296.452 171.097 300.919 178.592 304.129 187.302 L 306.807 198.544 L 306.802 216.703 C 305.269 218.392 304.673 220.986 305.013 224.486 L 299.646 237.457 C 295.974 243.995 291.355 249.616 285.788 254.32 L 267.908 265.562 L 256.287 269.021 L 242.88 269.885 L 241.986 270.75 L 241.093 269.885 L 227.686 269.021 L 216.067 265.562 C 207.029 261.624 199.433 256.292 193.28 249.564 C 186.221 242.27 181.159 233.046 178.092 221.892 L 177.199 217.568 L 177.205 198.544 C 180.141 181.779 187.146 168.952 198.22 160.063 L 212.523 150.55 L 224.144 146.226 L 233.976 144.497 Z M 232.945 147.688 C 219.672 150.256 209.052 155.179 201.086 162.456 C 197.546 164.168 195.333 166.95 194.447 170.803 L 191.792 172.087 C 186.481 178.936 182.718 187.497 180.503 197.77 L 180.498 216.39 L 182.487 224.737 C 185.139 232.87 189.119 239.719 194.427 245.284 C 200.177 252.56 207.696 258.125 216.987 261.978 L 227.604 265.83 L 240.877 267.114 L 242.868 267.114 L 262.778 263.904 C 270.3 261.336 276.717 257.483 282.027 252.346 C 289.993 246.354 295.968 238.435 299.952 228.59 L 303.274 215.748 L 303.276 208.043 L 303.94 207.401 L 303.279 197.77 L 298.638 183.002 L 288.687 168.234 L 278.734 159.245 L 264.136 151.54 L 250.864 147.688 L 232.945 147.688 Z" style="filter: none; stroke: rgb(0, 0, 0); fill: rgb(98, 29, 71);" transform="matrix(0.999992, 0.004257, -0.003984, 0.999992, 0.829315, -1.028382)"/>
  <path d="M 73.311 147.24 L 78.226 150.266 C 78.821 153.437 78.076 155.311 75.99 155.887 C 72.713 156.464 70.777 155.743 70.181 153.726 L 69.288 151.131 L 71.523 148.104 L 73.311 147.24 Z" style="fill: rgb(15, 19, 98); filter: none; stroke: rgb(0, 0, 0);" transform="matrix(0.999992, 0.004257, -0.003984, 0.999992, 0.604905, -0.313099)"/>
  <path d="M 409.381 148.672 L 414.297 150.834 L 415.189 153.428 L 412.061 157.32 L 406.251 156.455 L 405.358 153.428 L 407.146 149.536 L 409.381 148.672 Z" style="fill: rgb(15, 19, 98); filter: none; stroke: rgb(0, 0, 0);" transform="matrix(0.999992, 0.004257, -0.003984, 0.999992, 0.613081, -1.745129)"/>
  <path d="M 242.245 148.821 L 247.161 150.982 L 245.82 153.144 L 238.669 153.144 L 237.328 151.847 C 236.525 149.205 237.866 148.484 241.351 149.685 L 242.245 148.821 Z" style="fill: rgb(15, 19, 98); filter: none; stroke: rgb(0, 0, 0);" transform="matrix(0.999992, 0.004257, -0.003984, 0.999992, 0.603633, -1.02941)"/>
  <path d="M 228.831 150.492 C 231.562 149.8 232.307 150.953 231.065 153.951 L 225.702 154.816 C 224.461 151.818 225.207 150.665 227.937 151.357 L 228.831 150.492 Z" style="fill: rgb(15, 19, 98); filter: none; stroke: rgb(0, 0, 0);" transform="matrix(0.999992, 0.004257, -0.003984, 0.999992, 0.609789, -0.970876)"/>
  <path d="M 253.857 150.608 L 258.773 152.77 L 257.431 154.932 L 252.516 152.77 L 253.857 150.608 Z" style="fill: rgb(15, 19, 98); filter: none; stroke: rgb(0, 0, 0);" transform="matrix(0.999992, 0.004257, -0.003984, 0.999992, 0.61087, -1.086915)"/>
  <path d="M 265.46 154.116 L 270.375 157.143 C 269.332 159.593 268.289 160.025 267.247 158.44 L 264.119 157.143 L 265.46 154.116 Z" style="fill: rgb(15, 19, 98); filter: none; stroke: rgb(0, 0, 0);" transform="matrix(0.999992, 0.004257, -0.003984, 0.999992, 0.626806, -1.136271)"/>
  <path d="M 216.3 154.768 C 219.518 153.687 220.859 154.12 220.322 156.065 L 215.405 159.092 L 214.065 155.633 L 216.3 154.768 Z" style="fill: rgb(15, 19, 98); filter: none; stroke: rgb(0, 0, 0);" transform="matrix(0.999992, 0.004257, -0.003984, 0.999992, 0.625966, -0.923452)"/>
  <path d="M 207.337 159.912 L 209.571 161.209 L 206.442 165.1 C 203.711 165.792 202.966 164.639 204.208 161.641 L 207.337 159.912 Z" style="fill: rgb(15, 19, 98); filter: none; stroke: rgb(0, 0, 0);" transform="matrix(0.999992, 0.004257, -0.003984, 0.999992, 0.649634, -0.878055)"/>
  <path d="M 275.266 160.211 C 278.246 159.923 279.884 160.932 280.181 163.238 L 278.84 165.4 L 273.925 162.373 L 275.266 160.211 Z" style="fill: rgb(15, 19, 98); filter: none; stroke: rgb(0, 0, 0);" transform="matrix(0.999992, 0.004257, -0.003984, 0.999992, 0.650942, -1.177961)"/>
  <path d="M 58.058 161.88 C 60.889 161.448 62.527 162.168 62.974 164.042 C 64.09 167.155 63.643 168.452 61.632 167.933 L 58.056 168.798 C 56.12 168.366 55.375 166.78 55.823 164.042 L 58.058 161.88 Z" style="fill: rgb(15, 19, 98); filter: none; stroke: rgb(0, 0, 0);" transform="matrix(0.999992, 0.004257, -0.003984, 0.999992, 0.659047, -0.252445)"/>
  <path d="M 422.728 163.434 C 426.005 162.858 427.942 163.578 428.537 165.596 L 426.301 170.353 L 424.513 171.217 L 421.386 169.055 C 420.642 166.029 421.089 164.155 422.728 163.434 Z" style="fill: rgb(15, 19, 98); filter: none; stroke: rgb(0, 0, 0);" transform="matrix(0.999992, 0.004257, -0.003984, 0.999992, 0.669916, -1.806789)"/>
  <path d="M 268.064 167.037 L 271.192 169.199 L 272.085 170.929 L 266.72 179.144 C 263.033 182.085 257.521 183.526 250.184 183.467 C 245.105 182.616 241.382 180.454 239.013 176.982 C 238.566 175.685 239.013 175.253 240.354 175.685 C 243.041 178.561 247.212 180.002 252.866 180.009 C 257.261 179.36 260.389 177.487 262.252 174.388 L 265.83 167.902 L 268.064 167.037 Z" style="filter: none; fill: rgb(75, 13, 98); stroke: rgb(0, 0, 0);" transform="matrix(0.999992, 0.004257, -0.003984, 0.999992, 0.70045, -1.085961)"/>
  <path d="M 198.364 167.657 L 200.599 168.954 C 200.896 171.837 199.853 173.422 197.469 173.711 L 195.235 172.413 C 194.938 169.531 195.981 167.945 198.364 167.657 Z" style="fill: rgb(15, 19, 98); filter: none; stroke: rgb(0, 0, 0);" transform="matrix(0.999992, 0.004257, -0.003984, 0.999992, 0.681758, -0.841033)"/>
  <path d="M 283.725 168.034 C 286.505 167.602 288.293 168.61 289.086 171.061 L 287.745 173.223 C 285.361 173.511 284.021 172.79 283.724 171.061 L 283.725 168.034 Z" style="fill: rgb(15, 19, 98); filter: none; stroke: rgb(0, 0, 0);" transform="matrix(0.999992, 0.004257, -0.003984, 0.999992, 0.682216, -1.217703)"/>
  <path d="M 251.985 168.755 L 256.007 170.916 C 256.602 173.51 256.155 175.096 254.665 175.672 L 251.089 176.537 C 249.302 176.249 248.557 174.952 248.856 172.646 L 251.985 168.755 Z" style="fill-rule: nonzero; filter: none; fill: rgb(75, 13, 98); stroke: rgb(0, 0, 0);" transform="matrix(0.999992, 0.004257, -0.003984, 0.999992, 0.690038, -1.073475)"/>
  <path d="M 44.59 176.521 C 46.825 176.089 48.166 176.521 48.612 177.818 C 49.058 180.556 48.313 182.141 46.376 182.574 C 43.993 182.862 42.652 182.142 42.354 180.412 C 42.057 178.106 42.803 176.809 44.59 176.521 Z" style="fill: rgb(15, 19, 98); filter: none; stroke: rgb(0, 0, 0);" transform="matrix(0.999992, 0.004257, -0.003984, 0.999992, 0.715583, -0.192218)"/>
  <path d="M 191.173 177.14 L 193.407 178.437 L 191.618 183.193 C 188.713 184.231 187.819 182.934 188.938 179.302 L 191.173 177.14 Z" style="fill: rgb(15, 19, 98); filter: none; stroke: rgb(0, 0, 0);" transform="matrix(0.999992, 0.004257, -0.003984, 0.999992, 0.720171, -0.811248)"/>
  <path d="M 291.279 177.573 L 294.407 178.87 L 295.3 182.329 L 293.065 183.626 L 289.938 178.87 L 291.279 177.573 Z" style="fill: rgb(15, 19, 98); filter: none; stroke: rgb(0, 0, 0);" transform="matrix(0.999992, 0.004257, -0.003984, 0.999992, 0.722068, -1.24407)"/>
  <path d="M 436.969 178.194 C 439.204 177.762 440.545 178.194 440.991 179.491 L 441.885 181.221 L 440.99 183.383 L 436.968 184.247 C 435.478 183.671 435.032 182.086 435.628 179.491 L 436.969 178.194 Z" style="fill: rgb(15, 19, 98); filter: none; stroke: rgb(0, 0, 0);" transform="matrix(0.999992, 0.004257, -0.003984, 0.999992, 0.725457, -1.865591)"/>
  <path d="M 227.683 181.616 C 235.002 180.876 239.918 182.461 242.429 186.372 L 246.003 192.425 L 246.001 197.614 L 244.212 203.235 C 248.681 203.667 251.958 205.541 254.042 208.856 L 257.615 216.638 C 256.721 219.809 257.018 221.827 258.508 222.692 C 257.018 223.556 256.719 225.574 257.612 228.745 L 254.929 234.798 L 247.329 243.013 L 242.86 245.607 L 231.24 247.337 C 224.021 245.962 218.51 242.935 214.707 238.257 L 207.112 228.312 L 200.856 227.448 L 199.514 230.474 L 202.642 231.771 L 204.877 230.906 L 202.641 234.366 L 199.066 235.23 L 195.044 232.204 C 194.264 227.412 195.308 224.385 198.175 223.124 L 205.326 222.259 L 212.922 227.88 L 222.304 238.69 C 225.538 240.749 230.305 241.325 236.605 240.419 C 241.042 239.811 244.17 237.937 245.991 234.798 L 249.568 227.015 L 249.57 219.233 L 246.891 213.611 L 241.975 211.017 L 233.931 211.017 L 229.909 211.882 L 229.91 209.72 L 237.062 201.073 L 237.958 195.019 L 233.937 190.264 C 229.17 189.399 226.34 190.408 225.445 193.29 L 224.549 200.208 C 225.89 200.928 226.187 202.658 225.442 205.397 L 220.524 211.882 C 216.7 211.834 214.168 210.537 212.927 207.991 L 212.034 206.262 L 212.037 196.749 C 213.166 191.499 215.7 187.607 219.637 185.075 L 227.683 181.616 Z" style="fill-rule: nonzero; filter: none; fill: rgb(75, 13, 98); stroke: rgb(0, 0, 0);" transform="matrix(0.999992, 0.004257, -0.003984, 0.999992, 0.856138, -0.962974)"/>
  <path d="M 275.119 183.522 C 281.111 182.625 285.133 183.634 287.185 186.549 L 290.758 195.196 L 288.968 203.844 L 284.05 210.33 C 282.135 212.225 279.156 213.09 275.111 212.924 L 269.303 209.033 L 268.411 202.115 L 273.775 198.223 L 271.985 204.709 C 272.58 207.303 274.815 208.312 278.688 207.736 L 283.605 203.844 C 285.493 201.922 286.089 198.752 285.395 194.332 L 282.268 190.441 L 276.906 189.576 L 257.238 200.817 C 254.312 202.475 250.587 203.051 246.065 202.547 C 245.395 201.01 245.842 200.433 247.406 200.817 C 254.338 199.453 259.553 196.426 263.05 191.738 L 266.18 187.846 L 275.119 183.522 Z" style="filter: none; fill: rgb(75, 13, 98); stroke: rgb(0, 0, 0);" transform="matrix(0.999992, 0.004257, -0.003984, 0.999992, 0.791491, -1.140235)"/>
  <path d="M 347.483 183.901 C 350.313 184.045 352.249 185.054 353.292 186.927 L 351.056 189.954 C 344.353 188.657 340.331 189.954 338.989 193.846 C 335.564 196.586 334.073 201.198 334.516 207.681 C 335.882 213.852 339.009 218.32 343.897 221.085 C 346.082 223.007 349.657 223.583 354.622 222.814 L 359.539 219.788 C 361.447 218.462 362.043 215.868 361.329 212.005 L 359.543 205.519 L 361.778 205.519 L 370.714 211.573 L 375.183 211.573 C 377.716 211.14 378.759 209.267 378.313 205.952 L 373.399 198.602 L 368.929 200.331 L 364.46 200.331 C 361.854 199.394 360.812 196.944 361.334 192.981 L 363.569 189.954 C 364.96 188.417 367.344 187.84 370.721 188.224 C 375.562 189.594 379.285 192.044 381.891 195.575 C 384.907 198.133 385.8 202.745 384.569 209.411 L 379.651 215.896 L 371.606 219.355 L 368.925 218.49 C 367.389 222.483 365.005 225.654 361.772 228.003 C 358.792 230.309 354.025 230.885 347.47 229.733 C 341.776 228.325 337.456 225.586 334.512 221.517 L 330.045 212.87 L 329.154 204.222 L 330.943 197.305 L 335.414 190.819 L 338.096 189.522 C 337.65 188.224 338.096 187.792 339.437 188.224 L 347.483 183.901 Z" style="filter: none; stroke: rgb(0, 0, 0); fill: rgb(25, 31, 161);" transform="matrix(0.999992, 0.004257, -0.003984, 0.999992, 0.828224, -1.518448)"/>
  <path d="M 32.928 186.844 L 35.163 187.709 C 35.758 189.907 35.311 191.348 33.821 192.032 L 30.693 190.735 C 29.8 188.213 30.247 187.204 32.034 187.709 L 32.928 186.844 Z" style="fill: rgb(15, 19, 98); filter: none; stroke: rgb(0, 0, 0);" transform="matrix(0.999992, 0.004257, -0.003984, 0.999992, 0.755083, -0.138151)"/>
  <path d="M 186.66 187.498 L 188.894 190.524 L 186.658 193.551 C 184.175 194.308 183.431 193.299 184.425 190.524 L 186.66 187.498 Z" style="fill: rgb(15, 19, 98); filter: none; stroke: rgb(0, 0, 0);" transform="matrix(0.999992, 0.004257, -0.003984, 0.999992, 0.761199, -0.792035)"/>
  <path d="M 296.597 187.971 L 299.725 190.133 C 300.966 193.506 300.221 194.803 297.49 194.025 L 295.256 189.269 L 296.597 187.971 Z" style="fill: rgb(15, 19, 98); filter: none; stroke: rgb(0, 0, 0);" transform="matrix(0.999992, 0.004257, -0.003984, 0.999992, 0.76398, -1.265956)"/>
  <path d="M 451.228 188.624 L 453.462 189.489 C 453.908 191.699 453.163 193.14 451.226 193.813 L 448.992 192.516 C 448.099 189.994 448.546 188.985 450.333 189.489 L 451.228 188.624 Z" style="fill: rgb(15, 19, 98); filter: none; stroke: rgb(0, 0, 0);" transform="matrix(0.999992, 0.004257, -0.003984, 0.999992, 0.765722, -1.918449)"/>
  <path d="M 82.027 192.259 C 86.288 192.749 89.118 194.623 90.517 197.88 C 92.701 200.378 93.296 204.414 92.301 209.987 L 87.384 216.472 L 86.937 214.31 C 89.222 212.485 90.117 209.314 89.621 204.798 L 84.707 199.177 L 79.792 196.151 C 78.899 193.629 79.346 192.62 81.133 193.124 L 82.027 192.259 Z" style="filter: none; fill: rgb(167, 147, 32); stroke: rgb(0, 0, 0);" transform="matrix(0.999992, 0.004257, -0.003984, 0.999992, 0.815012, -0.364587)"/>
  <path d="M 19.482 196.3 L 21.716 197.597 L 20.375 200.624 C 17.892 201.381 17.147 200.372 18.141 197.597 L 19.482 196.3 Z" style="fill: rgb(15, 19, 98); filter: none; stroke: rgb(0, 0, 0);" transform="matrix(0.999992, 0.004257, -0.003984, 0.999992, 0.791412, -0.082238)"/>
  <path d="M 393.941 197.897 L 395.281 198.329 L 391.705 204.382 L 391.702 212.165 L 397.51 218.651 L 401.531 220.812 C 401.978 222.975 401.531 224.272 400.19 224.704 L 397.509 224.704 L 391.7 220.812 C 388.234 218.114 387.043 213.213 388.128 206.112 L 391.706 198.762 L 393.941 197.897 Z" style="filter: none; stroke: rgb(0, 0, 0); fill: rgb(25, 31, 161);" transform="matrix(0.999992, 0.004257, -0.003984, 0.999992, 0.84526, -1.678424)"/>
  <path d="M 463.702 198.192 L 465.936 199.489 L 464.595 202.516 L 462.36 201.219 L 463.702 198.192 Z" style="fill: rgb(15, 19, 98); filter: none; stroke: rgb(0, 0, 0);" transform="matrix(0.999992, 0.004257, -0.003984, 0.999992, 0.802233, -1.974057)"/>
  <path d="M 299.231 199.223 L 301.465 200.52 C 302.805 204.748 301.91 206.333 298.782 205.276 L 297.89 200.52 L 299.231 199.223 Z" style="fill: rgb(15, 19, 98); filter: none; stroke: rgb(0, 0, 0);" transform="matrix(0.999992, 0.004257, -0.003984, 0.999992, 0.809026, -1.275214)"/>
  <path d="M 182.587 199.595 L 186.161 200.892 L 183.926 205.648 C 182.138 204.711 181.692 202.694 182.587 199.595 Z" style="fill: rgb(15, 19, 98); filter: none; stroke: rgb(0, 0, 0);" transform="matrix(0.999992, 0.004257, -0.003984, 0.999992, 0.808894, -0.782159)"/>
  <path d="M 84.7 202.632 L 87.828 204.794 L 86.487 207.821 L 84.699 208.685 C 82.911 208.397 82.167 207.1 82.465 204.794 L 84.7 202.632 Z" style="filter: none; fill: rgb(167, 147, 32); stroke: rgb(0, 0, 0);" transform="matrix(0.999992, 0.004257, -0.003984, 0.999992, 0.820156, -0.360565)"/>
  <path d="M 6.041 204.892 C 8.275 204.172 9.02 204.892 8.275 207.054 L 6.04 208.351 L 4.7 206.189 L 6.041 204.892 Z" style="fill: rgb(15, 19, 98); filter: none; stroke: rgb(0, 0, 0);" transform="matrix(0.999992, 0.004257, -0.003984, 0.999992, 0.82279, -0.026458)"/>
  <path d="M 394.839 206.55 C 397.074 206.118 398.415 206.55 398.861 207.847 L 399.754 209.577 L 395.731 212.604 L 393.497 211.739 L 392.604 209.577 L 394.839 206.55 Z" style="filter: none; stroke: rgb(0, 0, 0); fill: rgb(25, 31, 161);" transform="matrix(0.999992, 0.004257, -0.003984, 0.999992, 0.838082, -1.684653)"/>
  <path d="M 475.733 206.897 L 479.308 208.194 L 475.732 210.355 L 475.733 206.897 Z" style="fill: rgb(15, 19, 98); filter: none; stroke: rgb(0, 0, 0);" transform="matrix(0.999992, 0.004257, -0.003984, 0.999992, 0.835305, -2.030908)"/>
  <path d="M 183.879 210.837 L 186.114 212.134 C 186.709 214.729 186.261 216.314 184.772 216.891 L 182.537 215.593 C 181.942 212.999 182.39 211.414 183.879 210.837 Z" style="fill: rgb(15, 19, 98); filter: none; stroke: rgb(0, 0, 0);" transform="matrix(0.999992, 0.004257, -0.003984, 0.999992, 0.853691, -0.782811)"/>
  <path d="M 299.181 211.329 C 301.912 210.551 302.656 211.848 301.414 215.22 C 300.221 217.814 299.029 218.102 297.838 216.085 C 297.243 213.491 297.691 211.905 299.181 211.329 Z" style="fill: rgb(15, 19, 98); filter: none; stroke: rgb(0, 0, 0);" transform="matrix(0.999992, 0.004257, -0.003984, 0.999992, 0.856245, -1.274309)"/>
  <path d="M 19.416 211.867 L 21.65 212.731 L 20.309 216.191 L 18.075 214.893 L 19.416 211.867 Z" style="fill: rgb(15, 19, 98); filter: none; stroke: rgb(0, 0, 0);" transform="matrix(0.999992, 0.004257, -0.003984, 0.999992, 0.852954, -0.082733)"/>
  <path d="M 462.294 214.623 C 465.393 213.422 466.584 214.142 465.869 216.784 L 462.293 218.082 L 462.294 214.623 Z" style="fill: rgb(15, 19, 98); filter: none; stroke: rgb(0, 0, 0);" transform="matrix(0.999992, 0.004257, -0.003984, 0.999992, 0.864856, -1.974066)"/>
  <path d="M 31.889 221.434 L 35.017 222.731 L 33.675 225.757 L 30.547 224.46 L 31.889 221.434 Z" style="fill: rgb(15, 19, 98); filter: none; stroke: rgb(0, 0, 0);" transform="matrix(0.999992, 0.004257, -0.003984, 0.999992, 0.891181, -0.137647)"/>
  <path d="M 185.172 222.091 L 188.747 224.253 C 189.863 227.885 188.968 229.182 186.064 228.145 L 185.172 222.091 Z" style="fill: rgb(15, 19, 98); filter: none; stroke: rgb(0, 0, 0);" transform="matrix(0.999992, 0.004257, -0.003984, 0.999992, 0.899245, -0.794915)"/>
  <path d="M 296.005 222.559 C 298.91 221.521 299.803 222.819 298.685 226.451 L 297.79 228.612 L 295.109 227.315 L 296.005 222.559 Z" style="fill: rgb(15, 19, 98); filter: none; stroke: rgb(0, 0, 0);" transform="matrix(0.999992, 0.004257, -0.003984, 0.999992, 0.900661, -1.262892)"/>
  <path d="M 450.188 223.214 L 453.316 224.512 L 452.421 227.538 L 448.847 226.241 L 450.188 223.214 Z" style="fill: rgb(15, 19, 98); filter: none; stroke: rgb(0, 0, 0);" transform="matrix(0.999992, 0.004257, -0.003984, 0.999992, 0.901821, -1.918224)"/>
  <path d="M 43.018 230.999 C 45.759 230.279 47.547 230.711 48.381 232.296 L 47.486 236.188 L 45.251 237.053 L 42.123 233.161 L 43.018 230.999 Z" style="fill: rgb(15, 19, 98); filter: none; stroke: rgb(0, 0, 0);" transform="matrix(0.999992, 0.004257, -0.003984, 0.999992, 0.932174, -0.190641)"/>
  <path d="M 436.739 232.673 C 439.569 232.241 441.208 232.961 441.654 234.835 L 439.418 237.862 C 437.184 238.294 435.844 237.862 435.397 236.565 C 434.951 234.403 435.398 233.105 436.739 232.673 Z" style="fill: rgb(15, 19, 98); filter: none; stroke: rgb(0, 0, 0);" transform="matrix(0.999992, 0.004257, -0.003984, 0.999992, 0.941206, -1.864336)"/>
  <path d="M 190.938 232.489 L 194.066 234.651 C 195.306 238.024 194.56 239.321 191.83 238.543 C 189.893 238.11 189.149 236.525 189.597 233.786 L 190.938 232.489 Z" style="fill: rgb(15, 19, 98); filter: none; stroke: rgb(0, 0, 0);" transform="matrix(0.999992, 0.004257, -0.003984, 0.999992, 0.940463, -0.815544)"/>
  <path d="M 291.937 232.913 L 294.171 234.21 L 291.935 238.967 C 289.453 239.723 288.708 238.714 289.702 235.94 L 291.937 232.913 Z" style="fill: rgb(15, 19, 98); filter: none; stroke: rgb(0, 0, 0);" transform="matrix(0.999992, 0.004257, -0.003984, 0.999992, 0.943045, -1.239787)"/>
  <path d="M 285.642 242.397 L 287.876 243.694 L 284.746 247.586 C 282.512 248.306 281.767 247.586 282.513 245.424 L 285.642 242.397 Z" style="fill: rgb(15, 19, 98); filter: none; stroke: rgb(0, 0, 0);" transform="matrix(0.999992, 0.004257, -0.003984, 0.999992, 0.979108, -1.211322)"/>
  <path d="M 196.705 242.898 C 199.486 242.465 201.274 243.474 202.068 245.924 L 200.726 248.086 L 196.705 245.059 L 196.705 242.898 Z" style="fill: rgb(15, 19, 98); filter: none; stroke: rgb(0, 0, 0);" transform="matrix(0.999992, 0.004257, -0.003984, 0.999992, 0.979644, -0.846653)"/>
  <path d="M 58.602 244.03 C 60.985 243.742 62.326 244.462 62.623 246.192 C 63.219 248.786 62.771 250.372 61.282 250.948 C 58.004 251.524 56.067 250.804 55.472 248.786 L 56.367 244.895 L 58.602 244.03 Z" style="fill: rgb(15, 19, 98); filter: none; stroke: rgb(0, 0, 0);" transform="matrix(0.999992, 0.004257, -0.003984, 0.999992, 0.986867, -0.249792)"/>
  <path d="M 423.273 245.584 C 426.252 245.296 427.891 246.304 428.188 248.61 C 428.485 250.916 427.74 252.213 425.952 252.502 C 422.675 253.078 420.738 252.358 420.143 250.34 C 419.846 247.458 420.889 245.872 423.273 245.584 Z" style="fill: rgb(15, 19, 98); filter: none; stroke: rgb(0, 0, 0);" transform="matrix(0.999992, 0.004257, -0.003984, 0.999992, 0.996179, -1.803478)"/>
  <path d="M 205.611 250.718 C 208.392 250.286 210.179 251.295 210.973 253.745 C 211.494 255.474 210.451 255.907 207.844 255.042 C 205.908 254.369 205.164 252.928 205.611 250.718 Z" style="fill: rgb(15, 19, 98); filter: none; stroke: rgb(0, 0, 0);" transform="matrix(0.999992, 0.004257, -0.003984, 0.999992, 1.010019, -0.884507)"/>
  <path d="M 275.776 251.006 C 278.383 250.141 279.426 250.573 278.904 252.303 C 278.605 254.609 276.966 255.618 273.987 255.329 C 272.349 254.609 272.2 253.888 273.541 253.168 C 273.094 251.871 273.541 251.438 274.882 251.871 L 275.776 251.006 Z" style="fill: rgb(15, 19, 98); filter: none; stroke: rgb(0, 0, 0);" transform="matrix(0.999992, 0.004257, -0.003984, 0.999992, 1.010303, -1.172011)"/>
  <path d="M 215.418 256.815 C 218.696 256.094 220.781 256.815 221.674 258.977 L 220.333 261.138 L 215.418 258.977 L 215.418 256.815 Z" style="fill: rgb(15, 19, 98); filter: none; stroke: rgb(0, 0, 0);" transform="matrix(0.999992, 0.004257, -0.003984, 0.999992, 1.03319, -0.928097)"/>
  <path d="M 264.131 257.013 C 267.885 255.933 269.226 256.797 268.152 259.608 L 263.236 261.337 L 261.896 259.175 L 264.131 257.013 Z" style="fill: rgb(15, 19, 98); filter: none; stroke: rgb(0, 0, 0);" transform="matrix(0.999992, 0.004257, -0.003984, 0.999992, 1.034019, -1.126703)"/>
  <path d="M 71.95 257.062 C 75.005 256.702 76.941 257.423 77.759 259.224 C 78.504 262.251 78.056 264.124 76.417 264.845 L 71.948 265.71 L 68.821 260.954 L 71.95 257.062 Z" style="fill: rgb(15, 19, 98); filter: none; stroke: rgb(0, 0, 0);" transform="matrix(0.999992, 0.004257, -0.003984, 0.999992, 1.041921, -0.310501)"/>
  <path d="M 408.02 258.494 C 411.297 257.917 413.234 258.638 413.829 260.656 C 414.573 264.259 413.828 266.421 411.593 267.141 C 408.539 267.502 406.602 266.781 405.783 264.979 C 405.04 261.377 405.785 259.215 408.02 258.494 Z" style="fill: rgb(15, 19, 98); filter: none; stroke: rgb(0, 0, 0);" transform="matrix(0.999992, 0.004257, -0.003984, 0.999992, 1.050451, -1.742208)"/>
  <path d="M 228.363 260.324 L 233.279 262.486 L 231.938 264.647 L 227.022 262.486 L 228.363 260.324 Z" style="fill: rgb(15, 19, 98); filter: none; stroke: rgb(0, 0, 0);" transform="matrix(0.999992, 0.004257, -0.003984, 0.999992, 1.047809, -0.977463)"/>
  <path d="M 252.496 260.427 C 255.178 259.85 256.817 260.283 257.412 261.724 C 257.859 263.021 257.412 263.453 256.071 263.021 L 252.495 264.751 L 251.155 261.724 L 252.496 260.427 Z" style="fill: rgb(15, 19, 98); filter: none; stroke: rgb(0, 0, 0);" transform="matrix(0.999992, 0.004257, -0.003984, 0.999992, 1.047934, -1.080548)"/>
  <path d="M 239.977 262.102 L 244.892 262.102 L 244.892 264.264 C 244.445 265.562 243.104 265.994 240.87 265.561 L 238.636 264.697 L 239.977 262.102 Z" style="fill: rgb(15, 19, 98); filter: none; stroke: rgb(0, 0, 0);" transform="matrix(0.999992, 0.004257, -0.003984, 0.999992, 1.053594, -1.026887)"/>
  <path d="M 284.488 280.524 C 285.829 280.092 286.276 280.524 285.829 281.821 L 277.781 293.063 L 276.885 301.711 L 281.799 309.061 C 285.121 311.612 289.887 312.765 296.099 312.52 L 302.804 307.764 L 303.699 303.44 L 301.019 298.684 L 304.147 298.684 L 310.403 303.008 L 315.765 303.873 L 319.789 300.846 L 320.683 297.387 L 318.897 292.631 L 306.385 286.145 C 305.79 283.551 306.237 281.966 307.727 281.389 L 313.984 280.524 L 322.473 287.01 L 325.153 292.198 L 325.15 304.305 L 321.127 309.061 C 319.041 310.503 315.763 310.791 311.295 309.926 L 309.954 311.223 C 309.446 315.345 307.508 318.083 304.141 319.438 L 300.119 321.6 C 299.224 324.122 299.671 325.131 301.459 324.627 L 324.701 311.655 L 331.852 308.196 L 334.981 308.196 L 331.851 312.52 L 304.138 330.68 L 295.199 335.004 L 289.389 335.004 L 288.496 331.112 C 289.859 328.971 292.243 327.818 295.648 327.653 L 293.861 323.33 L 290.734 320.303 C 284.08 319.534 279.165 317.084 275.988 312.952 L 271.521 304.305 L 271.523 298.252 L 275.101 289.604 L 278.678 284.848 L 284.488 280.524 Z" style="filter: none; stroke: rgb(0, 0, 0); fill: rgb(255, 17, 0);" transform="matrix(0.999992, 0.004257, -0.003984, 0.999992, 1.228515, -1.288249)"/>
  <path d="M 179.012 282.588 L 180.352 285.614 L 178.563 289.938 L 180.797 290.371 L 181.692 289.506 L 193.311 289.506 C 197.333 290.803 200.461 292.965 202.694 295.991 L 205.374 302.909 L 205.372 308.963 C 204.286 313.101 202.05 316.128 198.666 318.042 C 195.984 320.637 191.514 321.502 185.258 320.637 C 177.626 319.374 172.264 315.915 169.172 310.26 L 166.043 314.151 L 166.043 316.313 L 193.747 329.284 L 194.64 333.175 L 193.746 335.337 L 189.723 335.337 L 169.168 324.961 L 155.763 317.178 L 151.742 313.286 L 153.084 310.26 L 159.787 311.989 L 174.989 286.479 L 179.012 282.588 Z M 181.4 293.17 L 179.408 297.023 L 176.089 298.307 L 174.098 300.875 C 174.097 304.728 174.981 307.51 176.75 309.222 L 187.367 314.359 C 190.906 314.787 193.561 314.359 195.331 313.075 L 199.315 307.296 L 197.989 300.875 C 195.336 295.738 189.806 293.17 181.4 293.17 Z" style="filter: none; stroke: rgb(0, 0, 0); fill: rgb(194, 68, 0);" transform="matrix(0.999992, 0.004257, -0.003984, 0.999992, 1.232557, -0.757453)"/>
  <path d="M 85.227 286.525 C 89.398 285.66 91.931 286.381 92.824 288.687 L 93.716 294.74 C 92.822 297.622 89.991 298.631 85.224 297.767 C 82.245 296.902 81.203 294.164 82.098 289.551 L 85.227 286.525 Z" style="fill: rgb(15, 19, 98); filter: none; stroke: rgb(0, 0, 0);" transform="matrix(0.999992, 0.004257, -0.003984, 0.999992, 1.164673, -0.371058)"/>
  <path d="M 392.695 287.833 C 396.866 286.968 399.398 287.688 400.292 289.995 L 401.184 296.047 C 400.289 298.93 397.459 299.939 392.692 299.074 L 388.671 293.453 L 392.695 287.833 Z" style="fill: rgb(15, 19, 98); filter: none; stroke: rgb(0, 0, 0);" transform="matrix(0.999992, 0.004257, -0.003984, 0.999992, 1.172487, -1.678613)"/>
  <path d="M 106.558 316.014 C 109.836 315.438 111.773 316.158 112.368 318.176 L 113.261 320.77 L 111.473 323.797 L 107.45 324.662 L 104.322 322.5 L 103.429 319.905 L 106.558 316.014 Z" style="fill: rgb(15, 19, 98); filter: none; stroke: rgb(0, 0, 0);" transform="matrix(0.999992, 0.004257, -0.003984, 0.999992, 1.276904, -0.458479)"/>
  <g>
    <path d="M 372.91 317.148 C 375.964 316.788 377.901 317.508 378.72 319.31 C 379.316 323.057 378.273 325.219 375.593 325.795 L 370.676 323.634 C 369.931 320.03 370.676 317.868 372.91 317.148 Z" style="fill: rgb(15, 19, 98); filter: none; stroke: rgb(0, 0, 0);" transform="matrix(0.999991, 0.004257, -0.004257, 0.999991, 1.371706, -1.591927)"/>
  </g>
  <path d="M 319.229 325.548 C 322.705 325.068 324.939 325.788 325.932 327.71 C 325.187 329.295 324.442 329.439 323.698 328.142 C 319.245 328.447 316.117 330.032 314.312 332.899 L 314.758 334.196 C 315.354 332.466 317.142 331.889 320.121 332.466 L 321.461 335.493 C 321.014 337.366 319.375 338.087 316.545 337.655 L 313.864 334.196 L 312.522 339.817 L 312.521 341.546 L 312.521 342.843 L 308.052 342.843 L 307.16 336.358 L 312.972 328.142 L 319.229 325.548 Z" style="filter: none; stroke: rgb(0, 0, 0); fill: rgb(255, 17, 0);" transform="matrix(0.999992, 0.004257, -0.003984, 0.999992, 1.333978, -1.344618)"/>
  <path d="M 156.557 328.353 C 164.048 327.447 168.964 329.032 171.304 333.109 L 173.09 338.297 L 170.409 336.568 L 167.282 332.676 L 160.131 331.812 L 155.661 335.27 L 153.427 335.27 L 152.535 331.379 L 156.557 328.353 Z" style="filter: none; stroke: rgb(0, 0, 0); fill: rgb(194, 68, 0);" transform="matrix(0.999992, 0.004257, -0.003984, 0.999992, 1.329002, -0.690223)"/>
  <path d="M 162.803 332.68 C 165.187 332.392 166.527 333.113 166.824 334.842 L 165.93 337.869 L 162.801 338.734 L 160.568 334.842 L 162.803 332.68 Z" style="filter: none; stroke: rgb(0, 0, 0); fill: rgb(194, 68, 0);" transform="matrix(0.999992, 0.004257, -0.003984, 0.999992, 1.33887, -0.693963)"/>
  <path d="M 112.736 335.06 L 116.757 337.221 C 117.352 339.816 116.905 341.401 115.415 341.978 L 111.839 342.843 C 109.903 342.41 109.159 340.825 109.606 338.086 L 110.501 335.924 L 112.736 335.06 Z" style="fill: rgb(15, 19, 98); filter: none; stroke: rgb(0, 0, 0);" transform="matrix(0.999992, 0.004257, -0.003984, 0.999992, 1.351492, -0.479182)"/>
  <g>
    <path d="M 369.256 336.151 L 373.278 339.177 L 372.384 343.069 L 369.256 343.934 L 366.128 341.772 C 365.531 339.178 365.979 337.592 367.469 337.016 L 369.256 336.151 Z" style="fill: rgb(15, 19, 98); filter: none; stroke: rgb(0, 0, 0);" transform="matrix(0.999991, 0.004257, -0.004257, 0.999991, 1.450908, -1.570198)"/>
  </g>
  <path d="M 118.019 354.973 C 120.402 354.685 121.742 355.405 122.04 357.135 L 120.698 360.162 C 118.017 360.738 116.379 360.306 115.783 358.864 C 115.485 356.558 116.231 355.261 118.019 354.973 Z" style="fill: rgb(15, 19, 98); filter: none; stroke: rgb(0, 0, 0);" transform="matrix(0.999992, 0.004257, -0.003984, 0.999992, 1.426083, -0.503004)"/>
  <path d="M 362.919 356.016 C 365.303 355.727 366.643 356.448 366.941 358.178 L 365.599 361.204 L 363.811 362.069 L 360.683 359.907 C 360.386 357.601 361.131 356.304 362.919 356.016 Z" style="fill: rgb(15, 19, 98); filter: none; stroke: rgb(0, 0, 0);" transform="matrix(0.999992, 0.004257, -0.003984, 0.999992, 1.433544, -1.545471)"/>
  <path d="M 204.645 370.909 L 209.56 371.774 L 210.452 377.395 C 209.633 379.197 207.696 379.917 204.642 379.557 L 201.515 374.801 L 204.645 370.909 Z" style="fill: rgb(15, 19, 98); filter: none; stroke: rgb(0, 0, 0);" transform="matrix(0.999992, 0.004257, -0.003984, 0.999992, 1.497019, -0.873633)"/>
  <path d="M 275.255 371.21 C 278.085 370.778 279.724 371.498 280.17 373.372 L 281.063 375.967 L 277.934 379.858 C 274.88 380.218 272.944 379.497 272.125 377.696 L 273.02 372.075 L 275.255 371.21 Z" style="fill: rgb(15, 19, 98); filter: none; stroke: rgb(0, 0, 0);" transform="matrix(0.999992, 0.004257, -0.003984, 0.999992, 1.498575, -1.174202)"/>
  <path d="M 119.292 371.415 C 121.564 370.838 123.053 371.271 123.76 372.712 L 122.419 375.739 L 119.291 374.442 L 119.292 371.415 Z" style="fill: rgb(15, 19, 98); filter: none; stroke: rgb(0, 0, 0);" transform="matrix(0.999992, 0.004257, -0.003984, 0.999992, 1.489033, -0.514133)"/>
  <path d="M 360.171 372.434 L 363.299 373.731 L 361.958 376.758 L 358.83 375.461 L 360.171 372.434 Z" style="fill: rgb(15, 19, 98); filter: none; stroke: rgb(0, 0, 0);" transform="matrix(0.999992, 0.004257, -0.003984, 0.999992, 1.495616, -1.533778)"/>
  <path d="M 239.489 372.788 C 242.965 372.308 245.199 373.029 246.192 374.95 L 247.084 381.003 L 246.19 383.165 L 240.38 384.895 L 235.464 381.868 C 234.422 377.401 235.168 374.662 237.701 373.653 L 239.489 372.788 Z" style="fill: rgb(15, 19, 98); filter: none; stroke: rgb(0, 0, 0);" transform="matrix(0.999992, 0.004257, -0.003984, 0.999992, 1.511228, -1.022857)"/>
  <path d="M 185.852 376.881 L 189.874 377.746 L 190.766 381.637 C 190.17 383.655 188.233 384.375 184.956 383.799 C 183.169 383.511 182.424 382.214 182.723 379.908 L 183.617 377.746 L 185.852 376.881 Z" style="fill: rgb(15, 19, 98); filter: none; stroke: rgb(0, 0, 0);" transform="matrix(0.999992, 0.004257, -0.003984, 0.999992, 1.517408, -0.791558)"/>
  <path d="M 294.003 377.345 C 296.833 376.913 298.472 377.633 298.918 379.507 L 299.811 381.236 L 298.917 383.398 L 294.001 384.263 C 292.213 383.975 291.469 382.678 291.767 380.372 L 294.003 377.345 Z" style="fill: rgb(15, 19, 98); filter: none; stroke: rgb(0, 0, 0);" transform="matrix(0.999992, 0.004257, -0.003984, 0.999992, 1.519556, -1.25573)"/>
  <path d="M 166.169 381.986 C 168.776 381.121 169.819 381.553 169.297 383.283 L 170.19 385.877 C 169.892 387.607 168.551 388.327 166.167 388.039 C 164.38 387.751 163.635 386.454 163.934 384.148 L 166.169 381.986 Z" style="fill: rgb(15, 19, 98); filter: none; stroke: rgb(0, 0, 0);" transform="matrix(0.999992, 0.004257, -0.003984, 0.999992, 1.534737, -0.707737)"/>
  <path d="M 314.539 382.617 L 317.667 383.914 L 318.561 385.643 L 316.325 388.669 C 313.942 388.958 312.601 388.237 312.304 386.508 C 311.411 383.986 311.858 382.977 313.645 383.481 L 314.539 382.617 Z" style="fill: rgb(15, 19, 98); filter: none; stroke: rgb(0, 0, 0);" transform="matrix(0.999992, 0.004257, -0.003984, 0.999992, 1.539367, -1.338491)"/>
  <path d="M 122.354 386.986 C 124.837 386.23 125.581 387.239 124.588 390.013 L 122.353 391.31 L 121.013 388.284 L 122.354 386.986 Z" style="fill: rgb(15, 19, 98); filter: none; stroke: rgb(0, 0, 0);" transform="matrix(0.999992, 0.004257, -0.003984, 0.999992, 1.551096, -0.520334)"/>
  <path d="M 358.317 387.993 L 361.445 389.29 C 362.115 391.212 361.667 391.932 360.104 391.452 C 359.06 393.037 358.018 392.605 356.975 390.154 L 358.317 387.993 Z" style="fill: rgb(15, 19, 98); filter: none; stroke: rgb(0, 0, 0);" transform="matrix(0.999992, 0.004257, -0.003984, 0.999992, 1.557733, -1.526393)"/>
  <path d="M 150.949 387.974 L 154.077 389.271 C 154.375 391.577 153.63 392.874 151.842 393.162 L 149.607 392.297 C 149.012 390.1 149.459 388.659 150.949 387.974 Z" style="fill: rgb(15, 19, 98); filter: none; stroke: rgb(0, 0, 0);" transform="matrix(0.999992, 0.004257, -0.003984, 0.999992, 1.557482, -0.642631)"/>
  <path d="M 329.71 388.735 L 332.838 389.6 C 333.285 391.81 332.539 393.251 330.603 393.923 L 328.368 393.059 C 327.773 390.861 328.22 389.42 329.71 388.735 Z" style="fill: rgb(15, 19, 98); filter: none; stroke: rgb(0, 0, 0);" transform="matrix(0.999992, 0.004257, -0.003984, 0.999992, 1.562029, -1.403695)"/>
  <path d="M 135.281 394.83 C 138.619 393.569 139.81 394.577 138.856 397.856 L 136.621 399.154 C 135.132 398.469 134.685 397.027 135.281 394.83 Z" style="fill: rgb(15, 19, 98); filter: none; stroke: rgb(0, 0, 0);" transform="matrix(0.999992, 0.004257, -0.003984, 0.999992, 1.581907, -0.580232)"/>
  <path d="M 344.877 395.716 L 347.111 397.013 L 345.769 400.04 L 343.535 398.742 L 344.877 395.716 Z" style="fill: rgb(15, 19, 98); filter: none; stroke: rgb(0, 0, 0);" transform="matrix(0.999992, 0.004257, -0.003984, 0.999992, 1.588248, -1.466573)"/>
  <path d="M 123.185 401.691 L 125.42 402.988 C 126.134 405.63 124.942 406.351 121.843 405.15 L 123.185 401.691 Z" style="fill: rgb(15, 19, 98); filter: none; stroke: rgb(0, 0, 0);" transform="matrix(0.999992, 0.004257, -0.003984, 0.999992, 1.609576, -0.523268)"/>
  <path d="M 358.255 402.691 L 360.489 403.988 C 361.204 406.631 360.012 407.351 356.913 406.15 L 358.255 402.691 Z" style="fill: rgb(15, 19, 98); filter: none; stroke: rgb(0, 0, 0);" transform="matrix(0.999992, 0.004257, -0.003984, 0.999992, 1.615553, -1.52389)"/>
  <g style="filter: none;" transform="matrix(1, 0, 0, 1, 1.884678, 2.188034)">
    <path d="M 100.781 182.054 L 103.909 182.054 L 103.909 193.727 L 106.143 194.16 C 108.726 192.046 112.897 191.47 118.657 192.43 L 122.679 195.457 L 123.572 201.51 L 122.679 202.375 L 122.679 210.158 L 124.467 213.184 L 130.276 215.779 L 134.745 215.779 C 141.26 212.857 146.473 208.677 150.387 203.24 L 154.41 195.889 C 156.048 196.61 156.197 197.33 154.857 198.051 C 153.764 204.2 151.679 209.389 148.6 213.617 L 143.683 218.373 L 133.851 222.696 L 126.701 222.696 C 120.756 221.53 116.436 218.792 113.741 214.482 L 111.953 211.022 C 112.475 207.095 112.177 204.357 111.06 202.807 C 107.783 202.087 105.697 202.807 104.802 204.969 L 103.91 209.293 L 104.803 210.158 L 104.803 227.453 L 102.568 233.074 L 100.334 231.777 L 98.546 226.588 L 97.653 194.592 L 96.758 192.863 L 96.759 191.133 C 96.782 186.833 98.124 183.806 100.781 182.054 Z" style="filter: none; paint-order: fill; stroke-linecap: round; stroke-miterlimit: 13; fill: rgb(167, 147, 32); stroke: rgb(0, 0, 0);" transform="matrix(0.999991, 0.004257, -0.004257, 0.999991, 0.884743, -0.535606)"/>
  </g>
</svg>