<?xml version="1.0" encoding="utf-8"?>
<svg viewBox="0 0 500 500" xmlns="http://www.w3.org/2000/svg">
  <path d="M 247.005 62.135 C 248.57 61.655 249.017 62.376 248.347 64.297 C 252.97 72.795 258.63 80.29 265.329 86.781 L 267.117 92.834 L 267.116 101.482 L 265.329 107.535 L 251.028 132.612 L 248.347 144.719 L 248.347 155.096 L 248.347 156.826 L 248.347 187.957 L 249.687 189.254 C 252.816 190.263 253.859 189.254 252.816 186.227 L 250.134 174.121 L 250.134 154.231 L 252.816 140.395 L 257.285 128.288 C 260.412 121.513 264.731 115.892 270.245 111.426 L 280.971 105.373 L 296.165 100.184 L 335.493 90.672 C 345.066 86.674 353.111 81.197 359.626 74.242 L 360.073 76.403 L 357.391 85.916 C 358.186 89.855 357.888 92.738 356.498 94.563 L 357.392 95.428 L 357.391 104.076 L 359.179 110.993 L 369.011 142.125 L 371.692 156.826 L 371.693 165.473 L 369.012 175.85 L 364.542 184.497 C 359.75 191.679 353.941 197.877 347.113 203.09 L 333.705 211.737 L 310.914 221.682 L 313.148 224.709 L 343.538 206.549 L 353.37 202.225 L 362.754 193.145 L 374.374 174.121 L 381.078 165.905 C 384.902 161.533 391.158 159.516 399.847 159.852 L 406.105 161.581 L 427.109 162.446 C 422.094 169.535 418.22 178.039 415.489 187.957 L 407.892 196.171 L 396.272 200.495 L 371.245 200.495 L 357.839 203.09 L 314.489 227.735 L 315.382 230.761 L 335.494 216.926 L 352.476 209.143 L 369.457 204.819 L 387.334 204.819 L 391.803 205.684 L 400.741 210.008 L 417.277 222.114 L 418.617 224.709 L 422.64 227.735 L 423.98 229.897 C 425.321 229.464 425.767 229.897 425.321 231.194 L 449.901 254.11 L 457.945 258.434 L 470.459 261.892 L 471.799 263.189 C 472.296 264.703 471.551 265.136 469.565 264.487 L 451.689 271.405 C 442.708 277.417 434.812 284.479 428.002 292.591 L 415.042 305.995 L 396.272 318.966 L 389.121 321.56 L 378.396 322.425 L 377.502 321.56 L 363.201 320.696 L 345.325 314.642 L 333.706 308.589 L 315.382 295.618 L 314.489 297.779 L 315.382 299.941 L 357.839 323.29 L 366.776 325.02 L 373.033 325.02 L 373.926 325.884 L 398.06 325.884 C 405.125 327.408 410.339 330.723 413.701 335.829 C 416.13 338.668 417.619 342.415 418.17 347.07 L 427.109 363.933 L 414.148 363.933 L 407.892 365.662 L 395.378 366.527 C 386.402 365.123 379.996 361.231 376.161 354.853 L 366.33 337.558 L 356.945 326.749 L 313.148 301.671 C 311.211 302.344 310.466 303.785 310.913 305.995 C 330.564 311.325 346.355 320.693 358.285 334.099 L 369.011 350.529 L 371.692 360.907 L 371.692 367.824 L 370.798 368.689 L 370.798 375.608 L 369.011 384.255 L 357.391 423.169 L 357.391 441.328 L 360.073 452.57 L 352.475 446.085 L 337.281 436.572 L 284.546 422.736 C 275.731 419.735 268.729 414.978 263.541 408.468 L 254.603 392.038 L 251.028 379.066 C 251.922 375.895 251.623 373.878 250.134 373.013 L 250.134 352.259 L 252.815 337.126 C 250.544 336.549 249.054 336.982 248.347 338.423 L 249.24 369.554 L 248.347 370.419 L 248.347 381.66 C 249.837 382.525 250.134 384.543 249.24 387.714 L 253.71 399.82 L 265.329 418.845 L 267.116 424.898 L 267.116 434.41 L 264.435 440.464 C 257.653 447.45 251.843 455.376 247.005 464.244 L 227.789 437.004 C 226.299 433.834 226.001 429.51 226.895 424.033 L 231.364 413.656 L 242.984 393.767 L 245.665 384.255 L 245.665 379.931 L 244.771 379.066 L 244.771 342.747 L 245.665 338.423 C 244.957 336.982 243.468 336.549 241.195 337.126 L 242.984 346.206 L 242.984 353.124 L 243.878 353.989 L 243.878 372.148 L 241.196 385.984 L 235.833 399.82 C 232.742 406.342 228.422 411.675 222.873 415.818 L 209.466 422.736 L 199.634 426.195 L 196.059 426.195 L 156.73 436.572 C 147.77 440.586 140.321 446.062 134.385 453.002 L 133.939 449.111 L 136.62 441.328 L 136.62 422.304 L 124.106 380.796 L 123.212 370.419 L 122.319 369.554 L 122.32 360.042 L 124.106 352.259 L 128.576 343.612 C 133.281 336.058 139.091 329.572 146.006 324.155 C 156.264 315.79 168.629 309.737 183.098 305.995 C 183.545 303.785 182.8 302.344 180.864 301.671 L 143.323 322.425 L 133.938 329.775 C 128.129 336.261 123.362 343.756 119.637 352.259 L 112.934 360.474 L 103.102 365.662 L 95.058 366.527 L 81.651 363.933 L 66.903 363.933 L 74.947 348.8 L 78.523 338.423 L 83.439 331.937 L 95.952 325.884 L 120.085 325.884 L 120.978 325.02 L 131.704 324.155 C 140.403 321.328 148 317.437 154.497 312.48 L 153.155 312.048 L 146.899 315.507 L 131.704 320.696 L 114.722 322.425 L 113.828 321.56 L 101.315 320.696 L 86.119 312.048 L 56.177 283.944 C 56.624 282.647 56.177 282.214 54.836 282.646 L 40.535 270.54 L 21.319 263.189 L 37.854 257.569 L 45.004 253.245 L 70.478 229.464 L 78.076 221.25 C 84.134 215.004 91.582 210.104 100.421 206.549 C 106.976 204.243 115.318 203.666 125.447 204.819 C 138.052 207.325 149.076 211.361 158.519 216.926 L 178.629 230.761 L 179.523 227.735 L 141.536 205.684 L 133.492 202.225 L 122.766 201.36 L 121.872 200.495 L 97.74 200.495 L 93.271 199.631 C 87.709 197.805 83.388 194.779 80.31 190.551 L 66.904 162.446 L 101.315 159.852 C 107.055 161.505 111.673 164.243 115.169 168.067 L 130.364 192.28 L 139.748 201.36 L 155.838 210.008 L 154.943 208.278 C 146.429 203.833 139.427 197.923 133.939 190.551 L 125 176.715 L 122.319 164.608 L 122.32 156.826 L 123.213 155.961 L 125.001 141.26 L 136.62 103.211 L 136.62 86.781 L 133.939 74.674 L 136.173 75.971 L 154.05 88.943 L 166.563 93.266 L 188.015 97.59 L 208.572 103.644 C 217.187 106.55 224.189 111.018 229.576 117.047 C 240.122 129.905 244.889 148.353 243.877 172.391 L 242.984 173.256 L 242.984 180.173 L 241.196 189.254 C 243.468 189.83 244.957 189.398 245.665 187.957 C 246.41 185.218 246.112 183.488 244.771 182.768 L 244.771 159.42 L 244.771 157.69 L 245.665 155.096 L 245.665 141.26 L 239.408 124.83 L 228.683 107.535 C 226.598 103.787 226.001 98.599 226.894 91.969 L 228.683 86.781 L 247.005 62.135 Z M 247.223 71.418 L 246.559 76.555 L 241.914 78.481 L 241.249 84.26 L 237.932 86.186 L 237.932 90.039 L 233.286 96.459 L 233.286 102.238 L 234.613 108.659 L 247.223 133.058 L 259.168 108.659 L 261.159 101.596 L 261.16 96.459 L 256.514 90.039 C 257.399 87.042 256.956 85.758 255.187 86.186 C 252.09 85.758 250.983 83.404 251.868 79.123 L 248.55 77.839 C 246.78 76.983 246.338 74.843 247.223 71.418 Z M 141.702 86.186 L 141.702 90.039 L 141.038 111.869 L 133.738 149.752 L 133.738 170.94 C 135.508 178.217 138.605 184.424 143.029 189.561 C 150.108 198.122 158.956 205.184 169.575 210.749 L 170.902 208.823 L 174.885 206.255 L 174.221 204.328 L 174.884 201.118 C 176.211 197.265 179.751 195.981 185.503 197.265 L 188.157 201.118 C 189.485 203.258 190.591 203.686 191.476 202.402 C 194.572 201.546 196.342 201.76 196.785 203.044 C 198.555 202.616 198.997 203.258 198.112 204.97 L 218.685 194.055 L 218.022 188.276 L 221.34 185.066 L 218.686 181.856 L 220.013 174.793 L 224.658 172.224 C 228.64 171.368 231.073 172.224 231.959 174.793 C 233.286 172.224 235.498 171.368 238.595 172.224 L 235.941 147.183 C 234.171 140.335 231.074 134.342 226.65 129.205 C 222.225 123.213 216.252 118.504 208.731 115.08 L 184.175 105.448 L 164.929 99.028 L 149.002 91.323 L 141.702 86.186 Z M 351.416 86.186 L 345.443 91.323 L 332.834 97.744 L 293.679 111.227 L 276.423 120.216 C 268.902 125.353 263.372 132.416 259.832 141.405 L 256.514 154.888 L 255.186 172.224 C 258.283 171.368 260.274 172.224 261.159 174.793 C 262.929 172.224 266.026 171.368 270.45 172.224 L 275.096 177.361 C 275.539 181.214 274.654 183.568 272.442 184.424 L 275.76 188.918 L 275.096 194.055 L 285.715 198.55 L 293.678 204.97 C 295.891 205.398 296.554 204.756 295.67 203.044 C 297.44 202.188 300.315 201.974 304.297 202.402 L 305.624 199.834 C 306.509 196.837 309.606 195.981 314.915 197.265 L 319.561 202.402 L 318.898 206.255 L 322.215 207.539 L 324.87 210.749 L 338.807 201.118 C 349.426 194.269 356.505 184.21 360.044 170.94 L 360.044 149.752 L 359.38 149.11 L 358.053 137.552 L 356.726 132.416 L 355.398 122.785 L 352.744 111.869 L 352.744 104.806 L 352.08 104.164 L 352.08 90.039 L 352.744 89.397 C 353.628 86.828 353.186 85.758 351.416 86.186 Z M 75.336 167.088 L 76 168.372 L 77.327 168.372 L 75.336 167.088 Z M 84.628 167.088 L 81.973 169.656 L 78.654 168.372 L 77.327 169.014 L 79.982 172.224 L 79.318 174.793 L 81.972 176.077 L 84.627 179.929 L 83.964 182.498 L 85.954 183.782 C 88.167 185.066 89.273 186.992 89.273 189.561 L 99.228 195.339 L 122.456 197.265 L 129.092 198.55 L 131.083 198.55 L 115.155 176.719 C 112.058 172.867 108.077 169.87 103.21 167.73 L 101.218 168.372 C 97.236 169.228 94.803 168.8 93.919 167.088 L 91.264 168.372 C 87.724 169.228 85.512 168.8 84.628 167.088 Z M 399.863 167.088 L 397.873 168.372 C 394.775 169.228 392.784 169.014 391.899 167.73 L 385.263 170.298 L 378.626 176.719 L 364.689 196.623 L 363.362 198.55 L 371.326 197.265 L 389.908 195.981 L 397.209 194.697 L 403.182 190.845 C 404.509 190.417 404.951 189.133 404.509 186.992 L 409.818 183.14 L 409.154 181.214 L 409.818 178.645 L 414.463 174.793 L 413.799 171.582 L 415.791 168.372 L 414.464 169.656 C 411.367 169.656 409.818 168.8 409.818 167.088 L 407.164 168.372 C 403.624 169.228 401.191 168.8 399.863 167.088 Z M 417.782 167.088 L 417.119 168.372 L 419.109 167.088 L 417.782 167.088 Z M 239.923 194.697 L 226.649 197.265 L 219.349 199.834 L 200.767 210.749 C 187.937 221.022 179.751 235.576 176.212 254.41 L 176.212 272.389 L 178.866 283.946 C 181.963 292.935 186.387 300.64 192.139 307.061 C 197.449 313.481 203.863 318.832 211.386 323.113 L 225.322 329.533 L 237.931 332.102 L 256.514 332.102 C 257.399 330.818 259.39 330.389 262.487 330.818 L 281.069 324.397 L 292.351 316.692 C 306.066 306.419 314.694 291.437 318.234 271.746 L 318.233 255.695 L 316.243 246.063 C 313.146 234.934 308.058 225.731 300.979 218.454 C 293.9 210.321 285.051 204.114 274.432 199.834 L 260.496 195.339 L 239.923 194.697 Z M 158.293 210.749 L 160.948 213.317 L 162.275 213.317 L 158.293 210.749 Z M 118.473 212.675 L 106.528 215.244 L 99.228 218.454 L 85.29 228.085 L 52.108 255.052 L 34.853 263.399 C 41.933 265.54 48.348 268.75 54.099 273.031 L 95.91 305.777 C 101.661 309.629 108.518 312.197 116.483 313.481 L 134.402 312.839 C 144.135 310.271 152.984 306.847 160.948 302.566 C 159.62 300.854 159.178 298.286 159.62 294.861 L 156.965 293.577 L 153.647 289.083 L 154.311 284.588 C 156.081 281.164 159.399 279.879 164.266 280.736 L 164.93 276.883 C 165.371 275.171 166.92 274.529 169.575 274.957 L 170.902 273.673 L 170.903 253.768 L 171.566 253.126 L 164.93 250.558 L 164.266 245.421 L 156.965 244.779 L 153.647 240.927 L 154.311 234.506 L 159.621 231.938 L 158.957 228.727 L 160.948 224.875 C 153.868 220.166 145.683 216.742 136.392 214.602 L 126.437 212.675 L 118.473 212.675 Z M 367.344 212.675 L 348.762 217.17 L 333.498 224.875 L 334.161 226.801 L 333.497 230.011 C 333.056 231.724 333.719 232.366 335.489 231.938 L 340.134 237.074 L 338.807 243.495 C 337.038 245.635 333.94 246.277 329.515 245.421 L 328.853 249.274 C 327.967 251.414 325.976 252.484 322.879 252.484 L 323.543 253.768 L 323.543 271.746 L 322.216 272.389 L 327.525 275.599 L 329.516 278.809 L 329.516 280.736 L 335.488 280.736 L 340.134 286.514 L 338.807 292.293 L 333.498 294.861 L 334.161 296.787 L 333.498 302.566 L 350.752 310.271 L 364.689 313.481 L 381.944 312.839 L 396.544 307.061 L 412.472 295.503 L 440.346 273.031 C 445.655 268.75 452.07 265.54 459.592 263.399 L 448.973 259.547 L 435.7 250.558 C 423.313 238.572 409.597 227.871 394.554 218.454 C 387.917 214.174 378.847 212.247 367.344 212.675 Z M 164.93 214.602 L 165.593 215.886 L 180.857 224.875 L 182.848 221.664 L 164.93 214.602 Z M 177.539 295.503 L 162.275 307.061 L 160.947 308.345 L 179.53 298.714 L 177.539 295.503 Z M 159.62 308.345 L 157.629 309.629 L 156.965 310.913 L 160.948 308.987 L 159.62 308.345 Z M 168.248 316.692 L 154.311 325.681 C 144.577 332.958 137.72 343.017 133.737 355.859 L 133.737 377.047 L 141.701 421.992 C 143.028 429.269 142.807 435.048 141.038 439.329 L 140.375 440.613 L 157.629 430.34 L 204.749 413.003 L 217.358 406.583 C 224.88 401.018 230.41 393.955 233.95 385.394 L 237.932 371.268 L 238.595 354.574 C 235.498 355.002 233.286 354.146 231.958 352.006 L 227.976 354.574 L 222.004 353.29 C 218.906 352.006 217.801 349.01 218.685 344.301 L 221.34 341.733 L 218.022 338.522 C 217.137 335.526 217.358 333.814 218.685 333.386 L 200.766 322.471 L 195.457 325.039 L 191.476 324.397 C 189.706 323.541 189.042 323.969 189.484 325.681 L 182.848 330.175 L 178.202 329.533 L 174.884 326.323 L 174.221 323.113 L 174.885 319.902 L 172.894 319.902 L 168.248 316.692 Z M 323.543 316.692 L 323.543 317.976 L 320.889 319.26 L 319.561 320.544 L 318.898 326.323 L 312.261 330.175 L 306.951 328.249 L 304.96 324.397 L 301.642 325.039 L 298.987 325.039 L 294.342 321.828 C 289.033 326.537 282.617 329.961 275.096 332.102 L 275.76 334.67 C 275.76 338.522 274.653 340.877 272.442 341.733 L 275.096 345.585 L 274.432 351.364 L 270.45 354.574 C 266.026 355.431 263.371 354.574 262.486 352.006 C 260.716 351.578 260.274 352.006 261.159 353.29 L 255.186 354.574 L 255.187 364.206 L 256.514 365.49 L 256.514 371.91 C 257.841 373.623 258.505 376.191 258.505 379.615 C 260.274 387.748 263.814 394.169 269.123 398.878 L 270.45 401.446 C 276.202 406.583 283.06 410.863 291.024 414.288 L 336.152 430.34 L 348.762 437.402 L 352.744 440.613 L 352.08 436.118 L 352.743 413.645 L 360.043 377.047 L 360.044 356.501 L 359.381 352.006 C 357.168 345.585 354.071 340.235 350.089 335.954 L 336.153 323.113 L 325.534 316.692 L 323.543 316.692 Z M 129.092 327.607 L 121.128 329.533 L 103.209 330.175 L 95.909 332.102 L 91.264 334.67 C 89.494 335.526 88.609 337.452 88.609 340.449 L 83.964 343.659 L 84.628 345.585 L 81.973 350.08 L 79.318 350.08 L 79.318 355.859 L 77.327 357.143 L 77.327 357.785 L 79.982 357.143 C 82.637 356.715 84.185 357.571 84.627 359.711 L 88.609 357.143 L 93.254 359.711 C 95.025 357.571 98.564 356.929 103.873 357.785 L 109.182 355.216 L 131.083 328.249 L 129.092 327.607 Z M 364.026 327.607 L 364.69 330.818 L 378.626 349.438 L 389.244 357.785 C 394.111 356.929 397.651 357.143 399.863 358.427 C 400.748 360.139 401.633 359.925 402.517 357.785 C 406.5 356.929 408.933 357.571 409.818 359.711 C 410.703 357.571 412.694 356.501 415.791 356.501 L 413.8 353.932 L 414.463 351.364 L 412.472 350.08 C 410.26 349.224 409.375 347.083 409.817 343.659 L 407.827 342.375 C 406.057 341.519 404.951 339.593 404.508 336.596 C 401.412 333.172 396.987 331.032 391.236 330.175 L 371.989 329.533 L 364.026 327.607 Z M 247.223 392.457 L 234.614 418.14 L 233.285 425.203 L 233.286 430.34 L 237.931 436.118 L 236.604 439.329 L 239.923 440.613 C 242.134 441.897 242.798 444.251 241.914 447.676 L 245.895 448.96 L 247.223 454.738 C 246.78 451.314 247.665 448.96 249.877 447.676 L 251.868 447.676 L 251.868 443.181 L 256.514 439.971 L 256.513 436.118 L 261.159 430.34 L 259.169 418.14 L 247.223 392.457 Z" style="filter: none; stroke: rgb(0, 0, 0); fill: rgb(206, 214, 96);" transform="matrix(0.999991, 0.004257, -0.004257, 0.999991, 1.122326, -1.047535)"/>
  <path d="M 128.52 64.231 L 132.096 65.529 L 130.755 67.691 C 128.024 68.382 127.278 67.229 128.52 64.231 Z" style="fill: rgb(15, 19, 98); filter: none; stroke: rgb(0, 0, 0);" transform="matrix(0.999991, 0.004257, -0.004257, 0.999991, 0.282387, -0.552884)"/>
  <path d="M 364.932 65.234 C 367.167 64.513 367.911 65.234 367.166 67.395 L 364.932 68.693 L 363.591 66.531 L 364.932 65.234 Z" style="fill: rgb(15, 19, 98); filter: none; stroke: rgb(0, 0, 0);" transform="matrix(0.999991, 0.004257, -0.004257, 0.999991, 0.2878, -1.555406)"/>
  <path d="M 141.898 71.208 C 145.473 70.055 146.665 71.208 145.474 74.667 C 141.898 75.82 140.707 74.667 141.898 71.208 Z" style="fill: rgb(15, 19, 98); filter: none; stroke: rgb(0, 0, 0);" transform="matrix(0.999991, 0.004257, -0.004257, 0.999991, 0.311797, -0.61101)"/>
  <path d="M 350.154 72.094 C 353.729 70.941 354.921 72.094 353.729 75.553 C 350.154 76.706 348.963 75.553 350.154 72.094 Z" style="fill: rgb(15, 19, 98); filter: none; stroke: rgb(0, 0, 0);" transform="matrix(0.999991, 0.004257, -0.004257, 0.999991, 0.317456, -1.497547)"/>
  <path d="M 157.511 77.324 L 160.64 78.621 L 159.3 81.648 L 156.171 80.35 L 157.511 77.324 Z" style="fill: rgb(15, 19, 98); filter: none; stroke: rgb(0, 0, 0);" transform="matrix(0.999991, 0.004257, -0.004257, 0.999991, 0.339807, -0.673612)"/>
  <path d="M 336.273 78.085 L 339.401 79.382 L 338.06 82.409 L 334.932 81.111 L 336.273 78.085 Z" style="fill: rgb(15, 19, 98); filter: none; stroke: rgb(0, 0, 0);" transform="matrix(0.999991, 0.004257, -0.004257, 0.999991, 0.344667, -1.434591)"/>
  <path d="M 128.905 78.931 L 132.033 80.228 L 130.691 82.39 C 127.824 83.351 126.782 82.63 127.564 80.228 L 128.905 78.931 Z" style="fill: rgb(15, 19, 98); filter: none; stroke: rgb(0, 0, 0);" transform="matrix(0.999991, 0.004257, -0.004257, 0.999991, 0.345423, -0.551284)"/>
  <path d="M 364.87 79.936 C 367.738 78.975 368.78 79.696 367.997 82.098 L 364.87 83.395 L 363.529 81.233 L 364.87 79.936 Z" style="fill: rgb(15, 19, 98); filter: none; stroke: rgb(0, 0, 0);" transform="matrix(0.999991, 0.004257, -0.004257, 0.999991, 0.350089, -1.556851)"/>
  <path d="M 173.578 81.713 L 176.707 83.875 C 177.601 86.397 177.154 87.406 175.366 86.901 L 172.685 87.766 L 170.45 84.739 L 171.344 82.578 L 173.578 81.713 Z" style="fill: rgb(15, 19, 98); filter: none; stroke: rgb(0, 0, 0);" transform="matrix(0.999991, 0.004257, -0.004257, 0.999991, 0.362311, -0.739107)"/>
  <path d="M 321.055 82.344 L 324.184 83.208 L 325.077 86.235 C 324.631 88.108 322.992 88.829 320.162 88.396 C 318.821 87.964 318.375 86.667 318.821 84.505 L 321.055 82.344 Z" style="fill: rgb(15, 19, 98); filter: none; stroke: rgb(0, 0, 0);" transform="matrix(0.999991, 0.004257, -0.004257, 0.999991, 0.366596, -1.369407)"/>
  <path d="M 245.949 85.485 C 249.425 85.004 251.66 85.725 252.653 87.647 L 253.547 93.7 L 251.313 96.727 L 245.949 97.591 L 242.821 95.43 L 241.033 91.106 L 244.162 86.35 L 245.949 85.485 Z" style="fill: rgb(15, 19, 98); filter: none; stroke: rgb(0, 0, 0);" transform="matrix(0.999991, 0.004257, -0.004257, 0.999991, 0.391611, -1.051885)"/>
  <path d="M 191.434 86.12 C 194.116 85.543 195.754 85.976 196.35 87.417 L 197.243 90.876 C 196.648 92.893 194.711 93.614 191.434 93.038 L 189.2 89.146 L 191.434 86.12 Z" style="fill: rgb(15, 19, 98); filter: none; stroke: rgb(0, 0, 0);" transform="matrix(0.999991, 0.004257, -0.004257, 0.999991, 0.382971, -0.821732)"/>
  <path d="M 300.478 86.583 C 303.159 86.006 304.798 86.439 305.394 87.88 C 306.139 90.906 305.692 92.78 304.053 93.501 C 300.776 94.077 298.839 93.356 298.244 91.339 L 300.478 86.583 Z" style="fill: rgb(15, 19, 98); filter: none; stroke: rgb(0, 0, 0);" transform="matrix(0.999991, 0.004257, -0.004257, 0.999991, 0.385927, -1.284771)"/>
  <path d="M 211.969 90.526 C 214.949 90.237 216.587 91.246 216.886 93.552 C 217.482 96.723 216.736 98.597 214.651 99.173 C 210.777 99.749 208.543 98.74 207.947 96.146 L 210.182 91.39 L 211.969 90.526 Z" style="fill: rgb(15, 19, 98); filter: none; stroke: rgb(0, 0, 0);" transform="matrix(0.999991, 0.004257, -0.004257, 0.999991, 0.405931, -0.90382)"/>
  <path d="M 281.686 90.825 L 286.602 92.987 L 287.495 95.581 L 284.367 99.473 C 281.089 100.049 279.153 99.328 278.558 97.311 C 277.813 94.284 278.259 92.41 279.898 91.689 L 281.686 90.825 Z" style="fill: rgb(15, 19, 98); filter: none; stroke: rgb(0, 0, 0);" transform="matrix(0.999991, 0.004257, -0.004257, 0.999991, 0.408021, -1.203237)"/>
  <path d="M 127.05 93.625 L 130.179 95.787 C 130.849 97.708 130.403 98.429 128.839 97.949 L 127.051 98.813 C 125.711 98.381 125.263 97.084 125.71 94.922 L 127.05 93.625 Z" style="fill: rgb(15, 19, 98); filter: none; stroke: rgb(0, 0, 0);" transform="matrix(0.999991, 0.004257, -0.004257, 0.999991, 0.410764, -0.544073)"/>
  <path d="M 367.483 94.644 L 369.719 95.509 C 370.314 97.706 369.868 99.148 368.378 99.832 L 365.25 98.535 C 364.356 96.013 364.803 95.004 366.59 95.509 L 367.483 94.644 Z" style="fill: rgb(15, 19, 98); filter: none; stroke: rgb(0, 0, 0);" transform="matrix(0.999991, 0.004257, -0.004257, 0.999991, 0.417271, -1.563092)"/>
  <path d="M 124.303 108.313 L 127.431 109.611 L 128.325 112.205 L 127.432 114.367 L 124.303 115.231 C 122.367 114.799 121.622 113.214 122.069 110.475 L 124.303 108.313 Z" style="fill: rgb(15, 19, 98); filter: none; stroke: rgb(0, 0, 0);" transform="matrix(0.999991, 0.004257, -0.004257, 0.999991, 0.476947, -0.531683)"/>
  <path d="M 369.206 109.356 L 372.335 110.22 L 373.228 113.247 C 372.782 115.121 371.143 115.841 368.313 115.409 C 366.972 114.977 366.526 113.679 366.972 111.517 L 369.206 109.356 Z" style="fill: rgb(15, 19, 98); filter: none; stroke: rgb(0, 0, 0);" transform="matrix(0.999991, 0.004257, -0.004257, 0.999991, 0.482024, -1.574141)"/>
  <path d="M 177.831 125.808 L 180.96 127.106 L 181.854 132.293 C 180.573 137.107 178.04 140.71 174.256 143.103 C 172.071 145.025 168.496 145.601 163.531 144.833 L 162.19 142.239 L 167.999 142.239 L 175.596 136.617 L 176.491 134.023 L 176.491 132.293 L 175.597 126.673 L 177.831 125.808 Z" style="filter: none; stroke: rgb(0, 0, 0); fill: rgb(24, 146, 22);" transform="matrix(0.999991, 0.004257, -0.004257, 0.999991, 0.578319, -0.73107)"/>
  <path d="M 312.361 126.462 L 315.044 127.76 L 318.172 132.516 L 326.216 135.11 L 336.942 130.786 C 338.73 131.075 339.474 132.372 339.177 134.678 C 336.805 138.437 332.187 140.022 325.322 139.434 C 320.347 138.194 316.622 135.745 314.149 132.084 L 312.361 126.462 Z" style="filter: none; stroke: rgb(0, 0, 0); fill: rgb(18, 191, 217);" transform="matrix(0.999991, 0.004257, -0.004257, 0.999991, 0.569166, -1.385729)"/>
  <path d="M 322.652 127.321 C 325.482 126.889 327.121 127.61 327.568 129.483 L 326.674 132.51 L 323.546 133.375 C 321.609 132.942 320.864 131.357 321.312 128.618 L 322.652 127.321 Z" style="filter: none; stroke: rgb(0, 0, 0); fill: rgb(18, 191, 217);" transform="matrix(0.999991, 0.004257, -0.004257, 0.999991, 0.557572, -1.379692)"/>
  <path d="M 116.625 127.313 C 119.902 126.593 121.988 127.313 122.882 129.475 C 123.33 132.214 122.584 133.799 120.648 134.231 C 117.817 134.664 116.178 133.943 115.731 132.069 L 116.625 127.313 Z" style="fill: rgb(15, 19, 98); filter: none; stroke: rgb(0, 0, 0);" transform="matrix(0.999991, 0.004257, -0.004257, 0.999991, 0.557463, -0.506972)"/>
  <path d="M 289.9 128.124 L 295.711 128.988 L 299.286 131.582 L 326.1 141.96 L 339.061 150.174 C 340.65 151.52 341.246 153.826 340.848 157.093 C 340.401 158.39 339.061 158.822 336.827 158.39 L 331.463 152.336 C 330.122 151.904 329.675 152.337 330.122 153.634 L 326.101 158.39 L 319.843 160.12 L 311.799 157.525 L 301.968 150.607 L 294.817 149.742 L 291.688 153.634 L 293.923 156.66 C 303.907 156.513 311.207 158.963 315.821 164.011 C 318.304 166.221 319.198 169.968 318.502 175.253 L 314.481 180.873 L 306.883 181.738 L 308.224 178.279 L 311.353 176.117 L 312.245 171.793 L 310.458 167.902 L 304.649 164.443 L 290.348 163.578 L 286.326 165.308 C 284.079 167.618 282.887 171.221 282.751 176.117 C 284.121 182.285 286.505 187.474 289.901 191.683 L 287.666 192.115 C 283.938 189.092 281.108 185.201 279.176 180.441 L 278.281 168.334 L 283.197 160.12 L 286.326 157.958 L 285.431 150.174 L 290.348 144.554 L 298.392 142.825 L 304.649 144.554 L 316.268 152.336 L 319.843 153.201 L 322.972 148.445 L 301.074 135.906 L 295.711 134.177 L 289.901 129.421 L 289.9 128.124 Z" style="filter: none; stroke: rgb(0, 0, 0); fill: rgb(18, 191, 217);" transform="matrix(0.999991, 0.004257, -0.004257, 0.999991, 0.684434, -1.31662)"/>
  <path d="M 373.593 128.405 C 376.87 127.828 378.807 128.549 379.403 130.567 C 379.851 133.305 379.105 134.89 377.169 135.323 C 374.338 135.755 372.699 135.035 372.253 133.161 C 371.657 130.567 372.103 128.981 373.593 128.405 Z" style="fill: rgb(15, 19, 98); filter: none; stroke: rgb(0, 0, 0);" transform="matrix(0.999991, 0.004257, -0.004257, 0.999991, 0.564599, -1.59843)"/>
  <path d="M 168.892 132.717 C 171.275 132.428 172.616 133.149 172.914 134.879 C 173.213 137.185 172.467 138.482 170.679 138.77 C 168.296 139.058 166.956 138.337 166.657 136.608 C 166.36 134.302 167.104 133.005 168.892 132.717 Z" style="filter: none; stroke: rgb(0, 0, 0); fill: rgb(24, 146, 22);" transform="matrix(0.999991, 0.004257, -0.004257, 0.999991, 0.579398, -0.721548)"/>
  <path d="M 195.585 136.244 C 197.819 135.811 199.161 136.244 199.608 137.541 L 200.501 140.135 L 199.607 142.297 L 196.926 143.594 L 196.926 145.323 L 206.758 159.16 L 215.696 177.319 L 213.461 178.616 L 208.993 173.428 C 207.832 180.664 204.554 185.853 199.16 188.994 L 191.116 192.453 L 182.178 192.453 C 177.774 191.236 174.348 189.074 171.899 185.967 C 169.217 183.372 168.324 179.049 169.218 172.996 L 175.475 162.618 L 175.475 160.024 C 175.176 158.295 173.835 157.574 171.452 157.863 L 157.151 163.916 L 155.81 160.889 L 195.585 136.244 Z M 188.578 147.566 L 179.95 152.06 L 181.942 154.628 L 181.941 163.617 L 177.96 173.249 L 179.95 179.669 L 187.25 185.448 C 193.002 186.304 196.984 185.448 199.196 182.88 C 202.293 181.168 203.62 178.385 203.178 174.533 L 197.868 172.607 L 197.205 170.68 L 197.869 166.186 L 201.187 164.902 C 198.532 158.053 194.329 152.274 188.578 147.566 Z" style="filter: none; stroke: rgb(0, 0, 0); fill: rgb(24, 146, 22);" transform="matrix(0.999991, 0.004257, -0.004257, 0.999991, 0.700969, -0.789262)"/>
  <path d="M 112.523 145.452 C 115.801 144.875 117.738 145.596 118.334 147.614 L 119.227 149.343 L 116.099 153.235 C 112.821 153.811 110.885 153.091 110.289 151.073 L 109.395 149.343 L 112.523 145.452 Z" style="fill: rgb(15, 19, 98); filter: none; stroke: rgb(0, 0, 0);" transform="matrix(0.999991, 0.004257, -0.004257, 0.999991, 0.63679, -0.485269)"/>
  <path d="M 378.875 146.586 C 382.153 146.009 384.089 146.73 384.685 148.747 C 385.281 151.918 384.536 153.792 382.45 154.368 L 380.663 155.233 L 376.641 153.071 C 375.896 149.468 376.641 147.306 378.875 146.586 Z" style="fill: rgb(15, 19, 98); filter: none; stroke: rgb(0, 0, 0);" transform="matrix(0.999991, 0.004257, -0.004257, 0.999991, 0.645461, -1.618944)"/>
  <path d="M 92.743 170.442 L 98.554 172.172 C 99.596 173.54 99.894 175.99 99.448 179.521 C 98.479 182.044 95.947 183.053 91.85 182.548 L 87.828 179.521 C 87.381 175.99 87.678 173.54 88.722 172.172 L 92.743 170.442 Z" style="fill: rgb(15, 19, 98); filter: none; stroke: rgb(0, 0, 0);" transform="matrix(0.999991, 0.004257, -0.004257, 0.999991, 0.752457, -0.397015)"/>
  <path d="M 400.212 171.749 C 403.519 172.009 405.754 173.306 406.916 175.641 C 407.536 179.412 406.791 181.862 404.681 182.991 L 399.319 183.856 L 395.296 180.829 L 394.402 178.235 L 396.19 173.479 L 400.212 171.749 Z" style="fill: rgb(15, 19, 98); filter: none; stroke: rgb(0, 0, 0);" transform="matrix(0.999991, 0.004257, -0.004257, 0.999991, 0.760537, -1.704444)"/>
  <path d="M 238.959 200.497 L 255.048 200.497 L 270.243 203.956 C 280.42 207.946 288.911 213.567 295.717 220.818 C 301.442 227.097 305.911 234.592 309.124 243.302 L 311.805 254.544 L 311.805 272.703 C 310.272 274.392 309.677 276.986 310.018 280.486 L 304.654 293.457 C 300.984 299.995 296.367 305.616 290.801 310.32 L 272.924 321.562 L 261.304 325.021 L 247.897 325.885 L 247.003 326.75 L 246.11 325.885 L 232.703 325.021 L 221.083 321.562 C 212.044 317.624 204.446 312.292 198.292 305.564 C 191.231 298.27 186.166 289.046 183.096 277.892 L 182.202 273.568 L 182.203 254.544 C 185.134 237.779 192.136 224.952 203.207 216.063 L 217.508 206.55 L 229.127 202.226 L 238.959 200.497 Z M 237.929 203.688 C 224.657 206.256 214.038 211.179 206.074 218.456 C 202.534 220.168 200.322 222.95 199.437 226.803 L 196.782 228.087 C 191.473 234.936 187.713 243.497 185.5 253.77 L 185.501 272.39 L 187.492 280.737 C 190.146 288.87 194.128 295.719 199.437 301.284 C 205.189 308.56 212.71 314.125 222.002 317.978 L 232.62 321.83 L 245.893 323.114 L 247.884 323.114 L 267.794 319.904 C 275.315 317.336 281.731 313.483 287.039 308.346 C 295.004 302.354 300.977 294.435 304.958 284.59 L 308.276 271.748 L 308.276 264.043 L 308.94 263.401 L 308.277 253.77 L 303.632 239.002 L 293.677 224.234 L 283.721 215.245 L 269.121 207.54 L 255.848 203.688 L 237.929 203.688 Z" style="filter: none; stroke: rgb(0, 0, 0); fill: rgb(98, 29, 71);" transform="matrix(0.999991, 0.004257, -0.004257, 0.999991, 1.124483, -1.049105)"/>
  <path d="M 78.31 203.24 L 83.226 206.266 C 83.822 209.437 83.077 211.311 80.991 211.887 C 77.714 212.464 75.778 211.743 75.182 209.726 L 74.288 207.131 L 76.522 204.104 L 78.31 203.24 Z" style="fill: rgb(15, 19, 98); filter: none; stroke: rgb(0, 0, 0);" transform="matrix(0.999991, 0.004257, -0.004257, 0.999991, 0.884722, -0.33381)"/>
  <path d="M 414.38 204.672 L 419.297 206.834 L 420.189 209.428 L 417.062 213.32 L 411.252 212.455 L 410.358 209.428 L 412.145 205.536 L 414.38 204.672 Z" style="fill: rgb(15, 19, 98); filter: none; stroke: rgb(0, 0, 0);" transform="matrix(0.999991, 0.004257, -0.004257, 0.999991, 0.893459, -1.765925)"/>
  <path d="M 247.245 204.821 L 252.161 206.982 L 250.821 209.144 L 243.67 209.144 L 242.328 207.847 C 241.525 205.205 242.865 204.484 246.351 205.685 L 247.245 204.821 Z" style="fill: rgb(15, 19, 98); filter: none; stroke: rgb(0, 0, 0);" transform="matrix(0.999991, 0.004257, -0.004257, 0.999991, 0.883364, -1.050164)"/>
  <path d="M 233.831 206.492 C 236.561 205.8 237.307 206.953 236.066 209.951 L 230.703 210.816 C 229.461 207.818 230.207 206.665 232.937 207.357 L 233.831 206.492 Z" style="fill: rgb(15, 19, 98); filter: none; stroke: rgb(0, 0, 0);" transform="matrix(0.999991, 0.004257, -0.004257, 0.999991, 0.88994, -0.991627)"/>
  <path d="M 258.857 206.608 L 263.773 208.77 L 262.432 210.932 L 257.516 208.77 L 258.857 206.608 Z" style="fill: rgb(15, 19, 98); filter: none; stroke: rgb(0, 0, 0);" transform="matrix(0.999991, 0.004257, -0.004257, 0.999991, 0.891096, -1.107672)"/>
  <path d="M 270.459 210.116 L 275.375 213.143 C 274.333 215.593 273.29 216.025 272.248 214.44 L 269.119 213.143 L 270.459 210.116 Z" style="fill: rgb(15, 19, 98); filter: none; stroke: rgb(0, 0, 0);" transform="matrix(0.999991, 0.004257, -0.004257, 0.999991, 0.908122, -1.157028)"/>
  <path d="M 221.3 210.768 C 224.517 209.687 225.858 210.12 225.322 212.065 L 220.406 215.092 L 219.065 211.633 L 221.3 210.768 Z" style="fill: rgb(15, 19, 98); filter: none; stroke: rgb(0, 0, 0);" transform="matrix(0.999991, 0.004257, -0.004257, 0.999991, 0.907224, -0.944195)"/>
  <path d="M 212.336 215.912 L 214.571 217.209 L 211.443 221.1 C 208.712 221.792 207.967 220.639 209.208 217.641 L 212.336 215.912 Z" style="fill: rgb(15, 19, 98); filter: none; stroke: rgb(0, 0, 0);" transform="matrix(0.999991, 0.004257, -0.004257, 0.999991, 0.932512, -0.898795)"/>
  <path d="M 280.266 216.211 C 283.245 215.923 284.884 216.932 285.181 219.238 L 283.841 221.4 L 278.925 218.373 L 280.266 216.211 Z" style="fill: rgb(15, 19, 98); filter: none; stroke: rgb(0, 0, 0);" transform="matrix(0.999991, 0.004257, -0.004257, 0.999991, 0.933909, -1.198717)"/>
  <path d="M 63.057 217.88 C 65.888 217.448 67.526 218.168 67.974 220.042 C 69.091 223.155 68.644 224.452 66.633 223.933 L 63.057 224.798 C 61.121 224.366 60.376 222.78 60.823 220.042 L 63.057 217.88 Z" style="fill: rgb(15, 19, 98); filter: none; stroke: rgb(0, 0, 0);" transform="matrix(0.999991, 0.004257, -0.004257, 0.999991, 0.942567, -0.273145)"/>
  <path d="M 427.727 219.434 C 431.004 218.858 432.941 219.578 433.537 221.596 L 431.302 226.353 L 429.514 227.217 L 426.387 225.055 C 425.642 222.029 426.088 220.155 427.727 219.434 Z" style="fill: rgb(15, 19, 98); filter: none; stroke: rgb(0, 0, 0);" transform="matrix(0.999991, 0.004257, -0.004257, 0.999991, 0.954182, -1.827582)"/>
  <path d="M 273.062 223.037 L 276.191 225.199 L 277.084 226.929 L 271.721 235.144 C 268.035 238.085 262.523 239.526 255.186 239.467 C 250.107 238.616 246.384 236.454 244.014 232.982 C 243.566 231.685 244.013 231.253 245.354 231.685 C 248.042 234.561 252.213 236.002 257.867 236.009 C 262.262 235.36 265.39 233.487 267.252 230.388 L 270.828 223.902 L 273.062 223.037 Z" style="filter: none; fill: rgb(75, 13, 98); stroke: rgb(0, 0, 0);" transform="matrix(0.999991, 0.004257, -0.004257, 0.999991, 0.986804, -1.106704)"/>
  <path d="M 203.363 223.657 L 205.599 224.954 C 205.896 227.837 204.854 229.422 202.47 229.711 L 200.236 228.413 C 199.938 225.531 200.98 223.945 203.363 223.657 Z" style="fill: rgb(15, 19, 98); filter: none; stroke: rgb(0, 0, 0);" transform="matrix(0.999991, 0.004257, -0.004257, 0.999991, 0.966832, -0.861765)"/>
  <path d="M 288.725 224.034 C 291.504 223.602 293.293 224.61 294.086 227.061 L 292.746 229.223 C 290.362 229.511 289.022 228.79 288.724 227.061 L 288.725 224.034 Z" style="fill: rgb(15, 19, 98); filter: none; stroke: rgb(0, 0, 0);" transform="matrix(0.999991, 0.004257, -0.004257, 0.999991, 0.967322, -1.238458)"/>
  <path d="M 256.984 224.755 L 261.007 226.916 C 261.602 229.51 261.156 231.096 259.666 231.672 L 256.09 232.537 C 254.303 232.249 253.558 230.952 253.856 228.646 L 256.984 224.755 Z" style="fill-rule: nonzero; filter: none; fill: rgb(75, 13, 98); stroke: rgb(0, 0, 0);" transform="matrix(0.999991, 0.004257, -0.004257, 0.999991, 0.975679, -1.094221)"/>
  <path d="M 49.589 232.521 C 51.824 232.089 53.165 232.521 53.612 233.818 C 54.058 236.556 53.314 238.141 51.377 238.574 C 48.994 238.862 47.653 238.142 47.354 236.412 C 47.057 234.106 47.802 232.809 49.589 232.521 Z" style="fill: rgb(15, 19, 98); filter: none; stroke: rgb(0, 0, 0);" transform="matrix(0.999991, 0.004257, -0.004257, 0.999991, 1.00297, -0.212904)"/>
  <path d="M 196.172 233.14 L 198.407 234.437 L 196.619 239.193 C 193.714 240.231 192.82 238.934 193.938 235.302 L 196.172 233.14 Z" style="fill: rgb(15, 19, 98); filter: none; stroke: rgb(0, 0, 0);" transform="matrix(0.999991, 0.004257, -0.004257, 0.999991, 1.007873, -0.831973)"/>
  <path d="M 296.278 233.573 L 299.407 234.87 L 300.301 238.329 L 298.066 239.626 L 294.938 234.87 L 296.278 233.573 Z" style="fill: rgb(15, 19, 98); filter: none; stroke: rgb(0, 0, 0);" transform="matrix(0.999991, 0.004257, -0.004257, 0.999991, 1.009901, -1.264822)"/>
  <path d="M 441.968 234.194 C 444.203 233.762 445.544 234.194 445.991 235.491 L 446.885 237.221 L 445.991 239.383 L 441.969 240.247 C 440.479 239.671 440.033 238.086 440.628 235.491 L 441.968 234.194 Z" style="fill: rgb(15, 19, 98); filter: none; stroke: rgb(0, 0, 0);" transform="matrix(0.999991, 0.004257, -0.004257, 0.999991, 1.013523, -1.88638)"/>
  <path d="M 232.674 237.616 C 239.993 236.876 244.91 238.461 247.422 242.372 L 250.997 248.425 L 250.997 253.614 L 249.209 259.235 C 253.678 259.667 256.956 261.541 259.041 264.856 L 262.616 272.638 C 261.723 275.809 262.02 277.827 263.511 278.692 C 262.021 279.556 261.722 281.574 262.616 284.745 L 259.935 290.798 L 252.337 299.013 L 247.869 301.607 L 236.249 303.337 C 229.03 301.962 223.518 298.935 219.714 294.257 L 212.116 284.312 L 205.86 283.448 L 204.519 286.474 L 207.647 287.771 L 209.882 286.906 L 207.647 290.366 L 204.072 291.23 L 200.049 288.204 C 199.268 283.412 200.311 280.385 203.178 279.124 L 210.328 278.259 L 217.926 283.88 L 227.311 294.69 C 230.545 296.749 235.313 297.325 241.612 296.419 C 246.049 295.811 249.177 293.937 250.997 290.798 L 254.572 283.015 L 254.572 275.233 L 251.891 269.611 L 246.974 267.017 L 238.93 267.017 L 234.909 267.882 L 234.909 265.72 L 242.059 257.073 L 242.953 251.019 L 238.931 246.264 C 234.163 245.399 231.334 246.408 230.439 249.29 L 229.545 256.208 C 230.887 256.928 231.184 258.658 230.44 261.397 L 225.524 267.882 C 221.699 267.834 219.167 266.537 217.925 263.991 L 217.032 262.262 L 217.032 252.749 C 218.16 247.499 220.693 243.607 224.629 241.075 L 232.674 237.616 Z" style="fill-rule: nonzero; filter: none; fill: rgb(75, 13, 98); stroke: rgb(0, 0, 0);" transform="matrix(0.999991, 0.004257, -0.004257, 0.999991, 1.153141, -0.983704)"/>
  <path d="M 280.115 239.522 C 286.107 238.625 290.129 239.634 292.182 242.549 L 295.757 251.196 L 293.97 259.844 L 289.054 266.33 C 287.139 268.225 284.16 269.09 280.115 268.924 L 274.306 265.033 L 273.412 258.115 L 278.775 254.223 L 276.987 260.709 C 277.583 263.303 279.818 264.312 283.691 263.736 L 288.607 259.844 C 290.494 257.922 291.089 254.752 290.394 250.332 L 287.266 246.441 L 281.904 245.576 L 262.239 256.817 C 259.313 258.475 255.589 259.051 251.066 258.547 C 250.396 257.01 250.843 256.433 252.407 256.817 C 259.339 255.453 264.553 252.426 268.048 247.738 L 271.177 243.846 L 280.115 239.522 Z" style="filter: none; fill: rgb(75, 13, 98); stroke: rgb(0, 0, 0);" transform="matrix(0.999991, 0.004257, -0.004257, 0.999991, 1.084072, -1.160969)"/>
  <path d="M 352.477 239.901 C 355.307 240.045 357.243 241.054 358.287 242.927 L 356.052 245.954 C 349.348 244.657 345.327 245.954 343.986 249.846 C 340.561 252.586 339.072 257.198 339.516 263.681 C 340.884 269.852 344.012 274.32 348.901 277.085 C 351.087 279.007 354.662 279.583 359.627 278.814 L 364.543 275.788 C 366.45 274.462 367.046 271.868 366.331 268.005 L 364.543 261.519 L 366.778 261.519 L 375.715 267.573 L 380.185 267.573 C 382.717 267.14 383.76 265.267 383.313 261.952 L 378.397 254.602 L 373.927 256.331 L 369.458 256.331 C 366.852 255.394 365.809 252.944 366.33 248.981 L 368.565 245.954 C 369.955 244.417 372.339 243.84 375.716 244.224 C 380.558 245.594 384.281 248.044 386.888 251.575 C 389.905 254.133 390.799 258.745 389.57 265.411 L 384.654 271.896 L 376.61 275.355 L 373.928 274.49 C 372.393 278.483 370.01 281.654 366.778 284.003 C 363.799 286.309 359.032 286.885 352.476 285.733 C 346.782 284.325 342.461 281.586 339.516 277.517 L 335.047 268.87 L 334.153 260.222 L 335.941 253.305 L 340.41 246.819 L 343.091 245.522 C 342.645 244.224 343.091 243.792 344.432 244.224 L 352.477 239.901 Z" style="filter: none; stroke: rgb(0, 0, 0); fill: rgb(25, 31, 161);" transform="matrix(0.999991, 0.004257, -0.004257, 0.999991, 1.123319, -1.539196)"/>
  <path d="M 37.927 242.844 L 40.163 243.709 C 40.758 245.907 40.312 247.348 38.822 248.032 L 35.693 246.735 C 34.8 244.213 35.246 243.204 37.034 243.709 L 37.927 242.844 Z" style="fill: rgb(15, 19, 98); filter: none; stroke: rgb(0, 0, 0);" transform="matrix(0.999991, 0.004257, -0.004257, 0.999991, 1.045172, -0.158828)"/>
  <path d="M 191.659 243.498 L 193.894 246.524 L 191.659 249.551 C 189.176 250.308 188.432 249.299 189.425 246.524 L 191.659 243.498 Z" style="fill: rgb(15, 19, 98); filter: none; stroke: rgb(0, 0, 0);" transform="matrix(0.999991, 0.004257, -0.004257, 0.999991, 1.051707, -0.812753)"/>
  <path d="M 301.596 243.971 L 304.725 246.133 C 305.967 249.506 305.222 250.803 302.491 250.025 L 300.256 245.269 L 301.596 243.971 Z" style="fill: rgb(15, 19, 98); filter: none; stroke: rgb(0, 0, 0);" transform="matrix(0.999991, 0.004257, -0.004257, 0.999991, 1.05468, -1.286702)"/>
  <path d="M 456.228 244.624 L 458.462 245.489 C 458.908 247.699 458.164 249.14 456.227 249.813 L 453.993 248.516 C 453.099 245.994 453.546 244.985 455.333 245.489 L 456.228 244.624 Z" style="fill: rgb(15, 19, 98); filter: none; stroke: rgb(0, 0, 0);" transform="matrix(0.999991, 0.004257, -0.004257, 0.999991, 1.056542, -1.939236)"/>
  <path d="M 87.024 248.259 C 91.285 248.749 94.115 250.623 95.515 253.88 C 97.7 256.378 98.296 260.414 97.303 265.987 L 92.387 272.472 L 91.94 270.31 C 94.224 268.485 95.118 265.314 94.621 260.798 L 89.706 255.177 L 84.79 252.151 C 83.896 249.629 84.343 248.62 86.13 249.124 L 87.024 248.259 Z" style="filter: none; fill: rgb(167, 147, 32); stroke: rgb(0, 0, 0);" transform="matrix(0.999991, 0.004257, -0.004257, 0.999991, 1.109201, -0.385265)"/>
  <path d="M 24.481 252.3 L 26.716 253.597 L 25.376 256.624 C 22.893 257.381 22.148 256.372 23.141 253.597 L 24.481 252.3 Z" style="fill: rgb(15, 19, 98); filter: none; stroke: rgb(0, 0, 0);" transform="matrix(0.999991, 0.004257, -0.004257, 0.999991, 1.083987, -0.102908)"/>
  <path d="M 398.938 253.897 L 400.278 254.329 L 396.703 260.382 L 396.703 268.165 L 402.512 274.651 L 406.534 276.812 C 406.981 278.975 406.535 280.272 405.194 280.704 L 402.513 280.704 L 396.703 276.812 C 393.236 274.114 392.044 269.213 393.127 262.112 L 396.703 254.762 L 398.938 253.897 Z" style="filter: none; stroke: rgb(0, 0, 0); fill: rgb(25, 31, 161);" transform="matrix(0.999991, 0.004257, -0.004257, 0.999991, 1.14152, -1.69919)"/>
  <path d="M 468.702 254.192 L 470.936 255.489 L 469.596 258.516 L 467.361 257.219 L 468.702 254.192 Z" style="fill: rgb(15, 19, 98); filter: none; stroke: rgb(0, 0, 0);" transform="matrix(0.999991, 0.004257, -0.004257, 0.999991, 1.09555, -1.994842)"/>
  <path d="M 304.23 255.223 L 306.465 256.52 C 307.806 260.748 306.911 262.333 303.783 261.276 L 302.89 256.52 L 304.23 255.223 Z" style="fill: rgb(15, 19, 98); filter: none; stroke: rgb(0, 0, 0);" transform="matrix(0.999991, 0.004257, -0.004257, 0.999991, 1.102807, -1.295955)"/>
  <path d="M 187.586 255.595 L 191.161 256.892 L 188.927 261.648 C 187.139 260.711 186.692 258.694 187.586 255.595 Z" style="fill: rgb(15, 19, 98); filter: none; stroke: rgb(0, 0, 0);" transform="matrix(0.999991, 0.004257, -0.004257, 0.999991, 1.102666, -0.802868)"/>
  <path d="M 89.699 258.632 L 92.828 260.794 L 91.488 263.821 L 89.7 264.685 C 87.912 264.397 87.168 263.1 87.465 260.794 L 89.699 258.632 Z" style="filter: none; fill: rgb(167, 147, 32); stroke: rgb(0, 0, 0);" transform="matrix(0.999991, 0.004257, -0.004257, 0.999991, 1.114697, -0.381247)"/>
  <path d="M 11.041 260.892 C 13.274 260.172 14.02 260.892 13.275 263.054 L 11.041 264.351 L 9.7 262.189 L 11.041 260.892 Z" style="fill: rgb(15, 19, 98); filter: none; stroke: rgb(0, 0, 0);" transform="matrix(0.999991, 0.004257, -0.004257, 0.999991, 1.11751, -0.047118)"/>
  <path d="M 399.838 262.55 C 402.073 262.118 403.414 262.55 403.861 263.847 L 404.754 265.577 L 400.732 268.604 L 398.498 267.739 L 397.604 265.577 L 399.838 262.55 Z" style="filter: none; stroke: rgb(0, 0, 0); fill: rgb(25, 31, 161);" transform="matrix(0.999991, 0.004257, -0.004257, 0.999991, 1.133852, -1.705413)"/>
  <path d="M 480.733 262.897 L 484.308 264.194 L 480.733 266.355 L 480.733 262.897 Z" style="fill: rgb(15, 19, 98); filter: none; stroke: rgb(0, 0, 0);" transform="matrix(0.999991, 0.004257, -0.004257, 0.999991, 1.130885, -2.051692)"/>
  <path d="M 188.878 266.837 L 191.114 268.134 C 191.709 270.729 191.262 272.314 189.773 272.891 L 187.538 271.593 C 186.942 268.999 187.39 267.414 188.878 266.837 Z" style="fill: rgb(15, 19, 98); filter: none; stroke: rgb(0, 0, 0);" transform="matrix(0.999991, 0.004257, -0.004257, 0.999991, 1.150526, -0.803514)"/>
  <path d="M 304.18 267.329 C 306.911 266.551 307.656 267.848 306.415 271.22 C 305.222 273.814 304.03 274.102 302.839 272.085 C 302.243 269.491 302.691 267.905 304.18 267.329 Z" style="fill: rgb(15, 19, 98); filter: none; stroke: rgb(0, 0, 0);" transform="matrix(0.999991, 0.004257, -0.004257, 0.999991, 1.153256, -1.295043)"/>
  <path d="M 24.416 267.867 L 26.65 268.731 L 25.31 272.191 L 23.075 270.893 L 24.416 267.867 Z" style="fill: rgb(15, 19, 98); filter: none; stroke: rgb(0, 0, 0);" transform="matrix(0.999991, 0.004257, -0.004257, 0.999991, 1.149739, -0.103393)"/>
  <path d="M 467.294 270.623 C 470.393 269.422 471.584 270.142 470.87 272.784 L 467.294 274.082 L 467.294 270.623 Z" style="fill: rgb(15, 19, 98); filter: none; stroke: rgb(0, 0, 0);" transform="matrix(0.999991, 0.004257, -0.004257, 0.999991, 1.162457, -1.994844)"/>
  <path d="M 36.889 277.434 L 40.017 278.731 L 38.676 281.757 L 35.547 280.46 L 36.889 277.434 Z" style="fill: rgb(15, 19, 98); filter: none; stroke: rgb(0, 0, 0);" transform="matrix(0.999991, 0.004257, -0.004257, 0.999991, 1.19058, -0.158305)"/>
  <path d="M 190.171 278.091 L 193.747 280.253 C 194.864 283.885 193.969 285.182 191.065 284.145 L 190.171 278.091 Z" style="fill: rgb(15, 19, 98); filter: none; stroke: rgb(0, 0, 0);" transform="matrix(0.999991, 0.004257, -0.004257, 0.999991, 1.199196, -0.815611)"/>
  <path d="M 301.004 278.559 C 303.909 277.521 304.803 278.819 303.686 282.451 L 302.791 284.612 L 300.11 283.315 L 301.004 278.559 Z" style="fill: rgb(15, 19, 98); filter: none; stroke: rgb(0, 0, 0);" transform="matrix(0.999991, 0.004257, -0.004257, 0.999991, 1.200711, -1.28362)"/>
  <path d="M 455.188 279.214 L 458.316 280.512 L 457.422 283.538 L 453.848 282.241 L 455.188 279.214 Z" style="fill: rgb(15, 19, 98); filter: none; stroke: rgb(0, 0, 0);" transform="matrix(0.999991, 0.004257, -0.004257, 0.999991, 1.20195, -1.938991)"/>
  <path d="M 48.017 286.999 C 50.758 286.279 52.546 286.711 53.381 288.296 L 52.487 292.188 L 50.252 293.053 L 47.123 289.161 L 48.017 286.999 Z" style="fill: rgb(15, 19, 98); filter: none; stroke: rgb(0, 0, 0);" transform="matrix(0.999991, 0.004257, -0.004257, 0.999991, 1.234378, -0.211296)"/>
  <path d="M 441.739 288.673 C 444.568 288.241 446.208 288.961 446.654 290.835 L 444.419 293.862 C 442.185 294.294 440.845 293.862 440.398 292.565 C 439.951 290.403 440.398 289.105 441.739 288.673 Z" style="fill: rgb(15, 19, 98); filter: none; stroke: rgb(0, 0, 0);" transform="matrix(0.999991, 0.004257, -0.004257, 0.999991, 1.24403, -1.885094)"/>
  <path d="M 195.937 288.489 L 199.066 290.651 C 200.307 294.024 199.561 295.321 196.831 294.543 C 194.894 294.11 194.149 292.525 194.597 289.786 L 195.937 288.489 Z" style="fill: rgb(15, 19, 98); filter: none; stroke: rgb(0, 0, 0);" transform="matrix(0.999991, 0.004257, -0.004257, 0.999991, 1.243235, -0.836238)"/>
  <path d="M 296.936 288.913 L 299.171 290.21 L 296.936 294.967 C 294.454 295.723 293.709 294.714 294.702 291.94 L 296.936 288.913 Z" style="fill: rgb(15, 19, 98); filter: none; stroke: rgb(0, 0, 0);" transform="matrix(0.999991, 0.004257, -0.004257, 0.999991, 1.245994, -1.260506)"/>
  <path d="M 290.642 298.397 L 292.876 299.694 L 289.747 303.586 C 287.513 304.306 286.768 303.586 287.513 301.424 L 290.642 298.397 Z" style="fill: rgb(15, 19, 98); filter: none; stroke: rgb(0, 0, 0);" transform="matrix(0.999991, 0.004257, -0.004257, 0.999991, 1.284524, -1.232035)"/>
  <path d="M 201.705 298.898 C 204.485 298.465 206.274 299.474 207.068 301.924 L 205.727 304.086 L 201.705 301.059 L 201.705 298.898 Z" style="fill: rgb(15, 19, 98); filter: none; stroke: rgb(0, 0, 0);" transform="matrix(0.999991, 0.004257, -0.004257, 0.999991, 1.285096, -0.867342)"/>
  <path d="M 63.601 300.03 C 65.984 299.742 67.325 300.462 67.623 302.192 C 68.219 304.786 67.772 306.372 66.283 306.948 C 63.005 307.524 61.068 306.804 60.472 304.786 L 61.366 300.895 L 63.601 300.03 Z" style="fill: rgb(15, 19, 98); filter: none; stroke: rgb(0, 0, 0);" transform="matrix(0.999991, 0.004257, -0.004257, 0.999991, 1.292811, -0.270443)"/>
  <path d="M 428.272 301.584 C 431.251 301.296 432.891 302.304 433.188 304.61 C 433.486 306.916 432.741 308.213 430.953 308.502 C 427.676 309.078 425.739 308.358 425.144 306.34 C 424.846 303.458 425.888 301.872 428.272 301.584 Z" style="fill: rgb(15, 19, 98); filter: none; stroke: rgb(0, 0, 0);" transform="matrix(0.999991, 0.004257, -0.004257, 0.999991, 1.302763, -1.824225)"/>
  <path d="M 210.611 306.718 C 213.391 306.286 215.179 307.295 215.973 309.745 C 216.495 311.474 215.452 311.907 212.845 311.042 C 210.909 310.369 210.164 308.928 210.611 306.718 Z" style="fill: rgb(15, 19, 98); filter: none; stroke: rgb(0, 0, 0);" transform="matrix(0.999991, 0.004257, -0.004257, 0.999991, 1.317548, -0.905194)"/>
  <path d="M 280.776 307.006 C 283.382 306.141 284.426 306.573 283.904 308.303 C 283.606 310.609 281.967 311.618 278.988 311.329 C 277.35 310.609 277.2 309.888 278.541 309.168 C 278.094 307.871 278.541 307.438 279.882 307.871 L 280.776 307.006 Z" style="fill: rgb(15, 19, 98); filter: none; stroke: rgb(0, 0, 0);" transform="matrix(0.999991, 0.004257, -0.004257, 0.999991, 1.317853, -1.192716)"/>
  <path d="M 220.418 312.815 C 223.695 312.094 225.781 312.815 226.674 314.977 L 225.334 317.138 L 220.418 314.977 L 220.418 312.815 Z" style="fill: rgb(15, 19, 98); filter: none; stroke: rgb(0, 0, 0);" transform="matrix(0.999991, 0.004257, -0.004257, 0.999991, 1.342305, -0.948782)"/>
  <path d="M 269.131 313.013 C 272.884 311.933 274.226 312.797 273.152 315.608 L 268.237 317.337 L 266.896 315.175 L 269.131 313.013 Z" style="fill: rgb(15, 19, 98); filter: none; stroke: rgb(0, 0, 0);" transform="matrix(0.999991, 0.004257, -0.004257, 0.999991, 1.343191, -1.147401)"/>
  <path d="M 76.949 313.062 C 80.004 312.702 81.94 313.423 82.759 315.224 C 83.504 318.251 83.057 320.124 81.418 320.845 L 76.949 321.71 L 73.821 316.954 L 76.949 313.062 Z" style="fill: rgb(15, 19, 98); filter: none; stroke: rgb(0, 0, 0);" transform="matrix(0.999991, 0.004257, -0.004257, 0.999991, 1.351632, -0.331148)"/>
  <path d="M 413.019 314.494 C 416.296 313.917 418.233 314.638 418.829 316.656 C 419.574 320.259 418.829 322.421 416.595 323.141 C 413.541 323.502 411.603 322.781 410.784 320.979 C 410.04 317.377 410.784 315.215 413.019 314.494 Z" style="fill: rgb(15, 19, 98); filter: none; stroke: rgb(0, 0, 0);" transform="matrix(0.999991, 0.004257, -0.004257, 0.999991, 1.360747, -1.762944)"/>
  <path d="M 233.363 316.324 L 238.279 318.486 L 236.939 320.647 L 232.022 318.486 L 233.363 316.324 Z" style="fill: rgb(15, 19, 98); filter: none; stroke: rgb(0, 0, 0);" transform="matrix(0.999991, 0.004257, -0.004257, 0.999991, 1.357923, -0.99815)"/>
  <path d="M 257.496 316.427 C 260.178 315.85 261.817 316.283 262.412 317.724 C 262.859 319.021 262.413 319.453 261.071 319.021 L 257.496 320.751 L 256.155 317.724 L 257.496 316.427 Z" style="fill: rgb(15, 19, 98); filter: none; stroke: rgb(0, 0, 0);" transform="matrix(0.999991, 0.004257, -0.004257, 0.999991, 1.358057, -1.101241)"/>
  <path d="M 244.977 318.102 L 249.892 318.102 L 249.892 320.264 C 249.446 321.562 248.105 321.994 245.871 321.561 L 243.636 320.697 L 244.977 318.102 Z" style="fill: rgb(15, 19, 98); filter: none; stroke: rgb(0, 0, 0);" transform="matrix(0.999991, 0.004257, -0.004257, 0.999991, 1.364105, -1.047576)"/>
  <path d="M 289.481 336.524 C 290.822 336.092 291.269 336.524 290.822 337.821 L 282.777 349.063 L 281.884 357.711 L 286.8 365.061 C 290.122 367.612 294.889 368.765 301.101 368.52 L 307.804 363.764 L 308.698 359.44 L 306.017 354.684 L 309.145 354.684 L 315.402 359.008 L 320.764 359.873 L 324.787 356.846 L 325.68 353.387 L 323.893 348.631 L 311.379 342.145 C 310.784 339.551 311.23 337.966 312.72 337.389 L 318.977 336.524 L 327.468 343.01 L 330.149 348.198 L 330.149 360.305 L 326.128 365.061 C 324.042 366.503 320.764 366.791 316.296 365.926 L 314.955 367.223 C 314.448 371.345 312.511 374.083 309.144 375.438 L 305.123 377.6 C 304.229 380.122 304.676 381.131 306.464 380.627 L 329.702 367.655 L 336.852 364.196 L 339.981 364.196 L 336.853 368.52 L 309.145 386.68 L 300.207 391.004 L 294.397 391.004 L 293.503 387.112 C 294.865 384.971 297.249 383.818 300.654 383.653 L 298.866 379.33 L 295.738 376.303 C 289.083 375.534 284.168 373.084 280.99 368.952 L 276.52 360.305 L 276.521 354.252 L 280.096 345.604 L 283.672 340.848 L 289.481 336.524 Z" style="filter: none; stroke: rgb(0, 0, 0); fill: rgb(255, 17, 0);" transform="matrix(0.999991, 0.004257, -0.004257, 0.999991, 1.550992, -1.308927)"/>
  <path d="M 184.005 338.588 L 185.346 341.614 L 183.558 345.938 L 185.792 346.371 L 186.687 345.506 L 198.306 345.506 C 202.328 346.803 205.457 348.965 207.691 351.991 L 210.373 358.909 L 210.372 364.963 C 209.287 369.101 207.052 372.128 203.669 374.042 C 200.987 376.637 196.518 377.502 190.261 376.637 C 182.629 375.374 177.266 371.915 174.173 366.26 L 171.045 370.151 L 171.045 372.313 L 198.753 385.284 L 199.647 389.175 L 198.753 391.337 L 194.73 391.337 L 174.173 380.961 L 160.765 373.178 L 156.743 369.286 L 158.085 366.26 L 164.788 367.989 L 179.983 342.479 L 184.005 338.588 Z M 186.396 349.17 L 184.405 353.023 L 181.086 354.307 L 179.096 356.875 C 179.096 360.728 179.981 363.51 181.75 365.222 L 192.369 370.359 C 195.908 370.787 198.563 370.359 200.332 369.075 L 204.315 363.296 L 202.987 356.875 C 200.333 351.738 194.802 349.17 186.396 349.17 Z" style="filter: none; stroke: rgb(0, 0, 0); fill: rgb(194, 68, 0);" transform="matrix(0.999991, 0.004257, -0.004257, 0.999991, 1.555309, -0.778099)"/>
  <path d="M 90.226 342.525 C 94.396 341.66 96.93 342.381 97.823 344.687 L 98.717 350.74 C 97.824 353.622 94.993 354.631 90.226 353.767 C 87.246 352.902 86.204 350.164 87.097 345.551 L 90.226 342.525 Z" style="fill: rgb(15, 19, 98); filter: none; stroke: rgb(0, 0, 0);" transform="matrix(0.999991, 0.004257, -0.004257, 0.999991, 1.482781, -0.391693)"/>
  <path d="M 397.694 343.833 C 401.865 342.968 404.397 343.688 405.291 345.995 L 406.185 352.047 C 405.291 354.93 402.461 355.939 397.694 355.074 L 393.671 349.453 L 397.694 343.833 Z" style="fill: rgb(15, 19, 98); filter: none; stroke: rgb(0, 0, 0);" transform="matrix(0.999991, 0.004257, -0.004257, 0.999991, 1.491131, -1.699327)"/>
  <path d="M 111.557 372.014 C 114.835 371.438 116.772 372.158 117.368 374.176 L 118.261 376.77 L 116.474 379.797 L 112.451 380.662 L 109.323 378.5 L 108.429 375.905 L 111.557 372.014 Z" style="fill: rgb(15, 19, 98); filter: none; stroke: rgb(0, 0, 0);" transform="matrix(0.999991, 0.004257, -0.004257, 0.999991, 1.602689, -0.4791)"/>
  <g transform="matrix(1, 0, 0, 1, 5, 56)">
    <path d="M 372.91 317.148 C 375.964 316.788 377.901 317.508 378.72 319.31 C 379.316 323.057 378.273 325.219 375.593 325.795 L 370.676 323.634 C 369.931 320.03 370.676 317.868 372.91 317.148 Z" style="fill: rgb(15, 19, 98); filter: none; stroke: rgb(0, 0, 0);" transform="matrix(0.999991, 0.004257, -0.004257, 0.999991, 1.371706, -1.591927)"/>
  </g>
  <path d="M 324.227 381.548 C 327.703 381.068 329.937 381.788 330.931 383.71 C 330.186 385.295 329.441 385.439 328.697 384.142 C 324.244 384.447 321.116 386.032 319.312 388.899 L 319.758 390.196 C 320.354 388.466 322.142 387.889 325.121 388.466 L 326.462 391.493 C 326.015 393.366 324.376 394.087 321.546 393.655 L 318.864 390.196 L 317.524 395.817 L 317.523 397.546 L 317.524 398.843 L 313.055 398.843 L 312.161 392.358 L 317.971 384.142 L 324.227 381.548 Z" style="filter: none; stroke: rgb(0, 0, 0); fill: rgb(255, 17, 0);" transform="matrix(0.999991, 0.004257, -0.004257, 0.999991, 1.663669, -1.365286)"/>
  <path d="M 161.556 384.353 C 169.047 383.447 173.963 385.032 176.304 389.109 L 178.092 394.297 L 175.41 392.568 L 172.282 388.676 L 165.131 387.812 L 160.662 391.27 L 158.428 391.27 L 157.535 387.379 L 161.556 384.353 Z" style="filter: none; stroke: rgb(0, 0, 0); fill: rgb(194, 68, 0);" transform="matrix(0.999991, 0.004257, -0.004257, 0.999991, 1.658351, -0.710855)"/>
  <path d="M 167.802 388.68 C 170.186 388.392 171.527 389.113 171.824 390.842 L 170.931 393.869 L 167.802 394.734 L 165.568 390.842 L 167.802 388.68 Z" style="filter: none; stroke: rgb(0, 0, 0); fill: rgb(194, 68, 0);" transform="matrix(0.999991, 0.004257, -0.004257, 0.999991, 1.668894, -0.71459)"/>
  <path d="M 117.735 391.06 L 121.757 393.221 C 122.352 395.816 121.906 397.401 120.416 397.978 L 116.84 398.843 C 114.904 398.41 114.16 396.825 114.606 394.086 L 115.5 391.924 L 117.735 391.06 Z" style="fill: rgb(15, 19, 98); filter: none; stroke: rgb(0, 0, 0);" transform="matrix(0.999991, 0.004257, -0.004257, 0.999991, 1.68238, -0.499796)"/>
  <g transform="matrix(1, 0, 0, 1, 5, 56)">
    <path d="M 369.256 336.151 L 373.278 339.177 L 372.384 343.069 L 369.256 343.934 L 366.128 341.772 C 365.531 339.178 365.979 337.592 367.469 337.016 L 369.256 336.151 Z" style="fill: rgb(15, 19, 98); filter: none; stroke: rgb(0, 0, 0);" transform="matrix(0.999991, 0.004257, -0.004257, 0.999991, 1.450908, -1.570198)"/>
  </g>
  <path d="M 123.018 410.973 C 125.401 410.685 126.742 411.405 127.04 413.135 L 125.699 416.162 C 123.018 416.738 121.38 416.306 120.784 414.864 C 120.485 412.558 121.231 411.261 123.018 410.973 Z" style="fill: rgb(15, 19, 98); filter: none; stroke: rgb(0, 0, 0);" transform="matrix(0.999991, 0.004257, -0.004257, 0.999991, 1.762073, -0.523609)"/>
  <path d="M 367.919 412.016 C 370.302 411.727 371.643 412.448 371.941 414.178 L 370.6 417.204 L 368.812 418.069 L 365.684 415.907 C 365.386 413.601 366.131 412.304 367.919 412.016 Z" style="fill: rgb(15, 19, 98); filter: none; stroke: rgb(0, 0, 0);" transform="matrix(0.999991, 0.004257, -0.004257, 0.999991, 1.770045, -1.566138)"/>
  <path d="M 209.644 426.909 L 214.559 427.774 L 215.453 433.395 C 214.634 435.197 212.698 435.917 209.643 435.557 L 206.515 430.801 L 209.644 426.909 Z" style="fill: rgb(15, 19, 98); filter: none; stroke: rgb(0, 0, 0);" transform="matrix(0.999991, 0.004257, -0.004257, 0.999991, 1.837862, -0.894251)"/>
  <path d="M 280.254 427.21 C 283.084 426.778 284.723 427.498 285.17 429.372 L 286.063 431.967 L 282.935 435.858 C 279.882 436.218 277.945 435.497 277.126 433.696 L 278.019 428.075 L 280.254 427.21 Z" style="fill: rgb(15, 19, 98); filter: none; stroke: rgb(0, 0, 0);" transform="matrix(0.999991, 0.004257, -0.004257, 0.999991, 1.839524, -1.194838)"/>
  <path d="M 124.292 427.415 C 126.564 426.838 128.053 427.271 128.76 428.712 L 127.42 431.739 L 124.291 430.442 L 124.292 427.415 Z" style="fill: rgb(15, 19, 98); filter: none; stroke: rgb(0, 0, 0);" transform="matrix(0.999991, 0.004257, -0.004257, 0.999991, 1.829329, -0.534728)"/>
  <path d="M 365.171 428.434 L 368.299 429.731 L 366.959 432.758 L 363.831 431.461 L 365.171 428.434 Z" style="fill: rgb(15, 19, 98); filter: none; stroke: rgb(0, 0, 0);" transform="matrix(0.999991, 0.004257, -0.004257, 0.999991, 1.836364, -1.554437)"/>
  <path d="M 244.488 428.788 C 247.964 428.308 250.198 429.029 251.191 430.95 L 252.085 437.003 L 251.191 439.165 L 245.382 440.895 L 240.465 437.868 C 239.422 433.401 240.167 430.662 242.7 429.653 L 244.488 428.788 Z" style="fill: rgb(15, 19, 98); filter: none; stroke: rgb(0, 0, 0);" transform="matrix(0.999991, 0.004257, -0.004257, 0.999991, 1.853043, -1.043482)"/>
  <path d="M 190.851 432.881 L 194.874 433.746 L 195.767 437.637 C 195.171 439.655 193.234 440.375 189.957 439.799 C 188.17 439.511 187.425 438.214 187.723 435.908 L 188.617 433.746 L 190.851 432.881 Z" style="fill: rgb(15, 19, 98); filter: none; stroke: rgb(0, 0, 0);" transform="matrix(0.999991, 0.004257, -0.004257, 0.999991, 1.859645, -0.812168)"/>
  <path d="M 299.002 433.345 C 301.832 432.913 303.471 433.633 303.918 435.507 L 304.811 437.236 L 303.918 439.398 L 299.002 440.263 C 297.214 439.975 296.47 438.678 296.767 436.372 L 299.002 433.345 Z" style="fill: rgb(15, 19, 98); filter: none; stroke: rgb(0, 0, 0);" transform="matrix(0.999991, 0.004257, -0.004257, 0.999991, 1.861941, -1.276366)"/>
  <path d="M 171.168 437.986 C 173.775 437.121 174.818 437.553 174.297 439.283 L 175.191 441.877 C 174.893 443.607 173.552 444.327 171.168 444.039 C 169.381 443.751 168.636 442.454 168.934 440.148 L 171.168 437.986 Z" style="fill: rgb(15, 19, 98); filter: none; stroke: rgb(0, 0, 0);" transform="matrix(0.999991, 0.004257, -0.004257, 0.999991, 1.878159, -0.72834)"/>
  <path d="M 319.538 438.617 L 322.667 439.914 L 323.561 441.643 L 321.326 444.669 C 318.943 444.958 317.602 444.237 317.305 442.508 C 316.411 439.986 316.858 438.977 318.645 439.481 L 319.538 438.617 Z" style="fill: rgb(15, 19, 98); filter: none; stroke: rgb(0, 0, 0);" transform="matrix(0.999991, 0.004257, -0.004257, 0.999991, 1.883108, -1.35913)"/>
  <path d="M 127.354 442.986 C 129.836 442.23 130.581 443.239 129.589 446.013 L 127.354 447.31 L 126.013 444.284 L 127.354 442.986 Z" style="fill: rgb(15, 19, 98); filter: none; stroke: rgb(0, 0, 0);" transform="matrix(0.999991, 0.004257, -0.004257, 0.999991, 1.895638, -0.540921)"/>
  <path d="M 363.317 443.993 L 366.445 445.29 C 367.116 447.212 366.668 447.932 365.105 447.452 C 364.061 449.037 363.019 448.605 361.975 446.154 L 363.317 443.993 Z" style="fill: rgb(15, 19, 98); filter: none; stroke: rgb(0, 0, 0);" transform="matrix(0.999991, 0.004257, -0.004257, 0.999991, 1.90273, -1.547042)"/>
  <path d="M 155.949 443.974 L 159.077 445.271 C 159.376 447.577 158.631 448.874 156.843 449.162 L 154.608 448.297 C 154.012 446.1 154.459 444.659 155.949 443.974 Z" style="fill: rgb(15, 19, 98); filter: none; stroke: rgb(0, 0, 0);" transform="matrix(0.999991, 0.004257, -0.004257, 0.999991, 1.90246, -0.663225)"/>
  <path d="M 334.71 444.735 L 337.838 445.6 C 338.285 447.81 337.54 449.251 335.604 449.923 L 333.369 449.059 C 332.773 446.861 333.22 445.42 334.71 444.735 Z" style="fill: rgb(15, 19, 98); filter: none; stroke: rgb(0, 0, 0);" transform="matrix(0.999991, 0.004257, -0.004257, 0.999991, 1.90732, -1.424335)"/>
  <path d="M 140.281 450.83 C 143.618 449.569 144.81 450.577 143.857 453.856 L 141.622 455.154 C 140.133 454.469 139.685 453.027 140.281 450.83 Z" style="fill: rgb(15, 19, 98); filter: none; stroke: rgb(0, 0, 0);" transform="matrix(0.999991, 0.004257, -0.004257, 0.999991, 1.928556, -0.600818)"/>
  <path d="M 349.877 451.716 L 352.111 453.013 L 350.77 456.04 L 348.536 454.742 L 349.877 451.716 Z" style="fill: rgb(15, 19, 98); filter: none; stroke: rgb(0, 0, 0);" transform="matrix(0.999991, 0.004257, -0.004257, 0.999991, 1.935333, -1.487214)"/>
  <path d="M 128.185 457.691 L 130.42 458.988 C 131.135 461.63 129.943 462.351 126.844 461.15 L 128.185 457.691 Z" style="fill: rgb(15, 19, 98); filter: none; stroke: rgb(0, 0, 0);" transform="matrix(0.999991, 0.004257, -0.004257, 0.999991, 1.958118, -0.543849)"/>
  <path d="M 363.255 458.691 L 365.489 459.988 C 366.205 462.631 365.013 463.351 361.914 462.15 L 363.255 458.691 Z" style="fill: rgb(15, 19, 98); filter: none; stroke: rgb(0, 0, 0);" transform="matrix(0.999991, 0.004257, -0.004257, 0.999991, 1.964505, -1.544532)"/>
  <g style="filter: none;" transform="matrix(1, 0, 0, 1, 6.884678, 58.188034)">
    <path d="M 100.781 182.054 L 103.909 182.054 L 103.909 193.727 L 106.143 194.16 C 108.726 192.046 112.897 191.47 118.657 192.43 L 122.679 195.457 L 123.572 201.51 L 122.679 202.375 L 122.679 210.158 L 124.467 213.184 L 130.276 215.779 L 134.745 215.779 C 141.26 212.857 146.473 208.677 150.387 203.24 L 154.41 195.889 C 156.048 196.61 156.197 197.33 154.857 198.051 C 153.764 204.2 151.679 209.389 148.6 213.617 L 143.683 218.373 L 133.851 222.696 L 126.701 222.696 C 120.756 221.53 116.436 218.792 113.741 214.482 L 111.953 211.022 C 112.475 207.095 112.177 204.357 111.06 202.807 C 107.783 202.087 105.697 202.807 104.802 204.969 L 103.91 209.293 L 104.803 210.158 L 104.803 227.453 L 102.568 233.074 L 100.334 231.777 L 98.546 226.588 L 97.653 194.592 L 96.758 192.863 L 96.759 191.133 C 96.782 186.833 98.124 183.806 100.781 182.054 Z" style="filter: none; paint-order: fill; stroke-linecap: round; stroke-miterlimit: 13; fill: rgb(167, 147, 32); stroke: rgb(0, 0, 0);" transform="matrix(0.999991, 0.004257, -0.004257, 0.999991, 0.884743, -0.535606)"/>
  </g>
</svg>