<?xml version="1.0" encoding="utf-8"?>
<svg viewBox="0 0 500 500" xmlns="http://www.w3.org/2000/svg">
  <g transform="matrix(2.191811, 0, 0, 2.186662, 768.157532, 31.521769)" style="">
    <path d="M 400.5 87 L 427 124.5 Q 432.375 132.625 431 147.5 L 428 158.5 Q 413.229 179.729 404 206.5 L 403 284.5 L 407.5 286 L 409 280.5 Q 404.083 262.917 405 239.5 Q 407.894 187.894 437.5 163 Q 453.487 152.487 474.5 147 L 536.5 131 Q 556.402 121.402 570.5 106 L 571 109.5 Q 565.242 123.742 566 144.5 L 584 210.5 Q 589.333 227.667 588 251.5 Q 578.645 288.145 551.5 307 Q 527.931 325.669 496 335 L 498 340 L 503.5 339 L 558.5 307 L 572 295.5 L 597 255.5 L 605.5 247 Q 613.25 238.25 631.5 240 L 669.5 244 L 672 244.5 Q 659.989 262.489 653 285.5 L 644.5 295 L 625.5 303 Q 589.696 299.696 565.5 308 L 502 345.5 L 505.5 351 Q 538.105 314.605 601.5 309 Q 620.939 309.561 632.5 318 L 670 350.5 L 699.5 381 L 702.5 383 Q 717.785 395.439 740 400 L 738.5 402 Q 711.741 408.679 695 424 L 691.5 429 L 687 432.5 L 648.5 472 L 619.5 490 Q 607 494 588.5 492 Q 566.083 489.417 549.5 481 Q 523.564 468.806 504 451 L 503 456.5 L 567.5 494 Q 592.333 500.667 626.5 498 Q 642.387 501.613 651 512.5 L 672 556.5 L 669.5 558 L 666.5 557 L 621.5 561 Q 605.26 557.24 597 545.5 Q 585.079 518.421 565.5 499 L 499.5 461 L 496 465.5 Q 536.989 479.011 564 506.5 L 584 535.5 Q 589.477 547.023 588 565.5 Q 582.765 607.265 569 640.5 L 566 668.5 L 571 695.5 L 569.5 695 L 568 693.5 L 564 691 L 562.5 688 L 534.5 670 L 452.5 647 Q 437.95 641.55 429 630.5 Q 404.076 602.424 405 548.5 L 409 516 L 403 517.5 L 404 593.5 L 410 611.5 L 429 645.5 L 431 666.5 L 425 679.5 L 400.5 714 L 372 672.5 L 370 654.5 L 373 643.5 L 394 605.5 L 398 592.5 L 398 516 Q 389.857 512.85 392 520.5 Q 397.714 540.786 396 568.5 Q 391.177 615.177 363.5 639 L 326.5 655 L 266.5 670 Q 244.983 679.483 230.5 696 L 230 692.5 Q 236.732 677.732 235 654.5 L 216 585.5 L 213 550.5 Q 222.102 514.602 248.5 496 Q 272.042 476.353 305 467 L 301.5 461 L 244.5 493 L 226 509.5 L 198.5 552 L 181.5 561 L 169.5 561 Q 154.16 556.34 133.5 557 L 130.5 558 L 130 555.5 L 149 514.5 L 156.5 506 L 176.5 498 Q 211.125 501.125 234.5 493 L 299 457 L 295.5 451 Q 275.214 470.714 247.5 483 Q 226.244 494.744 190.5 492 Q 176.067 490.433 167.5 483 L 133 454 L 99.5 419 Q 83.994 406.331 61 402 L 62.5 400 Q 82.815 395.815 96.5 385 L 136 346.5 L 137.5 344 L 144 338.5 L 145.5 336 Q 159.435 321.935 178.5 313 Q 189.96 308.46 206.5 309 Q 231.788 311.212 250.5 320 L 291 345 L 295.5 351 L 299 345.5 L 235.5 308 L 210.5 303 L 170.5 302 L 152 290.5 L 129 244.5 L 181.5 240 L 201 251 L 223 287.5 L 237.5 303 L 302.5 340 L 305 335 Q 272.282 325.483 249 307 L 247.5 304 L 233 290.5 Q 212.514 272.986 213 234.5 L 218 207.5 L 234 152.5 L 235 132.5 L 230 107.5 L 231.5 106 L 241.5 116 L 264.5 131 L 333.5 149 L 362.5 162 L 364 161.5 L 368.5 168 L 371 169.5 Q 397.988 198.512 396 256.5 L 392 286 L 398 285 L 398 208.5 Q 390.154 180.346 374 160.5 Q 368.889 151.611 370 136.5 L 374 124.5 Q 389.873 108.373 400.5 87 Z M 401 102 L 399 111 L 393 113 L 391 124 L 386 125 L 386 132 L 380 141 Q 379 155 384 164 L 401 198 L 421 153 Q 424 136 415 132 Q 418 124 413 125 Q 407 123 408 114 L 404 112 Q 399 110 401 102 Z M 241 124 L 242 131 L 242 156 L 230 228 Q 226 269 245 288 Q 261 307 284 319 L 285 317 L 292 313 L 291 309 L 293 303 L 301 297 L 310 299 L 316 307 L 319 305 Q 326 305 329 310 L 358 293 L 357 284 L 362 280 L 358 273 L 360 264 L 367 259 Q 376 258 379 263 L 388 258 Q 389 216 371 194 L 369 191 L 351 174 L 318 159 L 270 142 L 241 124 Z M 561 124 L 532 142 L 472 164 L 443 180 Q 413 204 413 258 L 423 263 Q 426 257 437 259 L 443 268 Q 444 277 439 280 L 442 281 L 444 285 L 443 294 Q 460 299 472 310 L 480 305 L 488 306 L 490 300 L 497 297 L 504 298 L 510 306 L 509 313 L 514 314 L 518 319 L 546 299 L 548 297 Q 567 280 572 249 L 570 217 L 559 153 Q 557 136 561 126 L 561 124 Z M 143 250 L 142 252 L 146 254 L 149 259 L 148 264 L 152 265 L 156 271 L 155 276 L 160 278 L 163 287 L 179 295 L 223 300 L 226 300 L 201 265 L 184 252 L 177 254 L 173 252 L 171 250 L 164 254 L 154 251 L 153 254 Q 145 255 143 250 Z M 632 250 L 625 254 L 620 252 L 605 260 L 576 299 L 576 300 L 617 296 L 636 289 Q 640 287 640 280 L 646 276 L 645 272 L 648 266 L 653 264 L 652 260 L 653 257 L 659 253 L 660 251 L 653 254 L 646 250 L 640 254 L 632 250 Z M 388 294 Q 348 300 327 324 L 323 326 Q 299 350 293 393 Q 293 443 317 469 Q 341 500 390 508 Q 449 509 476 478 Q 502 455 508 412 Q 509 350 475 323 L 473 322 Q 456 305 430 297 Q 412 292 388 294 Z M 208 322 Q 189 324 178 332 L 108 387 L 80 401 L 110 416 L 175 468 Q 189 478 212 480 Q 249 478 271 461 L 269 458 L 270 452 L 266 449 L 260 441 L 262 432 L 270 428 L 276 429 L 278 422 L 286 418 L 285 410 L 286 385 L 279 381 L 276 373 L 266 372 L 260 366 L 262 356 L 270 352 L 269 350 L 271 342 Q 248 323 208 322 Z M 583 322 Q 551 326 530 342 L 532 345 L 531 351 L 538 354 L 541 361 L 540 368 Q 537 375 525 373 L 524 380 L 515 385 L 516 390 L 515 417 L 522 420 L 525 428 L 528 428 L 538 431 L 541 437 L 540 445 L 531 450 L 532 453 L 530 461 Q 552 476 587 480 Q 610 480 624 470 L 663 440 L 664 438 Q 687 415 721 401 L 694 387 L 623 331 Q 608 321 583 322 Z M 284 483 L 255 504 Q 236 519 230 548 L 230 576 L 242 647 L 242 672 L 240 677 L 241 678 L 257 666 L 334 636 L 359 622 Q 389 598 388 543 Q 381 544 379 539 L 372 543 L 362 540 L 358 533 L 362 524 L 357 518 L 358 508 Q 341 503 330 492 L 322 497 L 318 496 Q 312 494 313 499 L 304 505 L 298 504 Q 290 501 292 489 L 288 488 L 284 483 Z M 518 483 L 516 486 L 510 488 L 509 499 L 500 505 L 494 504 L 487 495 L 483 497 L 473 492 L 443 508 L 444 511 L 443 520 L 439 523 L 443 529 L 441 539 L 435 543 Q 426 544 424 539 L 413 543 Q 413 588 433 613 L 459 632 L 530 659 L 558 675 L 561 678 L 559 670 L 560 640 L 572 567 L 571 565 L 572 562 Q 571 529 555 513 Q 539 495 518 483 Z M 224 501 L 179 506 L 163 514 L 161 522 L 155 526 L 156 528 L 155 533 L 148 536 L 149 541 L 148 545 L 146 548 L 148 547 Q 154 546 156 551 L 163 547 L 170 551 L 171 549 L 174 548 L 183 549 L 194 544 L 226 502 L 224 501 Z M 577 501 L 603 540 L 613 547 L 629 548 L 632 551 L 638 547 L 645 550 L 655 547 L 652 543 L 653 538 L 649 535 Q 645 533 646 526 L 644 524 L 638 515 L 623 506 L 577 501 Z M 144 548 L 143 550 L 145 549 L 144 548 Z M 401 602 L 380 652 L 380 662 L 386 669 L 386 676 L 390 677 Q 395 679 393 688 L 398 689 L 401 699 L 402 691 L 408 688 L 409 680 L 415 676 L 415 674 Q 415 665 421 663 Q 423 648 418 640 L 401 602 Z " style="fill: rgba(125, 154, 57, 0.88); stroke: rgba(5, 14, 12, 0.61);" transform="matrix(0.31192224536415997, 0, 0, 0.31192224536415997, -360.8079037222148, -22.923850632252616)"/>
    <path d="M 221 92 Q 227.667 89.375 226 95.5 L 222.5 97 L 221 92 Z " style="fill: rgb(44, 94, 87); stroke: rgb(119, 194, 184);" transform="matrix(0.31192224536415997, 0, 0, 0.31192224536415997, -360.8079037222148, -22.923850632252616)"/>
    <path d="M 576.5 92 L 581 93.5 L 578.5 97 L 575 95.5 L 576.5 92 Z " style="fill: rgb(44, 94, 87); stroke: rgb(119, 194, 184);" transform="matrix(0.31192224536415997, 0, 0, 0.31192224536415997, -360.8079037222148, -22.923850632252616)"/>
    <path d="M 242.5 102 L 247 103 L 245.5 108 L 241 106.5 L 242.5 102 Z " style="fill: rgb(44, 94, 87); stroke: rgb(119, 194, 184);" transform="matrix(0.31192224536415997, 0, 0, 0.31192224536415997, -360.8079037222148, -22.923850632252616)"/>
    <path d="M 556.5 102 L 561 104.5 L 558.5 108 L 555 106.5 L 554 104.5 L 556.5 102 Z " style="fill: rgb(44, 94, 87); stroke: rgb(119, 194, 184);" transform="matrix(0.31192224536415997, 0, 0, 0.31192224536415997, -360.8079037222148, -22.923850632252616)"/>
    <path d="M 265.5 111 L 270 114.5 L 269 118 L 265.5 119 L 263 114.5 L 265.5 111 Z " style="fill: rgb(44, 94, 87); stroke: rgb(119, 194, 184);" transform="matrix(0.31192224536415997, 0, 0, 0.31192224536415997, -360.8079037222148, -22.923850632252616)"/>
    <path d="M 535.5 111 L 539 115.5 L 538 118 L 534.5 119 L 532 113.5 L 535.5 111 Z " style="fill: rgb(44, 94, 87); stroke: rgb(119, 194, 184);" transform="matrix(0.31192224536415997, 0, 0, 0.31192224536415997, -360.8079037222148, -22.923850632252616)"/>
    <path d="M 221.5 114 L 226 116.5 L 225 120 L 219 118.5 L 221.5 114 Z " style="fill: rgb(44, 94, 87); stroke: rgb(119, 194, 184);" transform="matrix(0.31192224536415997, 0, 0, 0.31192224536415997, -360.8079037222148, -22.923850632252616)"/>
    <path d="M 577.5 114 L 582 115 L 580.5 120 L 576 118.5 L 576 116.5 L 577.5 114 Z " style="fill: rgb(44, 94, 87); stroke: rgb(119, 194, 184);" transform="matrix(0.31192224536415997, 0, 0, 0.31192224536415997, -360.8079037222148, -22.923850632252616)"/>
    <path d="M 288.5 119 L 293 121.5 L 294 124.5 L 293 127 L 287.5 128 L 284 123.5 L 286.5 120 L 288.5 119 Z " style="fill: rgb(44, 94, 87); stroke: rgb(119, 194, 184);" transform="matrix(0.31192224536415997, 0, 0, 0.31192224536415997, -360.8079037222148, -22.923850632252616)"/>
    <path d="M 510.5 119 L 516 121.5 L 517 124.5 L 516 127 L 510.5 128 L 508 127 Q 506.5 120.708 510.5 119 Z " style="fill: rgb(44, 94, 87); stroke: rgb(119, 194, 184);" transform="matrix(0.31192224536415997, 0, 0, 0.31192224536415997, -360.8079037222148, -22.923850632252616)"/>
    <path d="M 316.5 125 Q 323 124 324 128.5 L 323 135 L 316.5 136 L 314 135 L 313 129.5 L 316.5 125 Z " style="fill: rgb(44, 94, 87); stroke: rgb(119, 194, 184);" transform="matrix(0.31192224536415997, 0, 0, 0.31192224536415997, -360.8079037222148, -22.923850632252616)"/>
    <path d="M 480.5 125 L 487 126 L 488 132.5 L 485.5 136 L 478 135 L 477 129.5 L 480.5 125 Z " style="fill: rgb(44, 94, 87); stroke: rgb(119, 194, 184);" transform="matrix(0.31192224536415997, 0, 0, 0.31192224536415997, -360.8079037222148, -22.923850632252616)"/>
    <path d="M 346.5 132 L 352 133 L 354 141.5 L 347.5 146 L 342 142.5 L 341 137.5 L 344.5 133 L 346.5 132 Z " style="fill: rgb(44, 94, 87); stroke: rgb(119, 194, 184);" transform="matrix(0.31192224536415997, 0, 0, 0.31192224536415997, -360.8079037222148, -22.923850632252616)"/>
    <path d="M 452.5 132 L 459 135.5 L 460 140.5 L 456.5 145 L 452.5 146 L 448 142.5 L 447 136.5 L 449.5 133 L 452.5 132 Z " style="fill: rgb(44, 94, 87); stroke: rgb(119, 194, 184);" transform="matrix(0.31192224536415997, 0, 0, 0.31192224536415997, -360.8079037222148, -22.923850632252616)"/>
    <path d="M 218.5 138 L 224 140.5 L 221.5 145 L 217 143.5 L 216 141.5 L 218.5 138 Z " style="fill: rgb(44, 94, 87); stroke: rgb(119, 194, 184);" transform="matrix(0.31192224536415997, 0, 0, 0.31192224536415997, -360.8079037222148, -22.923850632252616)"/>
    <path d="M 579.5 138 L 585 140.5 L 582.5 145 L 578 143.5 L 577 141.5 L 579.5 138 Z " style="fill: rgb(44, 94, 87); stroke: rgb(119, 194, 184);" transform="matrix(0.31192224536415997, 0, 0, 0.31192224536415997, -360.8079037222148, -22.923850632252616)"/>
    <path d="M 213.5 161 Q 219.583 159.75 219 162.5 L 220 167.5 L 219 170 L 215.5 171 L 212 168.5 L 211 164.5 L 213.5 161 Z " style="fill: rgb(44, 94, 87); stroke: rgb(119, 194, 184);" transform="matrix(0.31192224536415997, 0, 0, 0.31192224536415997, -360.8079037222148, -22.923850632252616)"/>
    <path d="M 582.5 161 L 589 163.5 L 590 165.5 L 586.5 170 L 580 166.5 L 582.5 161 Z " style="fill: rgb(44, 94, 87); stroke: rgb(119, 194, 184);" transform="matrix(0.31192224536415997, 0, 0, 0.31192224536415997, -360.8079037222148, -22.923850632252616)"/>
    <path d="M 295.5 187 L 300 188 L 301 199.5 L 290.5 214 Q 285.7 218.2 275.5 217 L 271 214.5 Q 283.054 213.554 290 207.5 Q 294.875 203.375 293 192.5 L 292 189 L 295.5 187 Z " style="stroke: rgb(119, 194, 184); fill: rgb(94, 68, 49);" transform="matrix(0.31192224536415997, 0, 0, 0.31192224536415997, -360.8079037222148, -22.923850632252616)"/>
    <path d="M 499.5 187 L 507.5 197 Q 511.667 201.333 521.5 200 L 535.5 194 L 539 199.5 Q 534.015 209.015 517.5 207 L 502 197.5 Q 497.542 194.292 499.5 187 Z " style="fill: rgb(94, 68, 49); stroke: rgb(119, 194, 184);" transform="matrix(0.31192224536415997, 0, 0, 0.31192224536415997, -360.8079037222148, -22.923850632252616)"/>
    <path d="M 515.5 188 L 521 191.5 L 518.5 197 L 516.5 198 L 512 194.5 L 513.5 189 L 515.5 188 Z " style="fill: rgb(94, 68, 49); stroke: rgb(119, 194, 184);" transform="matrix(0.31192224536415997, 0, 0, 0.31192224536415997, -360.8079037222148, -22.923850632252616)"/>
    <path d="M 206.5 189 L 212 191 L 213 196.5 L 212 199 L 206.5 201 L 203 198.5 L 202 192.5 L 206.5 189 Z " style="fill: rgb(44, 94, 87); stroke: rgb(119, 194, 184);" transform="matrix(0.31192224536415997, 0, 0, 0.31192224536415997, -360.8079037222148, -22.923850632252616)"/>
    <path d="M 592.5 189 L 599 192.5 Q 600.25 198.75 596.5 200 L 592.5 201 L 589 199 L 588 193.5 L 590.5 190 L 592.5 189 Z " style="fill: rgb(44, 94, 87); stroke: rgb(119, 194, 184);" transform="matrix(0.31192224536415997, 0, 0, 0.31192224536415997, -360.8079037222148, -22.923850632252616)"/>
    <path d="M 464 190 L 471.5 191 L 517.5 211 Q 531.641 215.859 540 226.5 L 542 234.5 L 537.5 238 L 531 232.5 L 526.5 227 L 519.5 237 L 507.5 239 L 496.5 235 L 480.5 224 L 474.5 223 L 468 227.5 L 469 234 L 472.5 235 L 474.5 235 Q 494.953 235.047 504 246.5 Q 509.333 251.167 508 262.5 L 501.5 272 L 493.5 274 L 490 271.5 L 491.5 269 L 497 264.5 L 498 257.5 L 491.5 249 Q 482.25 243.25 465.5 245 L 457 251.5 Q 452.95 255.95 454 265.5 L 464 290 L 455 282.5 Q 445.825 273.675 447 254.5 L 454.5 240 L 460 236.5 L 458 224.5 L 464.5 216 L 477.5 213 L 487.5 216 L 509.5 229 L 515 221.5 L 464 193 L 464 190 Z " style="fill: rgb(94, 68, 49); stroke: rgb(119, 194, 184);" transform="matrix(0.31192224536415997, 0, 0, 0.31192224536415997, -360.8079037222148, -22.923850632252616)"/>
    <path d="M 282.5 198 L 288 200.5 L 289 202.5 L 285.5 207 L 279 204.5 L 280.5 199 L 282.5 198 Z " style="stroke: rgb(119, 194, 184); fill: rgb(94, 68, 49);" transform="matrix(0.31192224536415997, 0, 0, 0.31192224536415997, -360.8079037222148, -22.923850632252616)"/>
    <path d="M 322.5 204 L 329 205.5 L 330 209.5 L 327.5 213 L 324 214 Q 340.817 237.823 353 267.5 L 349.5 269 L 344 261 Q 340.333 259.65 342 265.5 L 330.5 283 L 327.5 285 Q 320.167 293.167 302.5 291 Q 291.558 287.942 286 279.5 Q 281.2 273.3 283 260.5 L 292 244.5 L 292 239.5 L 286.5 237 L 263.5 246 L 262 242.5 L 322.5 204 Z M 312 221 L 299 229 L 302 234 Q 303 249 297 257 Q 295 268 300 273 L 311 280 L 326 278 Q 333 274 334 264 L 329 261 L 324 256 L 326 251 L 332 248 Q 325 232 312 221 Z " style="fill: rgb(94, 68, 49); stroke: rgb(119, 194, 184);" transform="matrix(0.31192224536415997, 0, 0, 0.31192224536415997, -360.8079037222148, -22.923850632252616)"/>
    <path d="M 197.5 218 Q 204.75 216.75 206 221.5 L 207 225.5 L 202.5 231 L 194 227.5 L 193 223.5 L 197.5 218 Z " style="fill: rgb(44, 94, 87); stroke: rgb(119, 194, 184);" transform="matrix(0.31192224536415997, 0, 0, 0.31192224536415997, -360.8079037222148, -22.923850632252616)"/>
    <path d="M 598.5 218 Q 606.75 216.75 608 222.5 L 604.5 230 L 599.5 231 L 595 227.5 Q 593.5 219.5 598.5 218 Z " style="fill: rgb(44, 94, 87); stroke: rgb(119, 194, 184);" transform="matrix(0.31192224536415997, 0, 0, 0.31192224536415997, -360.8079037222148, -22.923850632252616)"/>
    <g>
      <path d="M -236.507 15.755 C -234.928 15.527 -233.94 15.891 -233.544 16.846 L -232.92 19.342 L -234.635 21.369 L -236.195 21.681 L -238.534 19.965 L -238.846 18.406 L -237.131 16.066 L -236.507 15.755 Z" style="fill: rgb(255, 255, 255); stroke: rgb(119, 194, 184);"/>
      <path d="M -309.185 57.552 C -307.53 57.249 -306.438 57.509 -305.91 58.332 L -305.286 61.451 L -305.91 62.543 L -308.873 63.167 L -310.276 62.543 L -310.9 59.268 L -310.121 58.176 L -309.185 57.552 Z" style="fill: rgb(255, 255, 255); stroke: rgb(119, 194, 184);"/>
      <path d="M -164.765 57.552 C -162.887 57.234 -161.691 57.598 -161.178 58.644 L -160.866 61.451 L -161.646 62.543 L -164.453 63.167 L -166.168 61.763 L -166.48 59.58 L -164.765 57.552 Z" style="fill: rgb(255, 255, 255); stroke: rgb(119, 194, 184);"/>
      <path d="M -308.873 140.835 L -306.222 141.147 C -305.39 141.736 -305.078 142.932 -305.286 144.734 L -305.91 145.826 L -308.873 146.45 L -310.9 144.734 C -311.181 142.79 -310.713 141.594 -309.497 141.147 L -308.873 140.835 Z" style="fill: rgb(255, 255, 255); stroke: rgb(119, 194, 184);"/>
      <path d="M -164.453 140.835 C -162.795 140.633 -161.703 140.997 -161.178 141.927 L -160.866 144.734 L -161.957 146.138 L -164.453 146.45 L -165.857 145.826 L -166.48 142.863 L -165.077 141.147 L -164.453 140.835 Z" style="fill: rgb(255, 255, 255); stroke: rgb(119, 194, 184);"/>
      <path d="M -235.883 182.321 L -233.232 184.037 L -232.92 185.908 L -234.323 187.936 L -236.507 188.247 L -238.534 186.844 C -239.002 184.712 -238.638 183.413 -237.443 182.945 L -235.883 182.321 Z" style="fill: rgb(255, 255, 255); stroke: rgb(119, 194, 184);"/>
    </g>
    <path d="M 389.5 303 Q 414.5 301 431.5 307 Q 457.165 316.534 474 334 Q 497.493 357.795 499 404.5 Q 494.48 451.98 465.5 475 Q 441.5 499 393.5 499 Q 349.861 494.139 328 467.5 Q 313.171 451.829 306 428.5 Q 300.706 412.294 303 388.5 Q 310.124 346.624 337.5 325 Q 356.894 307.394 389.5 303 Z M 393 308 Q 361 312 342 329 L 328 345 L 325 346 Q 312 363 308 389 Q 306 409 310 424 Q 316 446 330 462 Q 351 489 395 494 Q 436 494 459 474 Q 489 452 494 404 Q 492 358 468 336 Q 445 308 393 308 Z " style="fill: rgb(44, 94, 87); stroke: rgb(119, 194, 184);" transform="matrix(0.31192224536415997, 0, 0, 0.31192224536415997, -360.8079037222148, -22.923850632252616)"/>
    <path d="M 145.5 309 Q 152 308 153 312.5 L 154 317.5 L 152 321 L 144.5 322 Q 139.75 320.75 141 313.5 L 143.5 310 L 145.5 309 Z " style="fill: rgb(44, 94, 87); stroke: rgb(119, 194, 184);" transform="matrix(0.31192224536415997, 0, 0, 0.31192224536415997, -360.8079037222148, -22.923850632252616)"/>
    <path d="M 651.5 309 Q 658.75 307.75 660 312.5 L 661 316.5 L 656.5 322 L 648 319.5 L 647 314.5 L 651.5 309 Z " style="fill: rgb(44, 94, 87); stroke: rgb(119, 194, 184);" transform="matrix(0.31192224536415997, 0, 0, 0.31192224536415997, -360.8079037222148, -22.923850632252616)"/>
    <path d="M 399.5 310 L 408 312 L 406.5 316 L 393 314.5 L 394.5 311 L 399.5 310 Z " style="fill: rgb(44, 94, 87); stroke: rgb(119, 194, 184);" transform="matrix(0.31192224536415997, 0, 0, 0.31192224536415997, -360.8079037222148, -22.923850632252616)"/>
    <path d="M 378.5 313 Q 385.833 310.375 384 316.5 L 376.5 319 L 375 315.5 L 378.5 313 Z " style="fill: rgb(44, 94, 87); stroke: rgb(119, 194, 184);" transform="matrix(0.31192224536415997, 0, 0, 0.31192224536415997, -360.8079037222148, -22.923850632252616)"/>
    <path d="M 417.5 313 L 425 314 L 423.5 319 L 416 317 L 417.5 313 Z " style="fill: rgb(44, 94, 87); stroke: rgb(119, 194, 184);" transform="matrix(0.31192224536415997, 0, 0, 0.31192224536415997, -360.8079037222148, -22.923850632252616)"/>
    <path d="M 435.5 318 L 443 321.5 L 440.5 326 L 433 321.5 L 434.5 319 L 435.5 318 Z " style="fill: rgb(44, 94, 87); stroke: rgb(119, 194, 184);" transform="matrix(0.31192224536415997, 0, 0, 0.31192224536415997, -360.8079037222148, -22.923850632252616)"/>
    <path d="M 362.5 319 Q 369.25 317 367 323 L 360.5 326 L 358 322.5 L 362.5 319 Z " style="fill: rgb(44, 94, 87); stroke: rgb(119, 194, 184);" transform="matrix(0.31192224536415997, 0, 0, 0.31192224536415997, -360.8079037222148, -22.923850632252616)"/>
    <path d="M 451.5 327 L 457 330.5 L 458 333.5 L 454.5 335 L 449 332 L 450.5 328 L 451.5 327 Z " style="fill: rgb(44, 94, 87); stroke: rgb(119, 194, 184);" transform="matrix(0.31192224536415997, 0, 0, 0.31192224536415997, -360.8079037222148, -22.923850632252616)"/>
    <path d="M 347.5 328 Q 352.75 326.25 351 331.5 L 345.5 336 L 343 335 L 345.5 329 L 347.5 328 Z " style="fill: rgb(44, 94, 87); stroke: rgb(119, 194, 184);" transform="matrix(0.31192224536415997, 0, 0, 0.31192224536415997, -360.8079037222148, -22.923850632252616)"/>
    <path d="M 124.5 331 L 131 334.5 L 130 341 L 123.5 342 Q 119 341 120 334.5 L 124.5 331 Z " style="fill: rgb(44, 94, 87); stroke: rgb(119, 194, 184);" transform="matrix(0.31192224536415997, 0, 0, 0.31192224536415997, -360.8079037222148, -22.923850632252616)"/>
    <path d="M 673.5 331 L 681 334.5 Q 682 342 676.5 343 L 672 342 L 670 335.5 L 673.5 331 Z " style="fill: rgb(44, 94, 87); stroke: rgb(119, 194, 184);" transform="matrix(0.31192224536415997, 0, 0, 0.31192224536415997, -360.8079037222148, -22.923850632252616)"/>
    <path d="M 437.5 339 L 444 340 L 445 344.5 L 436.5 357 Q 428.3 364.8 410.5 363 L 396 355 L 397.5 352 Q 404.348 358.152 417.5 358 Q 426.75 356.25 431 349.5 L 437.5 339 Z " style="fill: rgb(242, 242, 242); stroke: rgb(119, 194, 184);" transform="matrix(0.31192224536415997, 0, 0, 0.31192224536415997, -360.8079037222148, -22.923850632252616)"/>
    <path d="M 464.5 339 L 469 341.5 L 471 345.5 L 467.5 348 L 463 340.5 L 464.5 339 Z " style="fill: rgb(44, 94, 87); stroke: rgb(119, 194, 184);" transform="matrix(0.31192224536415997, 0, 0, 0.31192224536415997, -360.8079037222148, -22.923850632252616)"/>
    <path d="M 333.5 340 L 338 341.5 L 336.5 345 L 331.5 348 L 330 344.5 L 333.5 340 Z " style="fill: rgb(44, 94, 87); stroke: rgb(119, 194, 184);" transform="matrix(0.31192224536415997, 0, 0, 0.31192224536415997, -360.8079037222148, -22.923850632252616)"/>
    <path d="M 415.5 341 L 422 345.5 L 418.5 352 L 415.5 353 L 411 349.5 L 415.5 341 Z " style="fill: rgb(242, 242, 242); stroke: rgb(119, 194, 184);" transform="matrix(0.31192224536415997, 0, 0, 0.31192224536415997, -360.8079037222148, -22.923850632252616)"/>
    <path d="M 103.5 354 L 109 356.5 L 106.5 363 L 100 360.5 L 103.5 354 Z " style="fill: rgb(44, 94, 87); stroke: rgb(119, 194, 184);" transform="matrix(0.31192224536415997, 0, 0, 0.31192224536415997, -360.8079037222148, -22.923850632252616)"/>
    <path d="M 324.5 354 L 327 355.5 L 322.5 364 L 320 363 L 324.5 354 Z " style="fill: rgb(44, 94, 87); stroke: rgb(119, 194, 184);" transform="matrix(0.31192224536415997, 0, 0, 0.31192224536415997, -360.8079037222148, -22.923850632252616)"/>
    <path d="M 474 354 L 479 355.5 L 481 360.5 L 480 363 L 474 359.5 L 473 356.5 L 474 354 Z " style="fill: rgb(44, 94, 87); stroke: rgb(119, 194, 184);" transform="matrix(0.31192224536415997, 0, 0, 0.31192224536415997, -360.8079037222148, -22.923850632252616)"/>
    <path d="M 695.5 354 L 701 357.5 L 698.5 363 L 692 361.5 L 693.5 355 L 695.5 354 Z " style="fill: rgb(44, 94, 87); stroke: rgb(119, 194, 184);" transform="matrix(0.31192224536415997, 0, 0, 0.31192224536415997, -360.8079037222148, -22.923850632252616)"/>
    <path d="M 380.5 361 Q 396.25 360.25 402 369.5 Q 407.025 374.475 407 384.5 L 404 395 Q 414.045 395.018 418 402.5 Q 425.735 411.765 425 429.5 Q 421.74 446.24 410.5 455 Q 401.986 463.486 384.5 463 Q 369.302 460.198 361 450.5 L 348.5 434 L 339.5 432 L 337 437.5 L 341.5 439 L 343.5 438 Q 347.5 440.5 341.5 443 L 334.5 444 Q 328 442 330 431.5 L 335.5 425 L 343.5 424 L 357 433.5 L 368.5 448 Q 375.9 454.1 390.5 453 L 405 446.5 Q 411.986 438.486 413 424.5 L 408 411 Q 403.228 406.178 392.5 406 L 382 408 L 382 404.5 L 391 395.5 L 395 384.5 L 389.5 375 L 382.5 374 L 378 376 L 376 379.5 L 374 386.5 L 375 400.5 L 372 406 L 363.5 408 L 359 404.5 Q 353 398.5 356 383.5 L 366.5 367 L 380.5 361 Z " style="fill: rgb(242, 242, 242); stroke: rgb(119, 194, 184);" transform="matrix(0.31192224536415997, 0, 0, 0.31192224536415997, -360.8079037222148, -22.923850632252616)"/>
    <path d="M 187.5 362 L 193 364.5 L 193 381.5 L 194.5 382 Q 200.462 376.462 213.5 378 L 220 382.5 L 222 392.5 L 220 401.5 L 224 411 L 237.5 415 Q 251.594 409.594 260 398.5 L 267 385 Q 271.125 383.333 270 387.5 Q 265.549 406.549 253.5 418 Q 245 427.5 224.5 425 L 208 413.5 L 202.5 394 L 194 397.5 L 193 408.5 L 194 431.5 Q 194.563 439.563 189.5 442 L 185 433.5 L 182 379.5 L 183 377.5 L 182 374.5 L 187.5 362 Z " style="fill: rgb(94, 68, 49); stroke: rgb(119, 194, 184);" transform="matrix(0.31192224536415997, 0, 0, 0.31192224536415997, -360.8079037222148, -22.923850632252616)"/>
    <path d="M 455.5 363 Q 466.25 363.25 470 370.5 L 474 381.5 Q 473.104 396.104 465.5 404 Q 460.745 409.745 449.5 409 L 442 403.5 L 440 393.5 L 444.5 388 L 449 387 L 446 396.5 L 448 400 L 457.5 401 Q 467.431 396.431 466 380.5 L 464 376 L 453.5 373 L 424.5 390 L 408.5 394 L 407 391.5 Q 424.248 387.748 433 375.5 L 436.5 371 Q 443.392 364.392 455.5 363 Z " style="fill: rgb(242, 242, 242); stroke: rgb(119, 194, 184);" transform="matrix(0.31192224536415997, 0, 0, 0.31192224536415997, -360.8079037222148, -22.923850632252616)"/>
    <path d="M 558.5 364 L 568 367.5 L 567 372 L 560.5 373 L 556.5 372 L 547 378.5 Q 538.667 384.667 540 400.5 Q 543.05 415.45 554.5 422 L 565.5 425 L 578 420 L 581 411.5 L 578 398.5 L 580.5 397 L 592.5 406 L 599.5 407 L 605 403.5 L 606 397.5 L 600 387 L 596.5 386 Q 593.625 390.125 585.5 389 Q 579 387 581 376.5 Q 584.159 369.659 595.5 371 L 611 381.5 Q 617.443 387.057 616 400.5 L 608.5 413 Q 602.936 419.786 590 418 Q 589.498 427.926 581.5 432 L 565.5 436 L 546 429 L 542 423.5 Q 530.914 413.586 533 390.5 Q 536.969 376.969 547.5 370 L 558.5 364 Z " style="fill: rgb(94, 68, 49); stroke: rgb(119, 194, 184);" transform="matrix(0.31192224536415997, 0, 0, 0.31192224536415997, -360.8079037222148, -22.923850632252616)"/>
    <path d="M 482.5 370 L 486 371.5 L 488 376.5 L 487 380 L 483 378.5 L 481 371.5 L 482.5 370 Z " style="fill: rgb(44, 94, 87); stroke: rgb(119, 194, 184);" transform="matrix(0.31192224536415997, 0, 0, 0.31192224536415997, -360.8079037222148, -22.923850632252616)"/>
    <path d="M 84.5 371 L 89 373.5 L 87.5 378 L 82 375.5 L 84.5 371 Z " style="fill: rgb(44, 94, 87); stroke: rgb(119, 194, 184);" transform="matrix(0.31192224536415997, 0, 0, 0.31192224536415997, -360.8079037222148, -22.923850632252616)"/>
    <path d="M 316.5 371 L 320 372.5 L 318 380 Q 311.6 382.292 314 374.5 L 316.5 371 Z " style="fill: rgb(44, 94, 87); stroke: rgb(119, 194, 184);" transform="matrix(0.31192224536415997, 0, 0, 0.31192224536415997, -360.8079037222148, -22.923850632252616)"/>
    <path d="M 714.5 371 L 719 372.5 L 716.5 378 L 712 375.5 L 714.5 371 Z " style="fill: rgb(44, 94, 87); stroke: rgb(119, 194, 184);" transform="matrix(0.31192224536415997, 0, 0, 0.31192224536415997, -360.8079037222148, -22.923850632252616)"/>
    <path d="M 158.5 379 Q 169.188 378.813 172 386.5 L 176 402.5 L 170 415 L 167.5 416 L 167 413.5 Q 171.923 408.923 171 398.5 L 163.5 389 L 156 384.5 L 158.5 379 Z " style="fill: rgb(94, 68, 49); stroke: rgb(119, 194, 184);" transform="matrix(0.31192224536415997, 0, 0, 0.31192224536415997, -360.8079037222148, -22.923850632252616)"/>
    <path d="M 629.5 385 L 631 387.5 Q 624.077 392.077 626 405.5 L 634.5 417 L 642 422.5 L 639.5 427 L 628 423 Q 618.9 416.75 621 398.5 L 629.5 385 Z " style="fill: rgb(94, 68, 49); stroke: rgb(119, 194, 184);" transform="matrix(0.31192224536415997, 0, 0, 0.31192224536415997, -360.8079037222148, -22.923850632252616)"/>
    <path d="M 64.5 386 L 69 387.5 L 66.5 392 L 63 390.5 L 64.5 386 Z " style="fill: rgb(44, 94, 87); stroke: rgb(119, 194, 184);" transform="matrix(0.31192224536415997, 0, 0, 0.31192224536415997, -360.8079037222148, -22.923850632252616)"/>
    <path d="M 733.5 386 L 738 387.5 L 736.5 392 L 732 389.5 L 733.5 386 Z " style="fill: rgb(44, 94, 87); stroke: rgb(119, 194, 184);" transform="matrix(0.31192224536415997, 0, 0, 0.31192224536415997, -360.8079037222148, -22.923850632252616)"/>
    <path d="M 486.5 388 L 490 389.5 L 491 394.5 L 490 397 L 486 395.5 L 485 389.5 L 486.5 388 Z " style="fill: rgb(44, 94, 87); stroke: rgb(119, 194, 184);" transform="matrix(0.31192224536415997, 0, 0, 0.31192224536415997, -360.8079037222148, -22.923850632252616)"/>
    <path d="M 312.5 389 L 316 390.5 L 315 398 L 311 396.5 L 312.5 389 Z " style="fill: rgb(44, 94, 87); stroke: rgb(119, 194, 184);" transform="matrix(0.31192224536415997, 0, 0, 0.31192224536415997, -360.8079037222148, -22.923850632252616)"/>
    <path d="M 163.5 395 L 168 397.5 L 165.5 403 L 160 400.5 L 161 396 L 163.5 395 Z " style="fill: rgb(94, 68, 49); stroke: rgb(119, 194, 184);" transform="matrix(0.31192224536415997, 0, 0, 0.31192224536415997, -360.8079037222148, -22.923850632252616)"/>
    <path d="M 44 398 L 48 399.5 L 49 401.5 L 45.5 404 L 43 400.5 L 44 398 Z " style="fill: rgb(44, 94, 87); stroke: rgb(119, 194, 184);" transform="matrix(0.31192224536415997, 0, 0, 0.31192224536415997, -360.8079037222148, -22.923850632252616)"/>
    <path d="M 754.5 398 L 758 400.5 L 755.5 404 L 752 401.5 L 754.5 398 Z " style="fill: rgb(44, 94, 87); stroke: rgb(119, 194, 184);" transform="matrix(0.31192224536415997, 0, 0, 0.31192224536415997, -360.8079037222148, -22.923850632252616)"/>
    <path d="M 631.5 399 L 637 400 L 638 403.5 L 634.5 408 L 628 404.5 L 631.5 399 Z " style="stroke: rgb(119, 194, 184); fill: rgb(94, 68, 49);" transform="matrix(0.31192224536415997, 0, 0, 0.31192224536415997, -360.8079037222148, -22.923850632252616)"/>
    <path d="M 486 406 L 490 407.5 Q 491.5 414.5 487.5 416 L 485 414.5 L 486 406 Z " style="fill: rgb(44, 94, 87); stroke: rgb(119, 194, 184);" transform="matrix(0.31192224536415997, 0, 0, 0.31192224536415997, -360.8079037222148, -22.923850632252616)"/>
    <path d="M 312.5 407 L 316 408.5 L 317 413.5 L 316 416 L 312 414.5 L 311 408.5 L 312.5 407 Z " style="fill: rgb(44, 94, 87); stroke: rgb(119, 194, 184);" transform="matrix(0.31192224536415997, 0, 0, 0.31192224536415997, -360.8079037222148, -22.923850632252616)"/>
    <path d="M 64.5 410 L 69 411.5 L 67.5 416 L 63 414.5 L 64.5 410 Z " style="fill: rgb(44, 94, 87); stroke: rgb(119, 194, 184);" transform="matrix(0.31192224536415997, 0, 0, 0.31192224536415997, -360.8079037222148, -22.923850632252616)"/>
    <path d="M 734.5 410 L 738 411.5 L 736.5 416 L 733 414.5 L 733 412.5 L 734.5 410 Z " style="fill: rgb(44, 94, 87); stroke: rgb(119, 194, 184);" transform="matrix(0.31192224536415997, 0, 0, 0.31192224536415997, -360.8079037222148, -22.923850632252616)"/>
    <path d="M 84.5 424 L 89 426.5 L 86.5 431 L 81 427.5 L 82 425 L 84.5 424 Z " style="fill: rgb(44, 94, 87); stroke: rgb(119, 194, 184);" transform="matrix(0.31192224536415997, 0, 0, 0.31192224536415997, -360.8079037222148, -22.923850632252616)"/>
    <path d="M 483.5 424 L 487 425.5 L 484.5 433 L 481 431.5 L 481 429.5 L 483.5 424 Z " style="fill: rgb(44, 94, 87); stroke: rgb(119, 194, 184);" transform="matrix(0.31192224536415997, 0, 0, 0.31192224536415997, -360.8079037222148, -22.923850632252616)"/>
    <path d="M 714.5 424 L 718 425.5 L 719 428.5 L 714.5 431 L 712 426.5 L 714.5 424 Z " style="fill: rgb(44, 94, 87); stroke: rgb(119, 194, 184);" transform="matrix(0.31192224536415997, 0, 0, 0.31192224536415997, -360.8079037222148, -22.923850632252616)"/>
    <path d="M 315 425 L 319 426.5 L 321 432.5 L 317 434 L 315 425 Z " style="fill: rgb(44, 94, 87); stroke: rgb(119, 194, 184);" transform="matrix(0.31192224536415997, 0, 0, 0.31192224536415997, -360.8079037222148, -22.923850632252616)"/>
    <path d="M 104.5 438 L 109 441.5 L 108 447 L 103.5 448 L 100 441.5 L 104.5 438 Z " style="fill: rgb(44, 94, 87); stroke: rgb(119, 194, 184);" transform="matrix(0.31192224536415997, 0, 0, 0.31192224536415997, -360.8079037222148, -22.923850632252616)"/>
    <path d="M 694.5 439 L 701 441.5 L 698.5 447 L 696.5 448 L 692 444.5 L 694.5 439 Z " style="fill: rgb(44, 94, 87); stroke: rgb(119, 194, 184);" transform="matrix(0.31192224536415997, 0, 0, 0.31192224536415997, -360.8079037222148, -22.923850632252616)"/>
    <path d="M 323.5 441 L 328 443.5 L 329 448.5 L 325.5 450 L 321 443.5 L 323.5 441 Z " style="fill: rgb(44, 94, 87); stroke: rgb(119, 194, 184);" transform="matrix(0.31192224536415997, 0, 0, 0.31192224536415997, -360.8079037222148, -22.923850632252616)"/>
    <path d="M 475.5 441 L 480 442.5 L 476.5 449 L 473 450 L 472 446.5 L 475.5 441 Z " style="fill: rgb(44, 94, 87); stroke: rgb(119, 194, 184);" transform="matrix(0.31192224536415997, 0, 0, 0.31192224536415997, -360.8079037222148, -22.923850632252616)"/>
    <path d="M 333.5 456 L 340 460.5 Q 341.75 465.75 336.5 464 L 332 457.5 L 333.5 456 Z " style="fill: rgb(44, 94, 87); stroke: rgb(119, 194, 184);" transform="matrix(0.31192224536415997, 0, 0, 0.31192224536415997, -360.8079037222148, -22.923850632252616)"/>
    <path d="M 465.5 456 L 470 457.5 L 467 463 L 463.5 464 L 462 460.5 L 465.5 456 Z " style="fill: rgb(44, 94, 87); stroke: rgb(119, 194, 184);" transform="matrix(0.31192224536415997, 0, 0, 0.31192224536415997, -360.8079037222148, -22.923850632252616)"/>
    <path d="M 123.5 460 L 131 462.5 L 130 469 L 125.5 471 L 121 468.5 L 120 463.5 L 121 461 L 123.5 460 Z " style="fill: rgb(44, 94, 87); stroke: rgb(119, 194, 184);" transform="matrix(0.31192224536415997, 0, 0, 0.31192224536415997, -360.8079037222148, -22.923850632252616)"/>
    <path d="M 673.5 460 L 680 461 L 681 466.5 L 678.5 470 L 675.5 471 L 670 467.5 Q 669 461 673.5 460 Z " style="fill: rgb(44, 94, 87); stroke: rgb(119, 194, 184);" transform="matrix(0.31192224536415997, 0, 0, 0.31192224536415997, -360.8079037222148, -22.923850632252616)"/>
    <path d="M 347.5 468 L 354 472.5 L 352.5 476 L 346 472.5 L 345 470.5 L 347.5 468 Z " style="fill: rgb(44, 94, 87); stroke: rgb(119, 194, 184);" transform="matrix(0.31192224536415997, 0, 0, 0.31192224536415997, -360.8079037222148, -22.923850632252616)"/>
    <path d="M 452.5 468 L 456 469.5 L 453.5 474 L 448 475 L 450.5 469 L 452.5 468 Z " style="fill: rgb(44, 94, 87); stroke: rgb(119, 194, 184);" transform="matrix(0.31192224536415997, 0, 0, 0.31192224536415997, -360.8079037222148, -22.923850632252616)"/>
    <path d="M 363.5 477 L 370 480 L 368.5 485 L 361 481.5 L 363.5 477 Z " style="fill: rgb(44, 94, 87); stroke: rgb(119, 194, 184);" transform="matrix(0.31192224536415997, 0, 0, 0.31192224536415997, -360.8079037222148, -22.923850632252616)"/>
    <path d="M 437.5 477 L 441 479.5 L 438.5 483 L 434.5 485 L 431 482.5 L 432.5 480 L 437.5 477 Z " style="fill: rgb(44, 94, 87); stroke: rgb(119, 194, 184);" transform="matrix(0.31192224536415997, 0, 0, 0.31192224536415997, -360.8079037222148, -22.923850632252616)"/>
    <path d="M 145.5 479 L 153 482.5 L 154 488.5 Q 151.75 493.25 144.5 493 Q 139.5 491.5 141 483.5 L 143.5 480 L 145.5 479 Z " style="fill: rgb(44, 94, 87); stroke: rgb(119, 194, 184);" transform="matrix(0.31192224536415997, 0, 0, 0.31192224536415997, -360.8079037222148, -22.923850632252616)"/>
    <path d="M 650.5 480 Q 658.5 478.5 660 483.5 L 661 486.5 L 657.5 492 L 652.5 493 L 648 489.5 Q 646.25 481.75 650.5 480 Z " style="fill: rgb(44, 94, 87); stroke: rgb(119, 194, 184);" transform="matrix(0.31192224536415997, 0, 0, 0.31192224536415997, -360.8079037222148, -22.923850632252616)"/>
    <path d="M 379.5 484 L 388 486.5 L 385.5 490 L 378 486.5 L 379.5 484 Z " style="fill: rgb(44, 94, 87); stroke: rgb(119, 194, 184);" transform="matrix(0.31192224536415997, 0, 0, 0.31192224536415997, -360.8079037222148, -22.923850632252616)"/>
    <path d="M 416.5 484 L 424 485.5 L 422.5 488 L 416.5 490 L 414 486.5 L 416.5 484 Z " style="fill: rgb(44, 94, 87); stroke: rgb(119, 194, 184);" transform="matrix(0.31192224536415997, 0, 0, 0.31192224536415997, -360.8079037222148, -22.923850632252616)"/>
    <path d="M 397.5 486 L 406 487.5 L 404.5 491 L 396 489.5 L 397.5 486 Z " style="fill: rgb(44, 94, 87); stroke: rgb(119, 194, 184);" transform="matrix(0.31192224536415997, 0, 0, 0.31192224536415997, -360.8079037222148, -22.923850632252616)"/>
    <path d="M 465.5 515 L 468 516.5 L 455 534.5 L 454 547.5 L 461.5 559 Q 468.9 565.1 483.5 564 L 491 560 L 494 549.5 L 491 543.5 L 493.5 543 L 505.5 550 L 514.5 550 L 517 549 Q 520.333 546.167 519 537.5 L 512.5 530 L 498 522.5 Q 497 516 501.5 515 Q 518.25 515.25 524 526.5 Q 528.909 534.091 527 548.5 L 520.5 559 L 509.5 561 L 505.5 560 L 496.5 574 L 488 578.5 L 489 583 L 536.5 558 L 541 558 L 538.5 563 L 488.5 596 Q 483.7 600.2 473.5 599 L 471 593.5 L 482 587.5 L 475.5 577 Q 458.361 573.639 450 561.5 Q 444.571 554.929 446 541.5 Q 450.841 524.841 463.5 516 L 465.5 515 Z " style="stroke: rgb(119, 194, 184); fill: rgb(94, 68, 49);" transform="matrix(0.31192224536415997, 0, 0, 0.31192224536415997, -360.8079037222148, -22.923850632252616)"/>
    <path d="M 305.5 519 L 308 520.5 L 306 531 Q 313.375 527.7 326.5 529 L 341 538.5 Q 347.153 544.847 346 558.5 L 338.5 572 Q 332.328 578.328 319.5 578 Q 303.438 576.562 296 566.5 L 291.5 561 L 286 569.5 L 329 593.5 L 330 597.5 L 329 600 L 323.5 601 L 268 570 L 266 568 L 266 563.5 L 270.5 561 L 276.5 564 L 305.5 519 Z M 310 535 L 307 541 L 302 543 L 299 549 L 303 560 L 319 568 Q 328 569 332 565 L 336 559 Q 338 548 333 545 Q 326 535 310 535 Z " style="fill: rgb(94, 68, 49); stroke: rgb(119, 194, 184);" transform="matrix(0.31192224536415997, 0, 0, 0.31192224536415997, -360.8079037222148, -22.923850632252616)"/>
    <path d="M 198.5 571 L 205 572 L 207 579.5 Q 205.75 585.25 197.5 584 L 193 576.5 L 196.5 572 L 198.5 571 Z " style="fill: rgb(44, 94, 87); stroke: rgb(119, 194, 184);" transform="matrix(0.31192224536415997, 0, 0, 0.31192224536415997, -360.8079037222148, -22.923850632252616)"/>
    <path d="M 599.5 571 L 608 575.5 Q 609 582 604.5 583 L 598.5 584 Q 593.5 582.5 595 574.5 L 599.5 571 Z " style="fill: rgb(44, 94, 87); stroke: rgb(119, 194, 184);" transform="matrix(0.31192224536415997, 0, 0, 0.31192224536415997, -360.8079037222148, -22.923850632252616)"/>
    <path d="M 517.5 585 Q 525.458 583.542 528 587.5 Q 528.417 590.75 520.5 589 L 511 594.5 L 508 611 L 502.5 612 Q 498.75 608.75 500 600.5 L 509.5 588 L 517.5 585 Z " style="stroke: rgb(119, 194, 184); fill: rgb(94, 68, 49);" transform="matrix(0.31192224536415997, 0, 0, 0.31192224536415997, -360.8079037222148, -22.923850632252616)"/>
    <path d="M 278.5 589 Q 289.875 590.125 295 597.5 L 298 604.5 L 295 604.5 L 289.5 597 L 279.5 595 L 268.5 600 L 266 596.5 L 269.5 592 L 278.5 589 Z " style="stroke: rgb(119, 194, 184); fill: rgb(94, 68, 49);" transform="matrix(0.31192224536415997, 0, 0, 0.31192224536415997, -360.8079037222148, -22.923850632252616)"/>
    <path d="M 514.5 595 L 521 596.5 Q 522 603 517.5 604 L 512 601.5 L 511 597.5 L 514.5 595 Z " style="stroke: rgb(119, 194, 184); fill: rgb(94, 68, 49);" transform="matrix(0.31192224536415997, 0, 0, 0.31192224536415997, -360.8079037222148, -22.923850632252616)"/>
    <path d="M -273.002 163.294 L -270.974 164.074 L -271.754 165.789 L -272.69 166.101 L -273.782 164.074 L -273.002 163.294 Z" style="stroke: rgb(119, 194, 184); stroke-opacity: 0.17; fill: rgb(94, 68, 49);"/>
    <path d="M 205.5 601 L 212 603 L 213 608.5 Q 211.75 613.25 204.5 612 L 202 604.5 L 205.5 601 Z " style="fill: rgb(44, 94, 87); stroke: rgb(119, 194, 184);" transform="matrix(0.31192224536415997, 0, 0, 0.31192224536415997, -360.8079037222148, -22.923850632252616)"/>
    <path d="M 592.5 601 L 599 604.5 L 596.5 612 L 589 611 L 588 605.5 L 592.5 601 Z " style="fill: rgb(44, 94, 87); stroke: rgb(119, 194, 184);" transform="matrix(0.31192224536415997, 0, 0, 0.31192224536415997, -360.8079037222148, -22.923850632252616)"/>
    <path d="M 584.5 631 L 589 633.5 L 590 636.5 L 587.5 640 L 584.5 641 L 581 638.5 L 580 635.5 L 581 633 L 584.5 631 Z " style="fill: rgb(44, 94, 87); stroke: rgb(119, 194, 184);" transform="matrix(0.31192224536415997, 0, 0, 0.31192224536415997, -360.8079037222148, -22.923850632252616)"/>
    <path d="M 214.5 632 L 220 633 L 221 636.5 L 218.5 640 L 212 638.5 L 211 636.5 L 214.5 632 Z " style="fill: rgb(44, 94, 87); stroke: rgb(119, 194, 184);" transform="matrix(0.31192224536415997, 0, 0, 0.31192224536415997, -360.8079037222148, -22.923850632252616)"/>
    <path d="M 346.5 656 L 354 659.5 L 355 663.5 L 350.5 669 L 347.5 670 L 343 668 L 341 661.5 L 344.5 657 L 346.5 656 Z " style="fill: rgb(44, 94, 87); stroke: rgb(119, 194, 184);" transform="matrix(0.31192224536415997, 0, 0, 0.31192224536415997, -360.8079037222148, -22.923850632252616)"/>
    <path d="M 451.5 656 L 459 658.5 L 460 665.5 Q 458.75 670.25 451.5 669 L 448 666.5 L 447 660.5 L 451.5 656 Z " style="fill: rgb(44, 94, 87); stroke: rgb(119, 194, 184);" transform="matrix(0.31192224536415997, 0, 0, 0.31192224536415997, -360.8079037222148, -22.923850632252616)"/>
    <path d="M 218.5 657 L 224 659.5 L 222.5 663 L 218.5 664 L 216 660.5 L 218.5 657 Z " style="fill: rgb(44, 94, 87); stroke: rgb(119, 194, 184);" transform="matrix(0.31192224536415997, 0, 0, 0.31192224536415997, -360.8079037222148, -22.923850632252616)"/>
    <path d="M 579.5 657 L 585 659.5 L 582.5 664 L 578 662.5 L 577 659.5 L 579.5 657 Z " style="fill: rgb(44, 94, 87); stroke: rgb(119, 194, 184);" transform="matrix(0.31192224536415997, 0, 0, 0.31192224536415997, -360.8079037222148, -22.923850632252616)"/>
    <path d="M 318.5 665 L 324 668.5 Q 325.25 674.75 321.5 676 L 318.5 677 L 314 674.5 L 313 669.5 L 315.5 666 L 318.5 665 Z " style="fill: rgb(44, 94, 87); stroke: rgb(119, 194, 184);" transform="matrix(0.31192224536415997, 0, 0, 0.31192224536415997, -360.8079037222148, -22.923850632252616)"/>
    <path d="M 481.5 665 L 487 667.5 L 488 672.5 L 487 675 L 481.5 677 L 477 673.5 L 479.5 666 L 481.5 665 Z " style="fill: rgb(44, 94, 87); stroke: rgb(119, 194, 184);" transform="matrix(0.31192224536415997, 0, 0, 0.31192224536415997, -360.8079037222148, -22.923850632252616)"/>
    <path d="M 512.5 673 L 516 675.5 L 517 678.5 L 514.5 682 L 511.5 683 L 508 680.5 L 507 677.5 L 509.5 674 L 512.5 673 Z " style="fill: rgb(44, 94, 87); stroke: rgb(119, 194, 184);" transform="matrix(0.31192224536415997, 0, 0, 0.31192224536415997, -360.8079037222148, -22.923850632252616)"/>
    <path d="M 286.5 674 L 293 675.5 L 294 678.5 L 290.5 683 L 285 680.5 L 284 677.5 L 286.5 674 Z " style="fill: rgb(44, 94, 87); stroke: rgb(119, 194, 184);" transform="matrix(0.31192224536415997, 0, 0, 0.31192224536415997, -360.8079037222148, -22.923850632252616)"/>
    <path d="M 578.5 681 L 582 683.5 L 580.5 687 L 578.5 688 L 576 687 L 577.5 682 L 578.5 681 Z " style="fill: rgb(44, 94, 87); stroke: rgb(119, 194, 184);" transform="matrix(0.31192224536415997, 0, 0, 0.31192224536415997, -360.8079037222148, -22.923850632252616)"/>
    <path d="M 220.5 682 L 225 683.5 L 225 685.5 L 223.5 688 L 219 685.5 L 220.5 682 Z " style="fill: rgb(44, 94, 87); stroke: rgb(119, 194, 184);" transform="matrix(0.31192224536415997, 0, 0, 0.31192224536415997, -360.8079037222148, -22.923850632252616)"/>
    <path d="M 264.5 683 L 270 685.5 L 267.5 690 L 262 687.5 L 264.5 683 Z " style="fill: rgb(44, 94, 87); stroke: rgb(119, 194, 184);" transform="matrix(0.31192224536415997, 0, 0, 0.31192224536415997, -360.8079037222148, -22.923850632252616)"/>
    <path d="M 534.5 683 L 539 685.5 L 536.5 690 L 531 687.5 L 532 684 L 534.5 683 Z " style="fill: rgb(44, 94, 87); stroke: rgb(119, 194, 184);" transform="matrix(0.31192224536415997, 0, 0, 0.31192224536415997, -360.8079037222148, -22.923850632252616)"/>
    <path d="M 241 694 L 247 695.5 L 244.5 700 L 241 698.5 L 241 694 Z " style="fill: rgb(44, 94, 87); stroke: rgb(119, 194, 184);" transform="matrix(0.31192224536415997, 0, 0, 0.31192224536415997, -360.8079037222148, -22.923850632252616)"/>
    <path d="M 555 694 L 560 695.5 L 558.5 700 L 554 697.5 L 555 694 Z " style="fill: rgb(44, 94, 87); stroke: rgb(119, 194, 184);" transform="matrix(0.31192224536415997, 0, 0, 0.31192224536415997, -360.8079037222148, -22.923850632252616)"/>
    <path d="M 222.5 705 Q 228.625 703.333 226 710 Q 219.333 712.625 221 706.5 L 222.5 705 Z " style="fill: rgb(44, 94, 87); stroke: rgb(119, 194, 184);" transform="matrix(0.31192224536415997, 0, 0, 0.31192224536415997, -360.8079037222148, -22.923850632252616)"/>
    <path d="M 576.5 705 L 580 706.5 L 581 708.5 L 576.5 710 L 575 706.5 L 576.5 705 Z " style="fill: rgb(44, 94, 87); stroke: rgb(119, 194, 184);" transform="matrix(0.31192224536415997, 0, 0, 0.31192224536415997, -360.8079037222148, -22.923850632252616)"/>
    <path d="M 240.5 124 L 269.5 142 L 317.5 159 L 350.5 174 L 369 190.5 L 371 193.5 Q 388.711 216.289 388 257.5 L 378.5 263 Q 375.7 257.8 366.5 259 L 360 263.5 L 358 272.5 L 362 280 L 357 283.5 L 358 292.5 L 328.5 310 Q 326.179 304.821 318.5 305 L 315.5 307 L 309.5 299 L 300.5 297 L 293 302.5 L 291 308.5 L 292 313 L 285 316.5 L 283.5 319 Q 260.939 306.561 245 287.5 Q 226.298 268.702 230 227.5 L 242 155.5 L 242 130.5 L 240.5 124 Z M 296 187 L 292 189 L 293 193 Q 295 203 290 208 Q 283 214 271 215 L 276 217 Q 286 218 291 214 L 301 200 L 300 188 L 296 187 Z M 283 198 L 281 199 L 279 205 L 286 207 L 289 203 L 288 201 L 283 198 Z M 323 204 L 262 243 L 264 246 L 287 237 L 292 240 L 292 245 L 283 261 Q 281 273 286 280 Q 292 288 303 291 Q 320 293 328 285 L 331 283 L 342 266 Q 340 260 344 261 L 350 269 L 353 268 Q 341 238 324 214 L 328 213 L 330 210 L 329 206 L 323 204 Z " style="stroke: rgba(119, 194, 184, 0.38); fill: rgba(36, 247, 29, 0.75); stroke-opacity: 0;" transform="matrix(0.31192224536415997, 0, 0, 0.31192224536415997, -360.8079037222148, -22.923850632252616)"/>
    <path d="M 560.5 124 L 561 125.5 Q 556.778 135.778 559 152.5 L 570 216.5 L 572 248.5 Q 567.387 280.387 547.5 297 L 546 298.5 L 517.5 319 L 513.5 314 L 509 313 L 510 305.5 L 503.5 298 L 496.5 297 L 490 300 L 488 306 L 479.5 305 L 471.5 310 Q 459.661 299.054 443 294 L 444 284.5 L 441.5 281 L 439 279.5 Q 444.2 276.7 443 267.5 L 436.5 259 Q 425.9 257.4 422.5 263 L 413 257.5 Q 412.524 203.524 442.5 180 L 471.5 164 L 531.5 142 L 560.5 124 Z M 500 187 Q 498 194 502 198 L 518 207 Q 534 209 539 200 L 536 194 L 522 200 Q 512 201 508 197 L 500 187 Z M 516 188 L 514 189 L 512 195 L 517 198 L 519 197 L 521 192 L 516 188 Z M 464 190 L 464 193 L 515 222 L 510 229 L 488 216 L 478 213 L 465 216 L 458 225 L 460 237 L 455 240 L 447 255 Q 446 274 455 283 L 464 290 L 454 266 Q 453 256 457 252 L 466 245 Q 482 243 492 249 L 498 258 L 497 265 L 492 269 L 490 272 L 494 274 L 502 272 L 508 263 Q 509 251 504 247 Q 495 235 475 235 L 473 235 L 469 234 L 468 228 L 475 223 L 481 224 L 497 235 L 508 239 L 520 237 L 527 227 L 531 233 L 538 238 L 542 235 L 540 227 Q 532 216 518 211 L 472 191 L 464 190 Z " style="stroke: rgb(119, 194, 184); fill: rgba(37, 218, 209, 0.68); stroke-opacity: 0;" transform="matrix(0.31192224536415997, 0, 0, 0.31192224536415997, -360.8079037222148, -22.923850632252616)"/>
    <path d="M 311.5 221 Q 324.921 231.929 332 248 L 326 250.5 L 324 255.5 L 328.5 261 L 334 263.5 Q 333.2 274.2 325.5 278 L 310.5 280 L 300 272.5 Q 295.333 267.667 297 256.5 Q 303.389 248.889 302 233.5 L 299 228.5 L 311.5 221 Z " style="fill: rgb(79, 247, 32); stroke: rgb(119, 194, 184);" transform="matrix(0.31192224536415997, 0, 0, 0.31192224536415997, -360.8079037222148, -22.923850632252616)"/>
    <g>
      <path d="M -235.883 8.892 C -236.163 10.523 -235.851 11.563 -234.947 12.011 L -233.544 12.479 C -233.824 14.424 -233.356 15.619 -232.14 16.066 C -231.014 15.777 -230.754 16.453 -231.36 18.094 C -229.533 19.074 -228.909 21.258 -229.489 24.644 L -235.883 38.837 L -241.03 28.075 C -242.106 26.344 -242.522 23.953 -242.277 20.901 L -240.406 18.094 L -240.406 16.066 L -238.846 15.755 L -238.222 12.323 L -236.351 11.544 L -235.883 8.892 Z M -236.351 15.755 L -236.975 16.066 L -238.846 18.562 L -238.534 20.121 L -236.039 21.681 L -234.479 21.369 L -232.92 19.498 L -233.544 17.002 C -233.96 15.962 -234.895 15.547 -236.351 15.755 Z" style="fill: rgba(41, 23, 100, 0.79); stroke-opacity: 0.18; stroke: rgba(8, 11, 10, 0.67); fill-opacity: 0.49;"/>
      <path d="M -316.359 55.057 C -315.865 56.018 -314.825 56.434 -313.24 56.304 L -312.772 55.369 L -309.809 56.304 L -307.469 55.057 L -307.001 55.681 L -305.754 56.304 L -303.57 55.681 L -298.112 59.58 L -290.313 70.497 L -291.405 70.653 L -305.13 69.093 L -309.965 66.442 L -311.056 63.791 L -312.46 63.011 L -312.148 61.451 L -313.552 59.736 L -314.643 59.268 L -314.331 57.708 L -315.423 56.304 L -316.515 55.525 L -316.359 55.057 Z M -309.029 57.552 L -309.965 58.176 L -310.9 59.424 L -310.276 62.543 L -308.717 63.167 L -305.91 62.543 L -305.286 61.607 L -305.91 58.488 C -306.533 57.656 -307.573 57.344 -309.029 57.552 Z" style="fill: rgba(41, 23, 100, 0.79); stroke-opacity: 0.18; stroke: rgba(8, 11, 10, 0.67); fill-opacity: 0.49;"/>
      <path d="M -163.829 55.057 L -161.334 56.304 L -159.462 55.057 L -157.279 56.304 L -155.095 55.369 L -155.407 55.992 L -157.123 57.084 L -157.435 58.02 L -157.123 59.268 L -158.682 60.047 L -159.618 61.763 L -159.306 63.011 L -161.178 64.258 C -161.126 65.766 -161.594 66.754 -162.581 67.222 L -168.508 69.405 L -181.297 70.653 L -181.141 70.185 L -172.251 58.176 L -167.572 55.681 L -166.012 56.304 L -163.829 55.057 Z M -164.609 57.552 L -166.48 59.736 L -166.168 61.919 L -164.297 63.167 L -161.49 62.543 L -160.866 61.607 L -161.178 58.8 C -161.594 57.552 -162.737 57.136 -164.609 57.552 Z" style="fill: rgba(41, 23, 100, 0.79); stroke-opacity: 0.18; stroke: rgba(8, 11, 10, 0.67); fill-opacity: 0.49;"/>
      <path d="M -291.093 133.349 L -290.313 133.505 L -300.451 146.762 L -303.882 148.321 L -306.689 148.01 L -307.469 148.321 L -307.937 148.945 L -310.121 147.698 L -312.304 148.945 C -312.512 147.906 -313.344 147.49 -314.799 147.698 L -316.359 148.633 L -316.047 148.01 L -314.643 146.918 L -314.331 145.67 L -314.643 144.266 L -312.46 143.175 L -312.148 141.615 L -312.46 140.991 L -310.588 139.744 L -309.965 137.404 L -305.13 134.909 L -291.093 133.349 Z M -308.717 140.835 L -309.341 141.147 C -310.588 141.563 -311.108 142.811 -310.9 144.89 L -308.717 146.45 L -305.91 145.826 L -305.286 144.89 C -305.078 143.019 -305.39 141.771 -306.222 141.147 L -308.717 140.835 Z" style="fill: rgba(41, 23, 100, 0.79); stroke-opacity: 0.18; stroke: rgba(8, 11, 10, 0.67); fill-opacity: 0.49;"/>
      <path d="M -180.985 133.349 L -166.636 134.909 L -161.802 137.56 L -160.086 140.523 L -159.306 140.991 C -159.566 142.499 -159.306 143.487 -158.526 143.955 L -157.123 144.734 L -157.435 146.294 L -156.031 148.01 L -155.563 148.165 L -156.031 148.321 L -158.214 147.698 L -159.774 148.633 L -161.957 147.698 L -163.829 148.945 L -164.765 148.01 L -169.756 147.698 L -172.719 145.358 L -180.985 133.349 Z M -164.297 140.835 L -164.921 141.147 L -166.48 143.019 L -165.857 145.826 L -164.297 146.45 L -161.802 146.138 L -160.866 144.89 L -161.178 142.083 C -161.802 141.043 -162.841 140.627 -164.297 140.835 Z" style="fill: rgba(41, 23, 100, 0.79); stroke-opacity: 0.18; stroke: rgba(8, 11, 10, 0.67); fill-opacity: 0.49;"/>
      <path d="M -235.883 164.853 L -230.424 176.55 C -229.437 178.266 -229.125 180.657 -229.489 183.725 C -230.744 184.237 -231.368 185.381 -231.36 187.156 L -231.516 187.936 L -233.232 189.027 L -233.544 191.679 L -235.415 192.458 L -235.883 195.11 L -236.819 191.991 L -238.222 191.679 C -237.807 189.853 -238.17 188.709 -239.314 188.247 L -240.406 187.78 L -240.406 185.596 L -242.277 183.413 L -242.277 180.293 L -235.883 164.853 Z M -235.727 182.321 L -237.287 182.945 C -238.534 183.361 -238.95 184.712 -238.534 187 L -236.351 188.247 L -234.167 187.936 L -232.92 186.064 L -233.232 184.193 L -235.727 182.321 Z" style="fill: rgba(41, 23, 100, 0.79); stroke-opacity: 0.18; stroke: rgba(8, 11, 10, 0.67); fill-opacity: 0.49;"/>
    </g>
    <path d="M 387.5 294 Q 412.471 291.529 429.5 297 Q 455.561 304.939 473 321.5 L 474.5 323 Q 508.628 349.872 508 411.5 Q 501.809 454.809 475.5 478 Q 448.507 509.007 389.5 508 Q 341.041 500.459 317 468.5 Q 292.842 442.658 293 392.5 Q 298.919 349.684 323 326 L 326.5 324 Q 348.008 300.008 387.5 294 Z M 390 303 Q 357 307 338 325 Q 310 347 303 389 Q 301 412 306 429 Q 313 452 328 468 Q 350 494 394 499 Q 442 499 466 475 Q 494 452 499 405 Q 497 358 474 334 Q 457 317 432 307 Q 415 301 390 303 Z " style="fill: rgb(247, 247, 247); stroke: rgb(119, 194, 184);" transform="matrix(0.31192224536415997, 0, 0, 0.31192224536415997, -360.8079037222148, -22.923850632252616)"/>
    <path d="M 392.5 308 Q 444.643 308.071 468 336 Q 492.441 357.89 494 403.5 Q 489.085 451.585 458.5 474 Q 436.257 493.757 394.5 494 Q 351.414 488.586 330 461.5 Q 316.026 446.474 310 423.5 Q 306.154 408.846 308 388.5 Q 312.214 362.536 325 346 L 328 344.5 L 341.5 329 Q 360.578 312.078 392.5 308 Z M 400 310 L 395 311 L 393 315 L 407 316 L 408 312 L 400 310 Z M 379 313 L 375 316 L 377 319 L 384 317 Q 386 310 379 313 Z M 418 313 L 416 317 L 424 319 L 425 314 L 418 313 Z M 436 318 L 435 319 L 433 322 L 441 326 L 443 322 L 436 318 Z M 363 319 L 358 323 L 361 326 L 367 323 Q 369 317 363 319 Z M 452 327 L 451 328 L 449 332 L 455 335 L 458 334 L 457 331 L 452 327 Z M 348 328 L 346 329 L 343 335 L 346 336 L 351 332 Q 353 326 348 328 Z M 438 339 L 431 350 Q 427 356 418 358 Q 404 358 398 352 L 396 355 L 411 363 Q 428 365 437 357 L 445 345 L 444 340 L 438 339 Z M 465 339 L 463 341 L 468 348 L 471 346 L 469 342 L 465 339 Z M 334 340 L 330 345 L 332 348 L 337 345 L 338 342 L 334 340 Z M 416 341 L 411 350 L 416 353 L 419 352 L 422 346 L 416 341 Z M 325 354 L 320 363 L 323 364 L 327 356 L 325 354 Z M 474 354 L 473 357 L 474 360 L 480 363 L 481 361 L 479 356 L 474 354 Z M 381 361 L 367 367 L 356 384 Q 353 398 359 405 L 364 408 L 372 406 L 375 401 L 374 387 L 376 380 L 378 376 L 383 374 L 390 375 L 395 385 L 391 396 L 382 405 L 382 408 L 393 406 Q 403 406 408 411 L 413 425 Q 412 438 405 447 L 391 453 Q 376 454 369 448 L 357 434 L 344 424 L 336 425 L 330 432 Q 328 442 335 444 L 342 443 Q 348 441 344 438 L 342 439 L 337 438 L 340 432 L 349 434 L 361 451 Q 369 460 385 463 Q 402 463 411 455 Q 422 446 425 430 Q 426 412 418 403 Q 414 395 404 395 L 407 385 Q 407 374 402 370 Q 396 360 381 361 Z M 456 363 Q 443 364 437 371 L 433 376 Q 424 388 407 392 L 409 394 L 425 390 L 454 373 L 464 376 L 466 381 Q 467 396 458 401 L 448 400 L 446 397 L 449 387 L 445 388 L 440 394 L 442 404 L 450 409 Q 461 410 466 404 Q 473 396 474 382 L 470 371 Q 466 363 456 363 Z M 483 370 L 481 372 L 483 379 L 487 380 L 488 377 L 486 372 L 483 370 Z M 317 371 L 314 375 Q 312 382 318 380 L 320 373 L 317 371 Z M 487 388 L 485 390 L 486 396 L 490 397 L 491 395 L 490 390 L 487 388 Z M 313 389 L 311 397 L 315 398 L 316 391 L 313 389 Z M 486 406 L 485 415 L 488 416 Q 492 415 490 408 L 486 406 Z M 313 407 L 311 409 L 312 415 L 316 416 L 317 414 L 316 409 L 313 407 Z M 484 424 L 481 430 L 481 432 L 485 433 L 487 426 L 484 424 Z M 315 425 L 317 434 L 321 433 L 319 427 L 315 425 Z M 324 441 L 321 444 L 326 450 L 329 449 L 328 444 L 324 441 Z M 476 441 L 472 447 L 473 450 L 477 449 L 480 443 L 476 441 Z M 334 456 L 332 458 L 337 464 Q 342 466 340 461 L 334 456 Z M 466 456 L 462 461 L 464 464 L 467 463 L 470 458 L 466 456 Z M 348 468 L 345 471 L 346 473 L 353 476 L 354 473 L 348 468 Z M 453 468 L 451 469 L 448 475 L 454 474 L 456 470 L 453 468 Z M 364 477 L 361 482 L 369 485 L 370 480 L 364 477 Z M 438 477 L 433 480 L 431 483 L 435 485 L 439 483 L 441 480 L 438 477 Z M 380 484 L 378 487 L 386 490 L 388 487 L 380 484 Z M 417 484 L 414 487 L 417 490 L 423 488 L 424 486 L 417 484 Z M 398 486 L 396 490 L 405 491 L 406 488 L 398 486 Z " style="stroke: rgb(119, 194, 184); fill: rgba(86, 72, 133, 0.81);" transform="matrix(0.31192224536415997, 0, 0, 0.31192224536415997, -360.8079037222148, -22.923850632252616)"/>
    <path d="M 207.5 322 Q 247.908 323.092 271 341.5 L 269 349.5 L 270 352 L 262 355.5 L 260 365.5 L 265.5 372 L 276 373 L 278.5 381 L 286 384.5 L 285 409.5 L 286 418 L 278 421.5 L 276 429 L 269.5 428 L 262 432 L 260 440.5 L 265.5 449 L 270 451.5 L 269 457.5 L 271 460.5 Q 248.624 477.624 211.5 480 Q 188.753 478.247 174.5 468 L 109.5 416 L 80 400.5 L 107.5 387 L 177.5 332 Q 189.47 323.97 207.5 322 Z M 188 362 L 182 375 L 183 378 L 182 380 L 185 434 L 190 442 Q 195 440 194 432 L 193 409 L 194 398 L 203 394 L 208 414 L 225 425 Q 245 428 254 418 Q 266 407 270 388 Q 271 383 267 385 L 260 399 Q 252 410 238 415 L 224 411 L 220 402 L 222 393 L 220 383 L 214 378 Q 200 376 195 382 L 193 382 L 193 365 L 188 362 Z M 159 379 L 156 385 L 164 389 L 171 399 Q 172 409 167 414 L 168 416 L 170 415 L 176 403 L 172 387 Q 169 379 159 379 Z M 164 395 L 161 396 L 160 401 L 166 403 L 168 398 L 164 395 Z " style="stroke: rgb(119, 194, 184); fill: rgba(247, 224, 46, 0.67); stroke-opacity: 0;" transform="matrix(0.31192224536415997, 0, 0, 0.31192224536415997, -360.8079037222148, -22.923850632252616)"/>
    <path d="M 582.5 322 Q 608.034 320.966 622.5 331 L 693.5 387 L 721 400.5 Q 687.486 414.711 664 438 L 662.5 440 L 623.5 470 Q 609.613 479.613 586.5 480 Q 552.233 476.004 530 461 L 532 452.5 L 531 450 L 540 444.5 L 541 436.5 L 537.5 431 L 527.5 428 L 525 427.5 L 521.5 420 L 515 416.5 L 516 389.5 L 515 384.5 L 524 379.5 L 525 373 Q 536.729 375.063 540 367.5 L 541 360.5 L 538 354 L 531 350.5 L 532 344.5 L 530 341.5 Q 550.75 326.25 582.5 322 Z M 559 364 L 548 370 Q 537 377 533 391 Q 531 414 542 424 L 546 429 L 566 436 L 582 432 Q 589 428 590 418 Q 603 420 609 413 L 616 401 Q 617 387 611 382 L 596 371 Q 584 370 581 377 Q 579 387 586 389 Q 594 390 597 386 L 600 387 L 606 398 L 605 404 L 600 407 L 593 406 L 581 397 L 578 399 L 581 412 L 578 420 L 566 425 L 555 422 Q 543 415 540 401 Q 539 385 547 379 L 557 372 L 561 373 L 567 372 L 568 368 L 559 364 Z M 630 385 L 621 399 Q 619 417 628 423 L 640 427 L 642 423 L 635 417 L 626 406 Q 624 392 631 388 L 630 385 Z M 632 399 L 628 405 L 635 408 L 638 404 L 637 400 L 632 399 Z " style="stroke: rgb(119, 194, 184); fill: rgba(62, 99, 247, 0.69); stroke-opacity: 0;" transform="matrix(0.31192224536415997, 0, 0, 0.31192224536415997, -360.8079037222148, -22.923850632252616)"/>
    <path d="M 283.5 483 L 287.5 488 L 292 489 Q 289.938 500.729 297.5 504 L 303.5 505 L 313 498.5 Q 311.65 493.917 317.5 496 L 321.5 497 L 329.5 492 Q 341.339 502.946 358 508 L 357 517.5 L 362 523.5 L 358 532.5 L 361.5 540 L 371.5 543 L 378.5 539 Q 380.839 544.111 388 543 Q 389.022 597.777 358.5 622 L 333.5 636 L 256.5 666 L 240.5 678 L 240 676.5 L 242 671.5 L 242 646.5 L 230 575.5 L 230 547.5 Q 235.75 519.25 254.5 504 L 283.5 483 Z M 306 519 L 277 564 L 271 561 L 266 564 L 266 568 L 268 570 L 324 601 L 329 600 L 330 598 L 329 594 L 286 570 L 292 561 L 296 567 Q 303 577 320 578 Q 332 578 339 572 L 346 559 Q 347 545 341 539 L 327 529 Q 313 528 306 531 L 308 521 L 306 519 Z M 279 589 L 270 592 L 266 597 L 269 600 L 280 595 L 290 597 L 295 605 L 298 605 L 295 598 Q 290 590 279 589 Z M 282 597 L 279 600 L 283 606 L 286 605 L 288 600 L 282 597 Z " style="stroke: rgb(119, 194, 184); fill-opacity: 0.88; fill: rgba(247, 137, 35, 0.9); stroke-opacity: 0;" transform="matrix(0.31192224536415997, 0, 0, 0.31192224536415997, -360.8079037222148, -22.923850632252616)"/>
    <path d="M 517.5 483 Q 539.31 494.69 555 512.5 Q 571.499 529.001 572 561.5 L 571 564.5 L 572 566.5 L 560 639.5 L 559 669.5 L 561 677.5 L 557.5 675 L 529.5 659 L 458.5 632 L 433 612.5 Q 412.55 587.71 413 543 L 423.5 539 Q 426.083 543.917 434.5 543 L 441 538.5 L 443 528.5 L 439 522.5 L 443 520 L 444 510.5 L 443 508 L 472.5 492 L 482.5 497 L 486.5 495 L 493.5 504 L 499.5 505 L 509 498.5 L 510 488 L 516 485.5 L 517.5 483 Z M 466 515 L 464 516 Q 451 525 446 542 Q 445 555 450 562 Q 458 574 476 577 L 482 588 L 471 594 L 474 599 Q 484 600 489 596 L 539 563 L 541 558 L 537 558 L 489 583 L 488 579 L 497 574 L 506 560 L 510 561 L 521 559 L 527 549 Q 529 534 524 527 Q 518 515 502 515 Q 497 516 498 523 L 513 530 L 519 538 Q 520 546 517 549 L 515 550 L 506 550 L 494 543 L 491 544 L 494 550 L 491 560 L 484 564 Q 469 565 462 559 L 454 548 L 455 535 L 468 517 L 466 515 Z M 518 585 L 510 588 L 500 601 Q 499 609 503 612 L 508 611 L 511 595 L 521 589 Q 528 591 528 588 Q 525 584 518 585 Z M 515 595 L 511 598 L 512 602 L 518 604 Q 522 603 521 597 L 515 595 Z " style="stroke: rgb(119, 194, 184); fill: rgba(255, 46, 27, 0.76); stroke-opacity: 0;" transform="matrix(0.31192224536415997, 0, 0, 0.31192224536415997, -360.8079037222148, -22.923850632252616)"/>
    <path d="M 309.5 535 Q 326.467 534.533 333 544.5 Q 337.688 548.313 336 558.5 L 331.5 565 Q 327.667 569.167 318.5 568 L 303 559.5 L 299 548.5 L 301.5 543 L 307 540.5 L 309.5 535 Z " style="stroke: rgb(119, 194, 184); stroke-opacity: 0; fill-opacity: 0.88; fill: rgba(247, 137, 35, 0.9);" transform="matrix(0.31192224536415997, 0, 0, 0.31192224536415997, -360.8079037222148, -22.923850632252616)"/>
  </g>
</svg>